<svg width="85" height="16" viewBox="0 0 85 16" fill="none" xmlns="http://www.w3.org/2000/svg">
<path d="M4.7 4.98C5.24667 4.98 5.78 5.06 6.3 5.22C6.83333 5.36667 7.29333 5.59333 7.68 5.9C8.08 5.63333 8.52667 5.41333 9.02 5.24C9.52667 5.06667 10.1333 4.98 10.84 4.98C11.3467 4.98 11.84 5.04667 12.32 5.18C12.8133 5.31333 13.2467 5.52667 13.62 5.82C14.0067 6.1 14.3133 6.48 14.54 6.96C14.7667 7.42667 14.88 8 14.88 8.68V14.98C14.7467 15.02 14.5333 15.06 14.24 15.1C13.96 15.14 13.6667 15.16 13.36 15.16C13.0667 15.16 12.8 15.14 12.56 15.1C12.3333 15.06 12.14 14.98 11.98 14.86C11.82 14.74 11.6933 14.58 11.6 14.38C11.52 14.1667 11.48 13.8933 11.48 13.56V8.78C11.48 8.38 11.3667 8.09333 11.14 7.92C10.9133 7.73333 10.6067 7.64 10.22 7.64C10.0333 7.64 9.83333 7.68667 9.62 7.78C9.40667 7.86 9.24667 7.94667 9.14 8.04C9.15333 8.09333 9.16 8.14667 9.16 8.2C9.16 8.24 9.16 8.28 9.16 8.32V14.98C9.01333 15.02 8.79333 15.06 8.5 15.1C8.22 15.14 7.93333 15.16 7.64 15.16C7.34667 15.16 7.08 15.14 6.84 15.1C6.61333 15.06 6.42 14.98 6.26 14.86C6.1 14.74 5.97333 14.58 5.88 14.38C5.8 14.1667 5.76 13.8933 5.76 13.56V8.78C5.76 8.38 5.63333 8.09333 5.38 7.92C5.14 7.73333 4.84667 7.64 4.5 7.64C4.26 7.64 4.05333 7.68 3.88 7.76C3.70667 7.82667 3.56 7.89333 3.44 7.96V14.98C3.30667 15.02 3.09333 15.06 2.8 15.1C2.52 15.14 2.22667 15.16 1.92 15.16C1.62667 15.16 1.36 15.14 1.12 15.1C0.893333 15.06 0.7 14.98 0.54 14.86C0.38 14.74 0.253333 14.58 0.16 14.38C0.08 14.1667 0.04 13.8933 0.04 13.56V7.52C0.04 7.16 0.113333 6.87333 0.26 6.66C0.42 6.44667 0.633333 6.24667 0.9 6.06C1.35333 5.74 1.91333 5.48 2.58 5.28C3.26 5.08 3.96667 4.98 4.7 4.98ZM22.0941 15.32C21.3074 15.32 20.5741 15.2133 19.8941 15C19.2274 14.7733 18.6407 14.44 18.1341 14C17.6407 13.56 17.2474 13.0067 16.9541 12.34C16.6741 11.6733 16.5341 10.8933 16.5341 10C16.5341 9.12 16.6741 8.36667 16.9541 7.74C17.2474 7.1 17.6274 6.58 18.0941 6.18C18.5607 5.76667 19.0941 5.46667 19.6941 5.28C20.2941 5.08 20.9074 4.98 21.5341 4.98C22.2407 4.98 22.8807 5.08667 23.4541 5.3C24.0407 5.51333 24.5407 5.80667 24.9541 6.18C25.3807 6.55333 25.7074 7 25.9341 7.52C26.1741 8.04 26.2941 8.60667 26.2941 9.22C26.2941 9.67333 26.1674 10.02 25.9141 10.26C25.6607 10.5 25.3074 10.6533 24.8541 10.72L19.9141 11.46C20.0607 11.9 20.3607 12.2333 20.8141 12.46C21.2674 12.6733 21.7874 12.78 22.3741 12.78C22.9207 12.78 23.4341 12.7133 23.9141 12.58C24.4074 12.4333 24.8074 12.2667 25.1141 12.08C25.3274 12.2133 25.5074 12.4 25.6541 12.64C25.8007 12.88 25.8741 13.1333 25.8741 13.4C25.8741 14 25.5941 14.4467 25.0341 14.74C24.6074 14.9667 24.1274 15.12 23.5941 15.2C23.0607 15.28 22.5607 15.32 22.0941 15.32ZM21.5341 7.46C21.2141 7.46 20.9341 7.51333 20.6941 7.62C20.4674 7.72667 20.2807 7.86667 20.1341 8.04C19.9874 8.2 19.8741 8.38667 19.7941 8.6C19.7274 8.8 19.6874 9.00667 19.6741 9.22L23.0941 8.66C23.0541 8.39333 22.9074 8.12667 22.6541 7.86C22.4007 7.59333 22.0274 7.46 21.5341 7.46ZM33.4106 7.66C33.0773 7.66 32.7573 7.71333 32.4506 7.82C32.1573 7.92667 31.8973 8.08667 31.6706 8.3C31.4573 8.5 31.284 8.75333 31.1506 9.06C31.0173 9.36667 30.9506 9.72667 30.9506 10.14C30.9506 10.9667 31.184 11.5867 31.6506 12C32.1306 12.4133 32.7106 12.62 33.3906 12.62C33.7906 12.62 34.1373 12.5733 34.4306 12.48C34.724 12.3867 34.984 12.2867 35.2106 12.18C35.4773 12.3667 35.6773 12.5733 35.8106 12.8C35.944 13.0133 36.0106 13.2733 36.0106 13.58C36.0106 14.1267 35.7506 14.5533 35.2306 14.86C34.7106 15.1533 33.9906 15.3 33.0706 15.3C32.2306 15.3 31.4706 15.18 30.7906 14.94C30.1106 14.6867 29.524 14.34 29.0306 13.9C28.5506 13.4467 28.1773 12.9067 27.9106 12.28C27.644 11.6533 27.5106 10.96 27.5106 10.2C27.5106 9.32 27.6506 8.55333 27.9306 7.9C28.224 7.23333 28.6173 6.68667 29.1106 6.26C29.604 5.83333 30.1706 5.51333 30.8106 5.3C31.464 5.08667 32.1506 4.98 32.8706 4.98C33.8306 4.98 34.5706 5.15333 35.0906 5.5C35.6106 5.84667 35.8706 6.29333 35.8706 6.84C35.8706 7.09333 35.8106 7.33333 35.6906 7.56C35.5706 7.77333 35.4306 7.96 35.2706 8.12C35.044 8.01333 34.7706 7.91333 34.4506 7.82C34.1306 7.71333 33.784 7.66 33.4106 7.66ZM47.3158 14.98C47.1824 15.02 46.9691 15.06 46.6758 15.1C46.3958 15.14 46.1024 15.16 45.7958 15.16C45.5024 15.16 45.2358 15.14 44.9958 15.1C44.7691 15.06 44.5758 14.98 44.4158 14.86C44.2558 14.74 44.1291 14.58 44.0358 14.38C43.9558 14.1667 43.9158 13.8933 43.9158 13.56V9.12C43.9158 8.57333 43.7758 8.19333 43.4958 7.98C43.2291 7.75333 42.8958 7.64 42.4958 7.64C42.2291 7.64 41.9758 7.67333 41.7358 7.74C41.4958 7.80667 41.3024 7.88667 41.1558 7.98V14.98C41.0224 15.02 40.8091 15.06 40.5158 15.1C40.2358 15.14 39.9424 15.16 39.6358 15.16C39.3424 15.16 39.0758 15.14 38.8358 15.1C38.6091 15.06 38.4158 14.98 38.2558 14.86C38.0958 14.74 37.9691 14.58 37.8758 14.38C37.7958 14.1667 37.7558 13.8933 37.7558 13.56V1.96C37.9024 1.93333 38.1158 1.9 38.3958 1.86C38.6891 1.80667 38.9824 1.78 39.2758 1.78C39.5691 1.78 39.8291 1.8 40.0558 1.84C40.2958 1.88 40.4958 1.96 40.6558 2.08C40.8158 2.2 40.9358 2.36667 41.0158 2.58C41.1091 2.78 41.1558 3.04667 41.1558 3.38V5.34C41.3291 5.27333 41.5891 5.2 41.9358 5.12C42.2958 5.02667 42.6891 4.98 43.1158 4.98C44.4358 4.98 45.4624 5.31333 46.1958 5.98C46.9424 6.63333 47.3158 7.61333 47.3158 8.92V14.98ZM59.475 10.14C59.475 10.9667 59.3483 11.7067 59.095 12.36C58.8417 13 58.4817 13.54 58.015 13.98C57.5617 14.42 57.015 14.7533 56.375 14.98C55.735 15.2067 55.0217 15.32 54.235 15.32C53.4483 15.32 52.735 15.2 52.095 14.96C51.455 14.72 50.9017 14.38 50.435 13.94C49.9817 13.4867 49.6283 12.94 49.375 12.3C49.1217 11.66 48.995 10.94 48.995 10.14C48.995 9.35333 49.1217 8.64 49.375 8C49.6283 7.36 49.9817 6.82 50.435 6.38C50.9017 5.92667 51.455 5.58 52.095 5.34C52.735 5.1 53.4483 4.98 54.235 4.98C55.0217 4.98 55.735 5.10667 56.375 5.36C57.015 5.6 57.5617 5.94667 58.015 6.4C58.4817 6.84 58.8417 7.38 59.095 8.02C59.3483 8.66 59.475 9.36667 59.475 10.14ZM52.475 10.14C52.475 10.9533 52.6283 11.58 52.935 12.02C53.255 12.4467 53.695 12.66 54.255 12.66C54.815 12.66 55.2417 12.44 55.535 12C55.8417 11.56 55.995 10.94 55.995 10.14C55.995 9.34 55.8417 8.72667 55.535 8.3C55.2283 7.86 54.795 7.64 54.235 7.64C53.675 7.64 53.2417 7.86 52.935 8.3C52.6283 8.72667 52.475 9.34 52.475 10.14ZM71.1938 10.14C71.1938 10.9667 71.0671 11.7067 70.8138 12.36C70.5604 13 70.2004 13.54 69.7338 13.98C69.2804 14.42 68.7338 14.7533 68.0938 14.98C67.4538 15.2067 66.7404 15.32 65.9538 15.32C65.1671 15.32 64.4538 15.2 63.8138 14.96C63.1738 14.72 62.6204 14.38 62.1538 13.94C61.7004 13.4867 61.3471 12.94 61.0938 12.3C60.8404 11.66 60.7138 10.94 60.7138 10.14C60.7138 9.35333 60.8404 8.64 61.0938 8C61.3471 7.36 61.7004 6.82 62.1538 6.38C62.6204 5.92667 63.1738 5.58 63.8138 5.34C64.4538 5.1 65.1671 4.98 65.9538 4.98C66.7404 4.98 67.4538 5.10667 68.0938 5.36C68.7338 5.6 69.2804 5.94667 69.7338 6.4C70.2004 6.84 70.5604 7.38 70.8138 8.02C71.0671 8.66 71.1938 9.36667 71.1938 10.14ZM64.1938 10.14C64.1938 10.9533 64.3471 11.58 64.6538 12.02C64.9738 12.4467 65.4138 12.66 65.9737 12.66C66.5338 12.66 66.9604 12.44 67.2538 12C67.5604 11.56 67.7138 10.94 67.7138 10.14C67.7138 9.34 67.5604 8.72667 67.2538 8.3C66.9471 7.86 66.5138 7.64 65.9538 7.64C65.3938 7.64 64.9604 7.86 64.6538 8.3C64.3471 8.72667 64.1938 9.34 64.1938 10.14ZM76.2525 14.98C76.1192 15.02 75.9058 15.06 75.6125 15.1C75.3325 15.14 75.0392 15.16 74.7325 15.16C74.4392 15.16 74.1725 15.14 73.9325 15.1C73.7058 15.06 73.5125 14.98 73.3525 14.86C73.1925 14.74 73.0658 14.58 72.9725 14.38C72.8925 14.1667 72.8525 13.8933 72.8525 13.56V7.56C72.8525 7.25333 72.9058 6.99333 73.0125 6.78C73.1325 6.55333 73.2992 6.35333 73.5125 6.18C73.7258 6.00667 73.9858 5.85333 74.2925 5.72C74.6125 5.57333 74.9525 5.44667 75.3125 5.34C75.6725 5.23333 76.0458 5.15333 76.4325 5.1C76.8192 5.03333 77.2058 5 77.5925 5C78.2325 5 78.7392 5.12667 79.1125 5.38C79.4858 5.62 79.6725 6.02 79.6725 6.58C79.6725 6.76667 79.6458 6.95333 79.5925 7.14C79.5392 7.31333 79.4725 7.47333 79.3925 7.62C79.1125 7.62 78.8258 7.63333 78.5325 7.66C78.2392 7.68667 77.9525 7.72667 77.6725 7.78C77.3925 7.83333 77.1258 7.89333 76.8725 7.96C76.6325 8.01333 76.4258 8.08 76.2525 8.16V14.98ZM80.9952 2.58C80.9952 2.07333 81.1618 1.64667 81.4952 1.3C81.8418 0.953333 82.2952 0.779999 82.8552 0.779999C83.4152 0.779999 83.8618 0.953333 84.1952 1.3C84.5418 1.64667 84.7152 2.07333 84.7152 2.58C84.7152 3.08667 84.5418 3.51333 84.1952 3.86C83.8618 4.20667 83.4152 4.38 82.8552 4.38C82.2952 4.38 81.8418 4.20667 81.4952 3.86C81.1618 3.51333 80.9952 3.08667 80.9952 2.58ZM84.5552 14.98C84.4085 15.0067 84.1885 15.04 83.8952 15.08C83.6152 15.1333 83.3285 15.16 83.0352 15.16C82.7418 15.16 82.4752 15.14 82.2352 15.1C82.0085 15.06 81.8152 14.98 81.6552 14.86C81.4952 14.74 81.3685 14.58 81.2752 14.38C81.1952 14.1667 81.1552 13.8933 81.1552 13.56V5.42C81.3018 5.39333 81.5152 5.36 81.7952 5.32C82.0885 5.26667 82.3818 5.24 82.6752 5.24C82.9685 5.24 83.2285 5.26 83.4552 5.3C83.6952 5.34 83.8952 5.42 84.0552 5.54C84.2152 5.66 84.3352 5.82667 84.4152 6.04C84.5085 6.24 84.5552 6.50667 84.5552 6.84V14.98Z" fill="black"/>
</svg>
