<svg width="28" height="21" viewBox="0 0 28 21" fill="none" xmlns="http://www.w3.org/2000/svg">
<path d="M27.125 17.5H3.5V0.875C3.5 0.391563 3.10844 0 2.625 0H0.875C0.391563 0 0 0.391563 0 0.875V19.25C0 20.2163 0.783672 21 1.75 21H27.125C27.6084 21 28 20.6084 28 20.125V18.375C28 17.8916 27.6084 17.5 27.125 17.5ZM25.375 1.75H18.9186C17.7494 1.75 17.1637 3.16367 17.9905 3.99055L19.7624 5.76242L15.75 9.77539L11.7376 5.76297C11.054 5.07938 9.94602 5.07938 9.26297 5.76297L5.50648 9.51945C5.16469 9.86125 5.16469 10.4152 5.50648 10.757L6.74352 11.9941C7.08531 12.3359 7.6393 12.3359 7.98109 11.9941L10.5 9.47461L14.5124 13.487C15.196 14.1706 16.304 14.1706 16.987 13.487L22.237 8.23703L24.0089 10.0089C24.8358 10.8358 26.2495 10.2501 26.2495 9.08086V2.625C26.25 2.14156 25.8584 1.75 25.375 1.75Z" fill="#2292F9"/>
</svg>
