<svg width="24" height="24" viewBox="0 0 24 24" fill="none" xmlns="http://www.w3.org/2000/svg">
<g clip-path="url(#clip0_225_2749)">
<path d="M23.3764 12.5036C23.3768 12.1157 23.2862 11.7331 23.1119 11.3865C22.9376 11.0399 22.6845 10.739 22.3729 10.5079C22.6138 10.1673 22.7653 9.7717 22.8135 9.35737C22.8618 8.94304 22.8054 8.52322 22.6493 8.13638C22.4854 7.72985 22.2171 7.3738 21.8714 7.10422C21.5258 6.83465 21.1151 6.6611 20.6809 6.60113C20.7477 6.21994 20.7246 5.82845 20.6136 5.45774C20.5025 5.08703 20.3066 4.74733 20.0413 4.4656C19.776 4.18388 19.4486 3.9679 19.0852 3.83483C18.7218 3.70175 18.3324 3.65525 17.9479 3.699C17.8679 3.30269 17.6925 2.93187 17.4369 2.61862C17.1813 2.30537 16.8531 2.05914 16.4809 1.90125C16.0745 1.72827 15.6294 1.66658 15.1913 1.72254C14.7532 1.77849 14.3378 1.95006 13.9879 2.21963C13.7724 1.83119 13.4569 1.50747 13.0742 1.28203C12.6914 1.05659 12.2553 0.937636 11.8111 0.9375C11.4265 0.937281 11.0472 1.02643 10.703 1.19791C10.3588 1.36939 10.0591 1.61852 9.82769 1.92563C9.49604 1.72249 9.12148 1.59974 8.73392 1.56718C8.34637 1.53463 7.95658 1.59317 7.59569 1.73813C7.18686 1.90368 6.82919 2.17461 6.55912 2.52333C6.28904 2.87206 6.1162 3.28613 6.05819 3.72338C5.18444 3.42113 4.17569 3.615 3.47856 4.314C3.18989 4.60274 2.97657 4.95797 2.85737 5.34847C2.73817 5.73897 2.71673 6.15277 2.79494 6.5535C2.42673 6.64935 2.08543 6.82841 1.79729 7.07688C1.50916 7.32536 1.28188 7.63664 1.13294 7.98675C0.975225 8.35787 0.90996 8.76173 0.94275 9.16363C0.97554 9.56554 1.1054 9.95348 1.32119 10.2941C0.935585 10.5 0.610972 10.8037 0.379979 11.1748C0.148985 11.5459 0.0197534 11.9713 0.00527312 12.4082C-0.00920713 12.8451 0.0915748 13.2781 0.297488 13.6636C0.503401 14.0492 0.807189 14.3738 1.17831 14.6048C0.764688 15.261 0.657438 16.098 0.970938 16.8698C1.11957 17.2386 1.35455 17.5665 1.65615 17.8257C1.95775 18.085 2.31716 18.2681 2.70419 18.3596C2.62937 18.7581 2.65295 19.1688 2.77287 19.556C2.89279 19.9433 3.10542 20.2954 3.39231 20.5819C3.6852 20.8744 4.04627 21.0895 4.44297 21.2077C4.83968 21.3259 5.25957 21.3436 5.66481 21.2591C5.73815 21.6652 5.91146 22.0466 6.16908 22.3689C6.4267 22.6912 6.76053 22.9442 7.14044 23.1053C7.93281 23.4428 8.80019 23.3385 9.47144 22.9043C9.69605 23.2576 10.0062 23.5485 10.3732 23.7501C10.7401 23.9516 11.152 24.0573 11.5707 24.0574C11.9762 24.0578 12.3757 23.9591 12.7343 23.7698C13.093 23.5805 13.3999 23.3064 13.6283 22.9714C13.9734 23.2232 14.3775 23.382 14.8017 23.4324C15.2259 23.4828 15.6559 23.4231 16.0504 23.2591C16.4449 23.0951 16.7905 22.8323 17.0539 22.496C17.3174 22.1597 17.4898 21.7613 17.5546 21.339C17.9696 21.4403 18.4037 21.433 18.8151 21.3179C19.2264 21.2029 19.6013 20.9839 19.9036 20.682C20.1847 20.4006 20.3944 20.0559 20.5151 19.6769C20.6358 19.2979 20.664 18.8954 20.5973 18.5033C21.0125 18.4358 21.4039 18.2644 21.7351 18.0049C22.0662 17.7455 22.3263 17.4064 22.4911 17.0194C22.6574 16.6278 22.7205 16.2 22.6743 15.777C22.6281 15.3541 22.4741 14.9501 22.2271 14.6036C22.5801 14.3782 22.8706 14.0676 23.072 13.7003C23.2733 13.333 23.3789 12.921 23.3791 12.5021" fill="#9D9E9F"/>
<path d="M8.6565 6.96588C8.6565 5.15576 9.04612 3.43788 9.73987 1.885C9.41556 1.70123 9.05401 1.59289 8.68208 1.56803C8.31014 1.54316 7.93739 1.60241 7.5915 1.74138C7.18267 1.90693 6.825 2.17786 6.55493 2.52659C6.28485 2.87531 6.11201 3.28938 6.054 3.72663C5.18025 3.42438 4.1715 3.61825 3.47437 4.31726C3.1857 4.60599 2.97239 4.96122 2.85318 5.35172C2.73398 5.74222 2.71254 6.15603 2.79075 6.55676C2.42254 6.65261 2.08124 6.83166 1.79311 7.08014C1.50497 7.32862 1.27769 7.63989 1.12875 7.99001C0.971037 8.36112 0.905772 8.76498 0.938562 9.16689C0.971352 9.5688 1.10122 9.95673 1.317 10.2974C0.919067 10.5101 0.586366 10.8269 0.354413 11.2139C0.12246 11.6009 -3.64293e-05 12.0437 8.12652e-09 12.4949C-2.82436e-06 12.9179 0.107801 13.334 0.313236 13.7038C0.51867 14.0735 0.814957 14.3849 1.17412 14.6084C0.7605 15.2646 0.65325 16.1016 0.96675 16.8734C1.11538 17.2423 1.35036 17.5701 1.65196 17.8294C1.95356 18.0886 2.31297 18.2717 2.7 18.3633C2.62519 18.7617 2.64876 19.1724 2.76868 19.5597C2.8886 19.9469 3.10123 20.2991 3.38812 20.5855C3.68101 20.878 4.04208 21.0931 4.43879 21.2113C4.83549 21.3296 5.25538 21.3472 5.66062 21.2628C5.73396 21.6688 5.90727 22.0502 6.16489 22.3725C6.42251 22.6948 6.75634 22.9479 7.13625 23.1089C7.92862 23.4464 8.796 23.3421 9.46725 22.9079C9.69186 23.2612 10.002 23.5521 10.369 23.7537C10.7359 23.9553 11.1478 24.061 11.5665 24.061C11.972 24.0615 12.3715 23.9627 12.7301 23.7735C13.0888 23.5842 13.3957 23.3101 13.6241 22.975C13.9692 23.2269 14.3733 23.3856 14.7975 23.436C15.2217 23.4864 15.6518 23.4268 16.0462 23.2628C16.4407 23.0988 16.7863 22.836 17.0497 22.4997C17.3132 22.1634 17.4856 21.7649 17.5504 21.3426C17.9654 21.4439 18.3995 21.4366 18.8109 21.3216C19.2223 21.2065 19.5971 20.9875 19.8994 20.6856C20.2448 20.3391 20.4801 19.8981 20.5755 19.4181C13.9451 19.1301 8.65725 13.666 8.65725 6.96438" fill="#9D9E9F"/>
<path d="M23.3722 11.5669C23.3726 11.1788 23.282 10.7961 23.1077 10.4494C22.9335 10.1027 22.6804 9.80161 22.3687 9.57037C22.6095 9.22977 22.761 8.83418 22.8093 8.41986C22.8576 8.00554 22.8011 7.58573 22.6451 7.19888C22.4813 6.79236 22.213 6.43634 21.8673 6.16688C21.5217 5.89741 21.1109 5.72406 20.6767 5.66437C20.7455 5.27061 20.7186 4.86608 20.5984 4.48488C20.4781 4.10368 20.2679 3.75698 19.9856 3.474C19.7205 3.20974 19.3993 3.00847 19.0459 2.88508C18.6924 2.76168 18.3158 2.71932 17.9437 2.76113C17.8637 2.36472 17.6883 1.99378 17.4327 1.68041C17.1771 1.36704 16.849 1.12067 16.4767 0.962625C16.0702 0.790185 15.6252 0.728796 15.1872 0.784734C14.7492 0.840673 14.3339 1.01193 13.9837 1.281C13.768 0.892877 13.4524 0.569472 13.0696 0.344252C12.6869 0.119033 12.251 0.000182039 11.8069 4.03003e-07C11.4223 -0.000218729 11.043 0.0889297 10.6988 0.260412C10.3546 0.431894 10.0549 0.681017 9.8235 0.988125C9.49212 0.784297 9.11748 0.661169 8.72979 0.628666C8.3421 0.596163 7.9522 0.655194 7.5915 0.801C7.18272 0.966519 6.82509 1.23739 6.55502 1.58605C6.28494 1.9347 6.11207 2.34869 6.054 2.78588C5.64022 2.64138 5.19563 2.6087 4.76518 2.69113C4.33472 2.77356 3.93366 2.96818 3.60254 3.25532C3.27141 3.54245 3.02197 3.91192 2.87943 4.32637C2.73689 4.74082 2.7063 5.18556 2.79075 5.61562C2.42252 5.71142 2.08119 5.89046 1.79305 6.13894C1.50491 6.38743 1.27764 6.69873 1.12875 7.04888C0.970975 7.41985 0.905676 7.8236 0.938468 8.2254C0.971259 8.6272 1.10116 9.01501 1.317 9.3555C0.919002 9.56851 0.586289 9.88557 0.354348 10.2728C0.122406 10.6601 -6.38778e-05 11.1031 2.49947e-08 11.5545C4.67465e-05 11.9774 0.107882 12.3932 0.31332 12.7628C0.518759 13.1324 0.81502 13.4436 1.17412 13.6669C0.961594 14.0013 0.831911 14.3816 0.795844 14.7761C0.759777 15.1707 0.818368 15.5682 0.96675 15.9356C1.11573 16.3043 1.35082 16.6319 1.65236 16.8911C1.95391 17.1503 2.31314 17.3336 2.7 17.4255C2.62476 17.8281 2.64987 18.2431 2.7731 18.6337C2.89634 19.0243 3.11391 19.3786 3.40658 19.6651C3.69925 19.9517 4.05801 20.1617 4.45114 20.2767C4.84428 20.3916 5.25968 20.408 5.66062 20.3242C5.7337 20.7281 5.90546 21.1076 6.16063 21.429C6.41581 21.7505 6.74647 22.0039 7.12321 22.1666C7.49995 22.3294 7.91109 22.3966 8.32004 22.3621C8.72899 22.3276 9.12308 22.1926 9.46725 21.969C9.68847 22.3166 9.9925 22.6039 10.3521 22.8051C10.7116 23.0063 11.1155 23.1151 11.5275 23.1218C11.9395 23.1285 12.3467 23.0329 12.7126 22.8434C13.0785 22.654 13.3917 22.3767 13.6241 22.0365C13.9654 22.286 14.3648 22.4443 14.7844 22.4963C15.2041 22.5482 15.63 22.4922 16.0219 22.3335C16.4219 22.1721 16.7731 21.9095 17.041 21.5714C17.309 21.2334 17.4845 20.8315 17.5504 20.4052C17.9656 20.5057 18.3996 20.4978 18.8109 20.3825C19.2222 20.2671 19.597 20.0481 19.8994 19.7464C20.1806 19.4651 20.3903 19.1206 20.511 18.7417C20.6317 18.3628 20.6598 17.9604 20.5931 17.5684C21.0082 17.5009 21.3995 17.3296 21.7306 17.0704C22.0617 16.8112 22.3218 16.4724 22.4869 16.0856C22.6532 15.6937 22.7163 15.2656 22.6701 14.8424C22.6239 14.4191 22.4699 14.0148 22.2229 13.668C22.576 13.4431 22.8667 13.1329 23.068 12.7659C23.2694 12.3989 23.3749 11.987 23.3749 11.5684" fill="#E6E7E8"/>
<path d="M8.6565 6.02443C8.6565 4.21393 9.04612 2.49568 9.73987 0.941306C9.10387 0.586556 8.3205 0.505556 7.5915 0.799931C7.18272 0.965449 6.82509 1.23632 6.55502 1.58498C6.28494 1.93364 6.11207 2.34762 6.054 2.78481C5.64022 2.64032 5.19563 2.60763 4.76518 2.69006C4.33472 2.77249 3.93366 2.96711 3.60254 3.25425C3.27141 3.54138 3.02197 3.91085 2.87943 4.3253C2.73689 4.73975 2.7063 5.18449 2.79075 5.61456C2.42252 5.71036 2.08119 5.88939 1.79305 6.13787C1.50491 6.38636 1.27764 6.69766 1.12875 7.04781C0.970975 7.41878 0.905676 7.82253 0.938468 8.22433C0.971259 8.62613 1.10116 9.01395 1.317 9.35443C0.919002 9.56745 0.586289 9.8845 0.354348 10.2718C0.122406 10.659 -6.38778e-05 11.102 2.49947e-08 11.5534C4.67465e-05 11.9763 0.107882 12.3922 0.31332 12.7618C0.518759 13.1314 0.81502 13.4425 1.17412 13.6658C0.961594 14.0002 0.831911 14.3805 0.795844 14.7751C0.759777 15.1697 0.818368 15.5672 0.96675 15.9346C1.11573 16.3032 1.35082 16.6309 1.65236 16.8901C1.95391 17.1493 2.31314 17.3325 2.7 17.4244C2.62476 17.8271 2.64987 18.242 2.7731 18.6326C2.89634 19.0233 3.11391 19.3775 3.40658 19.6641C3.69925 19.9506 4.05801 20.1607 4.45114 20.2756C4.84428 20.3906 5.25968 20.4069 5.66062 20.3232C5.7337 20.727 5.90546 21.1065 6.16063 21.428C6.41581 21.7494 6.74647 22.0028 7.12321 22.1656C7.49995 22.3284 7.91109 22.3955 8.32004 22.361C8.72899 22.3265 9.12308 22.1915 9.46725 21.9679C9.68847 22.3155 9.99249 22.6028 10.3521 22.804C10.7116 23.0052 11.1155 23.1141 11.5275 23.1207C11.9395 23.1274 12.3467 23.0318 12.7126 22.8424C13.0785 22.6529 13.3917 22.3757 13.6241 22.0354C13.9654 22.285 14.3648 22.4432 14.7844 22.4952C15.2041 22.5472 15.63 22.4911 16.0219 22.3324C16.4219 22.171 16.7731 21.9084 17.041 21.5704C17.309 21.2323 17.4845 20.8305 17.5504 20.4042C17.9656 20.5046 18.3996 20.4968 18.8109 20.3814C19.2222 20.266 19.597 20.047 19.8994 19.7453C20.2451 19.3995 20.4804 18.9589 20.5755 18.4793C13.9451 18.1909 8.65725 12.7272 8.65725 6.02556" fill="#CCCBCB"/>
<path d="M18.3347 7.69984C15.4487 4.19809 10.3281 2.98872 6.62348 5.94747C3.52036 8.42659 4.15036 13.6023 6.42098 16.3931C8.87798 19.4118 13.9997 19.2127 16.5985 16.4977C18.0145 15.0183 18.2984 12.6806 17.5127 10.8315C16.7417 9.00634 15.0962 7.91059 13.1582 7.68784C11.1602 7.45759 8.96048 7.94584 8.21236 10.0158C7.30223 12.531 10.0652 14.4622 12.2991 13.8536C13.4215 13.5483 12.9445 11.8076 11.8187 12.1128C9.98648 12.6123 9.12848 10.2386 10.954 9.61759C12.3512 9.14284 14.1212 9.46009 15.1765 10.4868C16.5216 11.7967 16.4147 14.0816 15.1641 15.3881C13.942 16.665 11.7666 17.0287 10.1054 16.6496C6.86986 15.9146 5.46173 11.4228 6.76936 8.60922C7.61723 6.78822 9.75848 6.01422 11.6369 6.04122C13.8081 6.07347 15.7225 7.35184 17.0601 8.97447C17.8022 9.87259 19.0716 8.58822 18.3359 7.69947" fill="#EC297B"/>
</g>
<defs>
<clipPath id="clip0_225_2749">
<rect width="24" height="24" fill="white"/>
</clipPath>
</defs>
</svg>
