<svg width="29" height="29" viewBox="0 0 29 29" fill="none" xmlns="http://www.w3.org/2000/svg">
<path d="M14.4991 28.9999C2.44963 28.9999 0.804688 16.9166 0.804688 13.6943H28.1936C28.1936 15.3054 26.6163 28.9999 14.4991 28.9999Z" fill="#DD2E44"/>
<path d="M14.4991 21.3452C22.0624 21.3452 28.1936 17.9391 28.1936 13.7376C28.1936 9.53595 22.0624 6.12988 14.4991 6.12988C6.9359 6.12988 0.804688 9.53595 0.804688 13.7376C0.804688 17.9391 6.9359 21.3452 14.4991 21.3452Z" fill="#A0041E"/>
<path d="M14.4983 20.1393C9.66493 20.1393 1.60938 17.7227 1.60938 13.6949C1.60938 8.86155 6.5434 3.22266 14.4983 3.22266C22.4531 3.22266 27.3872 9.6671 27.3872 13.6949C27.3872 17.7227 20.1372 20.1393 14.4983 20.1393Z" fill="#E6E9EA"/>
<path d="M12.4146 16.0252C12.4962 16.0937 12.5635 16.1777 12.6124 16.2723C12.6613 16.3669 12.691 16.4703 12.6997 16.5765C12.7084 16.6826 12.696 16.7895 12.6631 16.8908C12.6303 16.9921 12.5777 17.0859 12.5083 17.1668C12.439 17.2476 12.3543 17.3139 12.2591 17.3618C12.164 17.4098 12.0603 17.4383 11.954 17.4459C11.8478 17.4534 11.7411 17.4398 11.6401 17.4059C11.5391 17.3719 11.4459 17.3183 11.3658 17.2481L10.1422 16.1992C10.0606 16.1308 9.99335 16.0468 9.94441 15.9522C9.89548 15.8575 9.8658 15.7542 9.85708 15.648C9.84837 15.5418 9.8608 15.435 9.89366 15.3337C9.92651 15.2323 9.97914 15.1385 10.0485 15.0577C10.1178 14.9768 10.2025 14.9105 10.2977 14.8626C10.3928 14.8147 10.4965 14.7861 10.6028 14.7786C10.709 14.771 10.8157 14.7846 10.9167 14.8186C11.0177 14.8525 11.1109 14.9062 11.191 14.9764L12.4146 16.0252ZM5.86789 14.8113C5.74636 14.9807 5.56391 15.0965 5.35883 15.1343C5.15375 15.1721 4.942 15.129 4.76803 15.0141C4.59405 14.8991 4.47138 14.7212 4.42578 14.5177C4.38017 14.3142 4.41516 14.101 4.52342 13.9227L5.41194 12.5783C5.47028 12.49 5.54544 12.4141 5.63313 12.3548C5.72081 12.2956 5.8193 12.2542 5.92298 12.233C6.02666 12.2119 6.13349 12.2113 6.23737 12.2314C6.34126 12.2516 6.44016 12.2919 6.52844 12.3503C6.61672 12.4086 6.69265 12.4838 6.75188 12.5715C6.81111 12.6591 6.8525 12.7576 6.87366 12.8613C6.89483 12.965 6.89537 13.0718 6.87526 13.1757C6.85514 13.2796 6.81476 13.3785 6.75642 13.4668L5.86789 14.8113ZM24.3957 14.8113C24.3373 14.8995 24.2622 14.9755 24.1745 15.0347C24.0868 15.0939 23.9883 15.1353 23.8846 15.1565C23.781 15.1776 23.6741 15.1782 23.5702 15.1581C23.4664 15.138 23.3674 15.0976 23.2792 15.0392C23.1909 14.9809 23.115 14.9057 23.0557 14.818C22.9965 14.7304 22.9551 14.6319 22.9339 14.5282C22.9128 14.4245 22.9122 14.3177 22.9324 14.2138C22.9525 14.1099 22.9929 14.011 23.0512 13.9227L23.9397 12.5783C24.0575 12.4 24.2414 12.2758 24.4508 12.233C24.6601 12.1903 24.8779 12.2325 25.0562 12.3503C25.2345 12.4681 25.3587 12.6519 25.4014 12.8613C25.4442 13.0707 25.402 13.2885 25.2842 13.4668L24.3957 14.8113ZM19.4794 11.9064C19.5128 12.112 19.4654 12.3225 19.3471 12.494C19.2288 12.6654 19.0488 12.7844 18.8447 12.826C18.6406 12.8677 18.4284 12.8287 18.2524 12.7174C18.0763 12.606 17.9502 12.4309 17.9005 12.2286L17.5791 10.6498C17.5579 10.5461 17.5575 10.4394 17.5776 10.3356C17.5978 10.2318 17.6382 10.1329 17.6965 10.0447C17.7549 9.95655 17.83 9.88072 17.9177 9.82157C18.0053 9.76242 18.1038 9.72111 18.2074 9.7C18.4167 9.65738 18.6343 9.69964 18.8124 9.81747C18.9006 9.87582 18.9764 9.95096 19.0356 10.0386C19.0947 10.1263 19.136 10.2247 19.1571 10.3283L19.4794 11.9064ZM13.4055 8.71803C13.3394 8.69116 13.2793 8.65154 13.2285 8.60144C13.1778 8.55133 13.1374 8.49172 13.1097 8.426C13.082 8.36029 13.0675 8.28976 13.067 8.21844C13.0665 8.14712 13.0801 8.07642 13.107 8.01035C13.1339 7.94429 13.1735 7.88416 13.2236 7.83341C13.2737 7.78266 13.3333 7.74227 13.399 7.71456C13.4648 7.68684 13.5353 7.67234 13.6066 7.67189C13.6779 7.67143 13.7486 7.68502 13.8147 7.71189L14.8208 8.12192C14.9541 8.17629 15.0604 8.2814 15.1162 8.41412C15.172 8.54683 15.1729 8.69629 15.1185 8.8296C15.0641 8.96292 14.959 9.06917 14.8263 9.12499C14.6936 9.18081 14.5441 9.18163 14.4108 9.12725L13.4055 8.71803ZM5.91703 9.98034C5.85821 10.0207 5.79202 10.0491 5.72223 10.0639C5.65245 10.0786 5.58044 10.0795 5.51031 10.0665C5.44018 10.0534 5.37331 10.0267 5.31352 9.98777C5.25372 9.94888 5.20218 9.89859 5.16182 9.83977C5.12146 9.78095 5.09308 9.71476 5.07831 9.64498C5.06353 9.57519 5.06264 9.50318 5.07569 9.43305C5.08875 9.36292 5.11549 9.29605 5.15438 9.23626C5.19328 9.17647 5.24357 9.12492 5.30239 9.08456L6.19897 8.47073C6.31793 8.39628 6.46107 8.37071 6.59845 8.39937C6.73583 8.42802 6.85681 8.50869 6.93609 8.62448C7.01537 8.74028 7.04681 8.88225 7.02383 9.02069C7.00086 9.15913 6.92524 9.28333 6.8128 9.36731L5.91703 9.98034ZM16.8669 16.8638C16.658 16.8442 16.465 16.744 16.3288 16.5844C16.1926 16.4248 16.124 16.2184 16.1375 16.009C16.151 15.7996 16.2456 15.6037 16.4012 15.463C16.5568 15.3222 16.7612 15.2477 16.9709 15.2551L18.5796 15.3606C18.7883 15.3802 18.9811 15.4803 19.1172 15.6398C19.2532 15.7993 19.3218 16.0055 19.3083 16.2147C19.2947 16.4238 19.2002 16.6195 19.0447 16.7601C18.8893 16.9007 18.6851 16.9752 18.4756 16.9677L16.8669 16.8638ZM9.4228 11.7195C9.32479 11.6796 9.23561 11.6207 9.16034 11.5463C9.08507 11.4719 9.02519 11.3834 8.98413 11.2859C8.94306 11.1884 8.92161 11.0837 8.92099 10.9779C8.92038 10.872 8.94062 10.7671 8.98056 10.6691C9.02049 10.5711 9.07934 10.4819 9.15374 10.4066C9.22814 10.3314 9.31664 10.2715 9.41418 10.2304C9.51173 10.1893 9.6164 10.1679 9.72224 10.1673C9.82807 10.1667 9.93299 10.1869 10.031 10.2268L11.5237 10.835C11.6221 10.8747 11.7117 10.9333 11.7873 11.0077C11.863 11.082 11.9232 11.1706 11.9646 11.2683C12.0059 11.3659 12.0276 11.4708 12.0283 11.5769C12.029 11.683 12.0087 11.7881 11.9687 11.8864C11.9286 11.9846 11.8696 12.0739 11.7949 12.1493C11.7203 12.2246 11.6315 12.2845 11.5336 12.3254C11.4358 12.3663 11.3308 12.3876 11.2247 12.3878C11.1186 12.3881 11.0136 12.3674 10.9155 12.3269L9.4228 11.7195ZM22.2674 9.52359C22.1409 9.46469 22.0418 9.3594 21.9908 9.2295C21.9397 9.0996 21.9406 8.95505 21.9932 8.82576C22.0457 8.69648 22.146 8.59237 22.2733 8.53497C22.4005 8.47758 22.5449 8.47131 22.6766 8.51745L23.6836 8.92748C23.7496 8.95445 23.8096 8.99417 23.8603 9.04435C23.9109 9.09453 23.9512 9.1542 23.9788 9.21996C24.0064 9.28571 24.0208 9.35625 24.0212 9.42756C24.0215 9.49887 24.0078 9.56955 23.9808 9.63556C23.9538 9.70157 23.9141 9.76162 23.8639 9.81229C23.8137 9.86295 23.7541 9.90323 23.6883 9.93083C23.6226 9.95844 23.552 9.97282 23.4807 9.97316C23.4094 9.9735 23.3387 9.95979 23.2727 9.93281L22.2674 9.52359Z" fill="#CCD6DD"/>
</svg>
