<svg width="21" height="21" viewBox="0 0 21 21" fill="none" xmlns="http://www.w3.org/2000/svg">
<path d="M19.6746 8.5127H1.09624C0.490802 8.5127 0 9.29798 0 10.2667V10.4513C0 11.42 0.490802 12.2053 1.09624 12.2053H19.6746C20.28 12.2053 20.7708 11.42 20.7708 10.4513V10.2667C20.7708 9.29798 20.28 8.5127 19.6746 8.5127Z" fill="#C8C8C8"/>
<path d="M19.6746 16.3594H1.09624C0.490802 16.3594 0 17.1447 0 18.1134V18.298C0 19.2667 0.490802 20.052 1.09624 20.052H19.6746C20.28 20.052 20.7708 19.2667 20.7708 18.298V18.1134C20.7708 17.1447 20.28 16.3594 19.6746 16.3594Z" fill="#C8C8C8"/>
<path d="M19.6746 0.666016H1.09624C0.490802 0.666016 0 1.4513 0 2.42V2.60463C0 3.57332 0.490802 4.3586 1.09624 4.3586H19.6746C20.28 4.3586 20.7708 3.57332 20.7708 2.60463V2.42C20.7708 1.4513 20.28 0.666016 19.6746 0.666016Z" fill="#C8C8C8"/>
</svg>
