<svg width="28" height="28" viewBox="0 0 28 28" fill="none" xmlns="http://www.w3.org/2000/svg">
<path d="M15.1128 2.31773C12.2975 1.82117 10.5912 3.48804 10.3506 6.19398C10.2981 6.78023 9.82999 7.29648 9.47343 7.75804C8.27687 9.31335 7.04968 10.9409 5.79405 12.459C4.70468 13.7737 3.77062 15.1999 2.81249 16.6087C0.81968 19.553 0.03218 21.8324 1.14343 25.3302C1.38624 26.1002 1.94187 27.358 2.94155 27.3099C3.94124 27.264 4.09874 25.993 4.2803 25.269C4.37218 24.8971 4.48155 24.4552 4.7878 24.1884C4.95187 24.0462 5.08968 24.0921 5.27343 24.0418C5.45937 23.9915 5.47468 23.9543 5.62124 23.8471C6.0303 23.5474 6.14187 23.6918 6.45687 24.0002C6.90968 24.4443 7.65999 24.4093 8.23312 24.2955C8.5678 24.2299 8.67718 24.1577 8.87624 23.9084C9.09062 23.6371 9.41874 23.4599 9.60905 23.1712C9.80593 22.8737 9.81249 22.7687 10.1756 22.6484C10.95 22.3924 11.1622 22.9305 11.7156 23.309C12.2581 23.6809 12.9953 23.8252 13.6362 23.6765C13.9469 23.6043 14.0366 23.519 14.1897 23.2652C14.3712 22.9612 14.6075 22.7555 14.8262 22.4799C15.0669 22.1737 15.2594 21.9877 15.5897 21.7799C15.8894 21.5918 16.1584 21.5087 16.4975 21.4015C17.1187 21.2046 17.7181 20.9312 18.335 20.7255C19.1378 20.4565 19.9406 20.1874 20.7434 19.9162C22.3228 19.378 23.8978 18.829 25.4597 18.2493C26.3522 17.919 27.3519 17.6565 27.5837 16.6152C27.6625 16.263 27.7216 15.9065 27.7587 15.5477C28.1678 11.6452 25.8556 8.18242 22.8719 5.85492C21.3625 4.67804 19.6606 3.73304 17.8625 3.06804C17.1734 2.81648 16.1716 2.50585 15.1128 2.31773Z" fill="#FFE082"/>
<path d="M11.4622 17.8394C11.3703 17.8394 11.2828 17.835 11.1932 17.8285C10.3313 17.7454 9.66191 16.9797 9.63347 16.0435C9.61816 15.4944 9.86972 14.9847 10.3247 14.6479C10.4385 14.5625 10.6266 14.4379 10.8366 14.3591C10.795 14.2607 10.7578 14.1491 10.7272 14.0266C10.6441 13.6897 10.6703 13.3616 10.806 13.075C11.0313 12.596 11.5169 12.27 12.1732 12.1475C12.311 12.1235 12.4619 12.1104 12.6172 12.1104C12.906 12.1104 13.6257 12.1629 14.061 12.6463C14.2097 12.8104 14.306 13.005 14.3475 13.2216C15.0628 13.0532 15.8591 13.3791 16.2353 14.0069C16.6882 14.7638 16.6203 15.9057 15.7957 16.4022C15.4282 16.6232 15.03 16.7238 14.5378 16.7238C14.4569 16.7238 14.4022 16.7282 14.3432 16.7325C14.12 16.7413 13.9013 16.7413 13.7285 16.7019C13.6656 16.6871 13.6047 16.665 13.5469 16.6363C13.5425 16.645 13.5382 16.6516 13.5338 16.6604C13.3347 16.9775 13.0766 17.3297 12.5625 17.5288C12.5188 17.5463 12.4772 17.5704 12.4378 17.5944C12.3394 17.6491 12.2388 17.7038 12.1294 17.7388C11.9303 17.8066 11.7072 17.8394 11.4622 17.8394ZM11.2041 15.2954C11.1953 15.3019 11.0641 15.3654 10.9307 15.4638C10.7425 15.6016 10.6441 15.7985 10.6485 16.0172C10.6572 16.3847 10.9022 16.7807 11.2894 16.82C11.4732 16.8354 11.6678 16.8266 11.8057 16.7807C11.8538 16.7654 11.8953 16.7369 11.9391 16.7129C12.0222 16.6647 12.1053 16.621 12.195 16.586C12.3832 16.5138 12.4969 16.4044 12.6763 16.1179C12.6828 16.1047 12.6894 16.0872 12.6982 16.0675C12.7463 15.9582 12.8272 15.7722 13.0197 15.6454C13.151 15.5579 13.291 15.5119 13.4397 15.5119C13.6694 15.5119 13.8378 15.6235 13.9363 15.6869C13.9538 15.6979 13.9713 15.7132 13.991 15.7197C13.9975 15.7197 14.0435 15.7241 14.1003 15.7241C14.1616 15.7241 14.2272 15.7197 14.2907 15.7154C14.3672 15.711 14.4438 15.7066 14.5138 15.7066C14.8441 15.7066 15.065 15.6541 15.2728 15.5294C15.555 15.3588 15.555 14.8425 15.3669 14.5275C15.1919 14.2344 14.7807 14.1075 14.4613 14.2454L14.4438 14.2629C14.3191 14.3504 14.1025 14.4925 13.8466 14.4597C13.7664 14.4489 13.6893 14.422 13.6197 14.3807C13.5502 14.3393 13.4897 14.2844 13.4419 14.2191C13.2735 13.9894 13.3194 13.7269 13.3457 13.5694L13.3522 13.5147C13.3653 13.3879 13.326 13.3419 13.3063 13.3222C13.1991 13.2041 12.9213 13.1232 12.615 13.1232C12.521 13.1232 12.4313 13.1319 12.3547 13.145C12.0375 13.2019 11.8013 13.3375 11.7225 13.506C11.6788 13.5979 11.6919 13.7072 11.7116 13.7838C11.751 13.9479 11.7882 13.9982 11.7903 14.0004C11.8778 14.0529 12.0419 14.1622 12.1316 14.3897C12.2585 14.7069 12.1819 14.9279 12.0944 15.0569C12.0244 15.1597 11.8603 15.3304 11.5344 15.3304C11.4535 15.3304 11.3572 15.3194 11.2697 15.3041C11.2457 15.3019 11.2238 15.2975 11.2041 15.2954Z" fill="#757F3F"/>
<path d="M3.66576 15.1943C3.72045 14.6693 4.05295 14.1311 4.79014 13.6564C5.3217 13.3152 5.87076 13.1927 6.49858 13.2802C7.9292 13.4771 9.25701 14.2449 8.84576 15.9336C8.67514 16.6358 7.77608 17.1871 7.14389 17.4124C6.37389 17.688 5.51639 17.6552 4.7792 17.2986C4.4467 17.1389 4.0092 16.8371 3.81451 16.5177C3.61108 16.183 3.6242 15.5749 3.66576 15.1943Z" fill="#ED6C30"/>
<path d="M7.60931 14.6267L7.29212 15.132L8.05337 15.1954L8.30712 14.6267L7.9265 14.2461L7.60931 14.6267ZM5.36275 15.2589L4.76556 15.2939L5.15494 15.9501L5.76744 15.8254L5.85712 15.2961L5.36275 15.2589ZM6.51119 16.3614L5.90306 16.3592L6.34494 17.0876L6.964 16.9957L7.01868 16.4336L6.51119 16.3614ZM8.2065 15.4448L8.11243 15.7773L8.50837 15.7926L8.52368 15.4754L8.2065 15.4448ZM6.754 15.4317C6.754 15.4317 6.46962 15.7007 6.51556 15.7161C6.56369 15.7314 6.95962 15.7795 6.95962 15.7795L7.11712 15.5257L6.754 15.4317ZM4.76119 16.1579C4.76119 16.1579 4.39806 16.5386 4.49212 16.5386C4.58619 16.5386 4.85744 16.4904 4.85744 16.4904L5.01494 16.2367L4.76119 16.1579ZM6.49369 13.7451C6.49369 13.7451 5.83306 14.4342 6.00587 14.4342C6.17869 14.4342 6.6665 14.3489 6.6665 14.3489L6.95306 13.8895L6.49369 13.7451Z" fill="white"/>
<path d="M8.97949 9.03566C8.94667 8.50629 9.1873 7.92222 9.83699 7.3316C10.3051 6.90722 10.8279 6.69722 11.4601 6.67972C12.9017 6.64035 14.3389 7.17847 14.212 8.91316C14.1617 9.63504 13.3632 10.3263 12.777 10.6522C12.0639 11.0482 11.2129 11.1597 10.4254 10.93C10.071 10.825 9.5898 10.6019 9.34699 10.3175C9.09105 10.02 9.00574 9.41629 8.97949 9.03566Z" fill="#ED6C30"/>
<path d="M11.7163 7.95269L11.3991 8.46019L12.1603 8.52363L12.4141 7.95269L12.0334 7.57207L11.7163 7.95269ZM10.6728 8.9152L10.0756 8.95238L10.465 9.60645L11.0753 9.48394L11.1672 8.95238L10.6728 8.9152ZM12.6919 9.31332L12.0816 9.31113L12.5256 10.0418L13.1425 9.94988L13.1994 9.3877L12.6919 9.31332ZM10.5569 10.3896L10.8741 10.1839L11.0797 10.3743L10.9681 10.5471L10.7297 10.5952L10.5569 10.3896ZM13.0594 8.64613L12.9653 8.97863L13.3613 8.99395L13.3766 8.67894L13.0594 8.64613ZM13.265 7.47363C13.265 7.47363 12.9806 7.7427 13.0266 7.75801C13.0747 7.77332 13.4706 7.82145 13.4706 7.82145L13.6281 7.5677L13.265 7.47363ZM10.8566 7.53707C10.8566 7.53707 10.4913 7.9177 10.5875 7.9177C10.6816 7.9177 10.9528 7.86957 10.9528 7.86957L11.1103 7.61582L10.8566 7.53707ZM9.38438 9.4227L9.24219 9.67645L9.46312 9.91488C9.46312 9.91488 9.60531 9.73988 9.60531 9.67645C9.60531 9.61301 9.54187 9.4227 9.54187 9.4227H9.38438Z" fill="white"/>
<path d="M16.5955 12.8241C16.6501 12.2991 16.9826 11.761 17.7198 11.2863C18.2514 10.9451 18.8005 10.8226 19.4261 10.9101C20.8567 11.107 22.1845 11.8748 21.7755 13.5635C21.6048 14.2657 20.7058 14.817 20.0736 15.0401C19.3036 15.3157 18.4461 15.2829 17.7089 14.9263C17.3764 14.7666 16.9389 14.4648 16.7442 14.1454C16.5408 13.8129 16.5539 13.2048 16.5955 12.8241Z" fill="#ED6C30"/>
<path d="M18.515 11.9624L18.6069 12.553L19.2237 12.1024L19.0444 11.5052L18.5062 11.4658L18.515 11.9624ZM18.3553 13.3733L17.9266 13.7889L18.6506 14.0318L19.0334 13.5374L18.7534 13.078L18.3553 13.3733ZM20.1425 12.3539L19.6809 12.7521L20.4925 13.0146L20.8994 12.5399L20.5756 12.0783L20.1425 12.3539ZM20.0878 13.953L20.405 13.7452L20.6106 13.9377L20.5013 14.1105L20.2628 14.1586L20.0878 13.953ZM18.4866 14.3533C18.4866 14.3533 18.2022 14.6224 18.2481 14.6377C18.2962 14.653 18.6922 14.7011 18.6922 14.7011L18.8497 14.4474L18.4866 14.3533ZM17.4234 12.3627L17.2812 12.6164L17.5022 12.8549C17.5022 12.8549 17.6444 12.6799 17.6444 12.6164C17.6444 12.553 17.5809 12.3627 17.5809 12.3627H17.4234Z" fill="white"/>
<path d="M11.8379 5.54816C12.4723 5.30316 13.0191 5.60503 13.647 5.83253C14.0954 5.99659 14.5285 6.20003 14.9595 6.40128C16.2873 7.02472 17.6151 7.64597 18.9407 8.26941C19.5882 8.57347 20.2379 8.87972 20.811 9.30847C21.487 9.81378 22.0732 10.3935 22.607 11.0475C23.0357 11.5703 23.4645 12.5 23.3507 13.1694C23.2873 13.3925 23.1123 13.2613 23.0751 13.1825C22.5143 12.0616 21.6902 11.0933 20.6732 10.3607C19.4132 9.45722 17.9148 8.9541 16.4295 8.50347C16.0598 8.38972 15.6813 8.27816 15.3554 8.07035C14.9901 7.83847 14.7079 7.5016 14.3798 7.21941C13.6054 6.55003 12.5685 6.19128 11.5448 6.23941C11.3282 6.2591 11.4463 5.7166 11.8379 5.54816Z" fill="#DDA450"/>
<path d="M27.5275 13.0156C27.1469 12.3856 26.4928 12.0618 25.7753 12.2259C25.1016 12.3812 24.29 13.1315 23.9728 13.7484C23.6556 14.3631 23.4784 15.4349 22.8856 15.7915C22.2009 16.2071 21.3062 16.0803 20.58 16.4171C20.1031 16.6403 19.5519 16.9531 19.0969 17.2199C18.4319 17.6115 17.815 17.769 17.0537 17.9003C16.2925 18.0315 15.3234 18.2809 14.8575 18.8978C14.6891 19.1231 14.5753 19.3856 14.4003 19.6065C13.7178 20.4771 12.9084 19.9499 11.8169 19.7662C11.4691 19.7071 11.0272 19.6699 10.6881 19.7662C10.3294 19.8668 9.63156 20.3874 9.30125 20.5624C8.47437 21.0043 7.53375 20.5974 6.67406 20.9715C5.53875 21.4659 4.95031 22.7368 3.92437 23.4324C3.34031 23.8284 2.60094 24.0209 1.91406 23.8612C1.39562 23.7409 0.920937 23.4018 0.65625 22.9446C0.710937 23.684 0.86625 24.4693 1.13969 25.329C1.3825 26.099 1.93812 27.3568 2.93781 27.3087C3.9375 27.2628 4.095 25.9918 4.27656 25.2678C4.36844 24.8959 4.47781 24.454 4.78406 24.1871C4.94812 24.0449 5.08594 24.0909 5.26969 24.0406C5.45562 23.9903 5.47094 23.9531 5.6175 23.8459C6.02656 23.5462 6.13812 23.6906 6.45312 23.999C6.90594 24.4431 7.65625 24.4081 8.22937 24.2943C8.56406 24.2287 8.67344 24.1565 8.8725 23.9071C9.08687 23.6359 9.415 23.4587 9.60531 23.1699C9.80219 22.8724 9.80875 22.7674 10.1719 22.6471C10.9462 22.3912 11.1584 22.9293 11.7119 23.3078C12.2544 23.6796 12.9916 23.824 13.6325 23.6753C13.9431 23.6031 14.0328 23.5178 14.1859 23.264C14.3675 22.9599 14.6037 22.7543 14.8225 22.4787C15.0631 22.1724 15.2556 21.9865 15.5859 21.7787C15.8856 21.5906 16.1547 21.5074 16.4937 21.4003C17.115 21.2034 17.7144 20.9299 18.3312 20.7243C19.1341 20.4553 19.9369 20.1862 20.7397 19.9149C22.3191 19.3768 23.8941 18.8278 25.4559 18.2481C26.3484 17.9178 27.3481 17.6553 27.58 16.614C27.6587 16.2618 27.7178 15.9053 27.755 15.5465C27.7812 15.2949 27.7966 15.0434 27.8009 14.7962C27.8031 14.2603 27.8184 13.4946 27.5275 13.0156Z" fill="#DDA450"/>
</svg>
