<svg width="29" height="15" viewBox="0 0 29 15" fill="none" xmlns="http://www.w3.org/2000/svg">
<path d="M14.9684 5C14.4392 3.5381 13.4566 2.27203 12.1563 1.37645C10.8561 0.480879 9.30219 -5.72418e-05 7.70906 5.11008e-09C3.45623 5.11008e-09 0 3.3625 0 7.5C0 11.6375 3.45623 15 7.70906 15C9.30219 15.0001 10.8561 14.5191 12.1563 13.6235C13.4566 12.728 14.4392 11.4619 14.9684 10H20.5575V15H25.6969V10H28.2666V5H14.9684ZM7.70906 10C6.29573 10 5.13937 8.875 5.13937 7.5C5.13937 6.125 6.29573 5 7.70906 5C9.12239 5 10.2787 6.125 10.2787 7.5C10.2787 8.875 9.12239 10 7.70906 10Z" fill="#FFC700"/>
</svg>
