<svg width="100" height="100" viewBox="0 0 100 100" fill="none" xmlns="http://www.w3.org/2000/svg">
<path d="M99.5 50C99.5 77.3381 77.3381 99.5 50 99.5C22.6619 99.5 0.5 77.3381 0.5 50C0.5 22.6619 22.6619 0.5 50 0.5C77.3381 0.5 99.5 22.6619 99.5 50Z" fill="white" stroke="#B2B2B2"/>
<path fill-rule="evenodd" clip-rule="evenodd" d="M74.4688 50.5682C74.4688 48.7955 74.3097 47.091 74.0143 45.4546H50.4688V55.1251H63.9233C63.3438 58.2501 61.5824 60.8978 58.9347 62.6705V68.9433H67.0142C71.7415 64.591 74.4688 58.1819 74.4688 50.5682Z" fill="#4285F4"/>
<path fill-rule="evenodd" clip-rule="evenodd" d="M50.466 75C57.216 75 62.8751 72.7614 67.0114 68.9432L58.9319 62.6705C56.6932 64.1705 53.8296 65.0568 50.466 65.0568C43.9546 65.0568 38.4432 60.6591 36.4773 54.75H28.125V61.2273C32.2386 69.3978 40.6932 75 50.466 75Z" fill="#34A853"/>
<path fill-rule="evenodd" clip-rule="evenodd" d="M36.4801 54.7498C35.9801 53.2498 35.696 51.6475 35.696 49.9998C35.696 48.352 35.9801 46.7498 36.4801 45.2497V38.7725H28.1278C26.4347 42.1475 25.4688 45.9657 25.4688 49.9998C25.4688 54.0339 26.4347 57.8521 28.1278 61.2271L36.4801 54.7498Z" fill="#FBBC05"/>
<path fill-rule="evenodd" clip-rule="evenodd" d="M50.466 34.9432C54.1364 34.9432 57.4319 36.2046 60.0228 38.6818L67.1933 31.5114C62.8637 27.4773 57.2046 25 50.466 25C40.6932 25 32.2386 30.6023 28.125 38.7728L36.4773 45.25C38.4432 39.3409 43.9546 34.9432 50.466 34.9432Z" fill="#EA4335"/>
</svg>
