<svg width="22" height="20" viewBox="0 0 22 20" fill="none" xmlns="http://www.w3.org/2000/svg">
<path d="M20.8389 8.09473H1.16111C0.519847 8.09473 0 8.90487 0 9.90423V10.0947C0 11.0941 0.519847 11.9042 1.16111 11.9042H20.8389C21.4802 11.9042 22 11.0941 22 10.0947V9.90423C22 8.90487 21.4802 8.09473 20.8389 8.09473Z" fill="white"/>
<path d="M20.8389 16.1904H1.16111C0.519847 16.1904 0 17.0006 0 17.9999V18.1904C0 19.1898 0.519847 19.9999 1.16111 19.9999H20.8389C21.4802 19.9999 22 19.1898 22 18.1904V17.9999C22 17.0006 21.4802 16.1904 20.8389 16.1904Z" fill="white"/>
<path d="M20.8389 0H1.16111C0.519847 0 0 0.810142 0 1.8095V1.99998C0 2.99934 0.519847 3.80948 1.16111 3.80948H20.8389C21.4802 3.80948 22 2.99934 22 1.99998V1.8095C22 0.810142 21.4802 0 20.8389 0Z" fill="white"/>
</svg>
