<svg width="25" height="25" viewBox="0 0 25 25" fill="none" xmlns="http://www.w3.org/2000/svg">
<path d="M12.5 0C10.0277 0 7.61099 0.733112 5.55538 2.10663C3.49976 3.48015 1.89761 5.43238 0.951511 7.71645C0.00541601 10.0005 -0.242126 12.5139 0.24019 14.9386C0.722505 17.3634 1.91301 19.5907 3.66117 21.3388C5.40933 23.087 7.63661 24.2775 10.0614 24.7598C12.4861 25.2421 14.9995 24.9946 17.2835 24.0485C19.5676 23.1024 21.5199 21.5002 22.8934 19.4446C24.2669 17.389 25 14.9723 25 12.5C25 9.18479 23.683 6.00537 21.3388 3.66116C18.9946 1.31696 15.8152 0 12.5 0ZM12.5469 13.8125C12.4149 13.8135 12.284 13.7884 12.1618 13.7386C12.0396 13.6888 11.9284 13.6153 11.8347 13.5224C11.741 13.4294 11.6667 13.3188 11.6159 13.197C11.5652 13.0752 11.5391 12.9445 11.5391 12.8125V5.19531C11.5391 4.92802 11.6452 4.67168 11.8342 4.48268C12.0232 4.29368 12.2796 4.1875 12.5469 4.1875C12.8142 4.1875 13.0705 4.29368 13.2595 4.48268C13.4485 4.67168 13.5547 4.92802 13.5547 5.19531V12.8125C13.5547 12.9445 13.5286 13.0752 13.4778 13.197C13.4271 13.3188 13.3527 13.4294 13.259 13.5224C13.1654 13.6153 13.0542 13.6888 12.932 13.7386C12.8097 13.7884 12.6789 13.8135 12.5469 13.8125ZM12.5 20.1484C10.8545 20.1679 9.24591 19.661 7.90889 18.7017C6.57186 17.7423 5.57642 16.3808 5.06783 14.8158C4.55924 13.2508 4.56413 11.5642 5.08178 10.0021C5.59943 8.44009 6.60275 7.08437 7.94532 6.13281C8.17916 5.96613 8.46917 5.89811 8.75274 5.94342C9.03631 5.98873 9.29068 6.14375 9.46094 6.375C9.54406 6.4892 9.60375 6.61872 9.63657 6.7561C9.66939 6.89348 9.6747 7.03599 9.65219 7.17543C9.62967 7.31487 9.57979 7.44847 9.5054 7.56854C9.43101 7.6886 9.33359 7.79276 9.21875 7.875C8.44652 8.44213 7.83242 9.19761 7.43501 10.0694C7.03759 10.9412 6.87011 11.9003 6.94852 12.8552C7.02693 13.8101 7.34863 14.729 7.88294 15.5243C8.41725 16.3196 9.14636 16.9648 10.0008 17.3983C10.8552 17.8319 11.8064 18.0394 12.7637 18.001C13.7211 17.9626 14.6527 17.6797 15.4696 17.1791C16.2866 16.6786 16.9617 15.9771 17.4307 15.1416C17.8996 14.3061 18.1467 13.3644 18.1484 12.4062C18.1458 11.5235 17.9316 10.6542 17.5238 9.87121C17.1161 9.08825 16.5265 8.41444 15.8047 7.90625C15.5824 7.73084 15.4387 7.4745 15.405 7.19336C15.3714 6.91222 15.4505 6.62919 15.625 6.40625C15.7976 6.17745 16.0531 6.02553 16.3365 5.98316C16.6199 5.94079 16.9087 6.01136 17.1406 6.17969C18.4692 7.14215 19.4565 8.50286 19.9594 10.0644C20.4623 11.626 20.4545 13.3071 19.9373 14.864C19.4201 16.4209 18.4203 17.7725 17.083 18.7227C15.7457 19.6729 14.1404 20.1723 12.5 20.1484Z" fill="#896ED9"/>
</svg>
