<svg width="30" height="26" viewBox="0 0 30 26" fill="none" xmlns="http://www.w3.org/2000/svg">
<path d="M12.6536 16.769H22.0072C22.415 16.769 22.7565 16.6349 23.0318 16.3666C23.3081 16.0992 23.4463 15.7675 23.4463 15.3716C23.4463 14.9757 23.3081 14.6436 23.0318 14.3753C22.7565 14.1079 22.415 13.9742 22.0072 13.9742H15.5316L12.6536 16.769ZM6.89748 16.769H9.12797C9.31984 16.769 9.49972 16.7341 9.66761 16.6642C9.83549 16.5944 9.99139 16.4895 10.1353 16.3498L18.1938 8.59413C18.3377 8.45439 18.4097 8.27971 18.4097 8.0701C18.4097 7.86049 18.3377 7.68581 18.1938 7.54607L15.6755 5.10058C15.5316 4.96084 15.3518 4.89097 15.1359 4.89097C14.92 4.89097 14.7402 4.96084 14.5963 5.10058L6.60968 12.9261C6.46578 13.0659 6.35785 13.2173 6.2859 13.3803C6.21395 13.5433 6.17797 13.718 6.17797 13.9043V16.0703C6.17797 16.2566 6.24992 16.4197 6.39383 16.5594C6.53773 16.6992 6.70561 16.769 6.89748 16.769ZM0.421875 24.5597V2.79484C0.421875 2.02626 0.703924 1.36807 1.26802 0.820285C1.83116 0.273428 2.50846 0 3.29992 0H26.3243C27.1158 0 27.7936 0.273428 28.3577 0.820285C28.9208 1.36807 29.2024 2.02626 29.2024 2.79484V19.5639C29.2024 20.3325 28.9208 20.9906 28.3577 21.5384C27.7936 22.0853 27.1158 22.3587 26.3243 22.3587H6.17797L2.86822 25.5728C2.41253 26.0153 1.89064 26.114 1.30256 25.869C0.715436 25.6249 0.421875 25.1885 0.421875 24.5597Z" fill="#3FB79A"/>
</svg>
