<svg width="29" height="26" viewBox="0 0 29 26" fill="none" xmlns="http://www.w3.org/2000/svg">
<path d="M12.2317 16.769H21.5854C21.9931 16.769 22.3346 16.6349 22.61 16.3666C22.8862 16.0992 23.0244 15.7675 23.0244 15.3716C23.0244 14.9757 22.8862 14.6436 22.61 14.3753C22.3346 14.1079 21.9931 13.9742 21.5854 13.9742H15.1098L12.2317 16.769ZM6.47561 16.769H8.7061C8.89797 16.769 9.07785 16.7341 9.24573 16.6642C9.41362 16.5944 9.56951 16.4895 9.71341 16.3498L17.772 8.59413C17.9159 8.45439 17.9878 8.27971 17.9878 8.0701C17.9878 7.86049 17.9159 7.68581 17.772 7.54607L15.2537 5.10058C15.1098 4.96084 14.9299 4.89097 14.714 4.89097C14.4982 4.89097 14.3183 4.96084 14.1744 5.10058L6.1878 12.9261C6.0439 13.0659 5.93598 13.2173 5.86402 13.3803C5.79207 13.5433 5.7561 13.718 5.7561 13.9043V16.0703C5.7561 16.2566 5.82805 16.4197 5.97195 16.5594C6.11585 16.6992 6.28374 16.769 6.47561 16.769ZM0 24.5597V2.79484C0 2.02626 0.282049 1.36807 0.846146 0.820285C1.40928 0.273428 2.08659 0 2.87805 0H25.9024C26.6939 0 27.3717 0.273428 27.9358 0.820285C28.4989 1.36807 28.7805 2.02626 28.7805 2.79484V19.5639C28.7805 20.3325 28.4989 20.9906 27.9358 21.5384C27.3717 22.0853 26.6939 22.3587 25.9024 22.3587H5.7561L2.44634 25.5728C1.99065 26.0153 1.46876 26.114 0.880683 25.869C0.293561 25.6249 0 25.1885 0 24.5597Z" fill="#3FB79A"/>
</svg>
