<svg width="32" height="33" viewBox="0 0 32 33" fill="none" xmlns="http://www.w3.org/2000/svg">
<g clip-path="url(#clip0_225_2677)">
<path d="M16 18.8252C20.9688 18.8252 25 14.7939 25 9.8252C25 4.85645 20.9688 0.825195 16 0.825195C11.0312 0.825195 7 4.85645 7 9.8252C7 14.7939 11.0312 18.8252 16 18.8252ZM24 20.8252H20.5562C19.1687 21.4627 17.625 21.8252 16 21.8252C14.375 21.8252 12.8375 21.4627 11.4438 20.8252H8C3.58125 20.8252 0 24.4064 0 28.8252V29.8252C0 31.4814 1.34375 32.8252 3 32.8252H29C30.6562 32.8252 32 31.4814 32 29.8252V28.8252C32 24.4064 28.4188 20.8252 24 20.8252Z" fill="black"/>
</g>
<defs>
<clipPath id="clip0_225_2677">
<rect width="32" height="32" fill="white" transform="translate(0 0.825195)"/>
</clipPath>
</defs>
</svg>
