<svg width="20" height="21" viewBox="0 0 20 21" fill="none" xmlns="http://www.w3.org/2000/svg">
<path d="M19.728 17.6332L15.8332 13.8237C15.6574 13.6517 15.4191 13.5562 15.1691 13.5562H14.5323C15.6105 12.2074 16.2512 10.5109 16.2512 8.66537C16.2512 4.27509 12.6142 0.717773 8.12559 0.717773C3.63698 0.717773 0 4.27509 0 8.66537C0 13.0556 3.63698 16.613 8.12559 16.613C10.0125 16.613 11.747 15.9863 13.126 14.9317V15.5546C13.126 15.7991 13.2236 16.0322 13.3994 16.2041L17.2942 20.0136C17.6614 20.3728 18.2552 20.3728 18.6185 20.0136L19.7241 18.9323C20.0913 18.5731 20.0913 17.9923 19.728 17.6332ZM8.12559 13.5562C5.36367 13.5562 3.12523 11.3706 3.12523 8.66537C3.12523 5.96395 5.35977 3.77454 8.12559 3.77454C10.8875 3.77454 13.126 5.96013 13.126 8.66537C13.126 11.3668 10.8914 13.5562 8.12559 13.5562Z" fill="#6D6D6D"/>
</svg>
