<svg width="65" height="78" viewBox="0 0 65 78" fill="none" xmlns="http://www.w3.org/2000/svg">
<g filter="url(#filter0_d_1885_2204)">
<rect x="3.5" y="3" width="58" height="72" rx="8" fill="white"/>
</g>
<path d="M18.14 62.192H31.548V63.872H18.14V62.192ZM23.948 63.088H26.092V66.208H23.948V63.088ZM19.692 67.472H30.076V69.168H19.692V67.472ZM19.692 65.088H21.804V68.192H19.692V65.088ZM19.852 55.072H21.948V56.592H27.724V55.072H29.836V61.168H19.852V55.072ZM21.948 58.192V59.504H27.724V58.192H21.948ZM36.3307 55.28H38.0908V56.704C38.0908 59.504 36.7308 62.048 33.8348 62.976L32.7948 61.296C35.2908 60.496 36.3307 58.576 36.3307 56.704V55.28ZM36.7628 55.28H38.5068V56.704C38.5068 58.528 39.5308 60.32 41.9468 61.056L40.9068 62.72C38.0748 61.824 36.7628 59.456 36.7628 56.704V55.28ZM35.0668 64.096H45.1788V69.424H43.0348V65.792H35.0668V64.096ZM43.0348 54.608H45.1788V63.44H43.0348V54.608Z" fill="#797878"/>
<g clip-path="url(#clip0_1885_2204)">
<path d="M49.5666 23.7554C49.5671 23.1735 49.4312 22.5996 49.1698 22.0797C48.9084 21.5598 48.5287 21.1085 48.0614 20.7618C48.4226 20.2509 48.6498 19.6575 48.7223 19.0361C48.7947 18.4146 48.71 17.7848 48.4759 17.2046C48.2301 16.5948 47.8276 16.0607 47.3091 15.6563C46.7907 15.252 46.1747 14.9916 45.5234 14.9017C45.6235 14.3299 45.5889 13.7427 45.4223 13.1866C45.2557 12.6305 44.9618 12.121 44.5638 11.6984C44.1659 11.2758 43.6749 10.9519 43.1298 10.7522C42.5847 10.5526 42.0006 10.4829 41.4239 10.5485C41.3038 9.95404 41.0407 9.3978 40.6573 8.92793C40.2738 8.45805 39.7817 8.08871 39.2234 7.85188C38.6138 7.5924 37.9461 7.49988 37.2889 7.5838C36.6317 7.66773 36.0087 7.92509 35.4839 8.32944C35.1606 7.74678 34.6873 7.2612 34.1132 6.92304C33.539 6.58489 32.8849 6.40645 32.2185 6.40625C31.6417 6.40592 31.0727 6.53964 30.5564 6.79687C30.0401 7.05409 29.5906 7.42778 29.2435 7.88844C28.746 7.58373 28.1842 7.39961 27.6028 7.35078C27.0215 7.30194 26.4368 7.38975 25.8955 7.60719C25.2822 7.85551 24.7457 8.26191 24.3406 8.785C23.9355 9.30809 23.6763 9.92919 23.5892 10.5851C22.2786 10.1317 20.7655 10.4225 19.7198 11.471C19.2868 11.9041 18.9668 12.437 18.788 13.0227C18.6092 13.6085 18.577 14.2292 18.6944 14.8303C18.1421 14.974 17.6301 15.2426 17.1979 15.6153C16.7657 15.988 16.4248 16.455 16.2014 16.9801C15.9648 17.5368 15.8669 18.1426 15.9161 18.7455C15.9653 19.3483 16.1601 19.9302 16.4837 20.4412C15.9053 20.75 15.4184 21.2056 15.0719 21.7623C14.7254 22.3189 14.5316 22.957 14.5099 23.6123C14.4881 24.2676 14.6393 24.9171 14.9482 25.4955C15.2571 26.0738 15.7127 26.5607 16.2694 26.9071C15.649 27.8915 15.4881 29.147 15.9584 30.3046C16.1813 30.858 16.5338 31.3497 16.9862 31.7386C17.4386 32.1275 17.9777 32.4021 18.5582 32.5394C18.446 33.1371 18.4814 33.7531 18.6613 34.334C18.8411 34.9149 19.1601 35.4431 19.5904 35.8728C20.0298 36.3116 20.5714 36.6342 21.1664 36.8115C21.7615 36.9889 22.3913 37.0154 22.9992 36.8887C23.1092 37.4978 23.3691 38.0698 23.7556 38.5533C24.142 39.0368 24.6428 39.4164 25.2126 39.6579C26.4012 40.1641 27.7022 40.0078 28.7091 39.3564C29.046 39.8864 29.5113 40.3228 30.0617 40.6251C30.6121 40.9275 31.23 41.086 31.858 41.0861C32.4663 41.0867 33.0655 40.9387 33.6034 40.6547C34.1414 40.3708 34.6018 39.9596 34.9444 39.4571C35.462 39.8349 36.0682 40.073 36.7045 40.1486C37.3408 40.2242 37.9859 40.1347 38.5776 39.8887C39.1693 39.6427 39.6877 39.2485 40.0828 38.744C40.478 38.2396 40.7366 37.6419 40.8338 37.0085C41.4563 37.1604 42.1074 37.1495 42.7245 36.9769C43.3416 36.8043 43.9039 36.4758 44.3573 36.023C44.779 35.6009 45.0935 35.0839 45.2746 34.5153C45.4556 33.9468 45.4979 33.3431 45.3979 32.7549C46.0208 32.6537 46.6079 32.3966 47.1045 32.0074C47.6012 31.6182 47.9913 31.1096 48.2385 30.5291C48.4881 29.9417 48.5828 29.3 48.5134 28.6656C48.4441 28.0311 48.2131 27.4251 47.8425 26.9054C48.3721 26.5673 48.8079 26.1013 49.1099 25.5504C49.4119 24.9995 49.5703 24.3814 49.5705 23.7532" fill="#9D9E9F"/>
<path d="M27.4847 15.4488C27.4847 12.7336 28.0692 10.1568 29.1098 7.82751C28.6233 7.55185 28.081 7.38934 27.5231 7.35204C26.9652 7.31474 26.4061 7.40362 25.8872 7.61207C25.274 7.86039 24.7375 8.26679 24.3324 8.78988C23.9273 9.31297 23.668 9.93407 23.581 10.5899C22.2704 10.1366 20.7572 10.4274 19.7116 11.4759C19.2786 11.909 18.9586 12.4418 18.7798 13.0276C18.601 13.6133 18.5688 14.234 18.6861 14.8351C18.1338 14.9789 17.6219 15.2475 17.1897 15.6202C16.7575 15.9929 16.4165 16.4598 16.1931 16.985C15.9566 17.5417 15.8587 18.1475 15.9078 18.7503C15.957 19.3532 16.1518 19.9351 16.4755 20.4461C15.8786 20.7651 15.3795 21.2403 15.0316 21.8208C14.6837 22.4014 14.4999 23.0655 14.5 23.7423C14.5 24.3769 14.6617 25.0009 14.9699 25.5556C15.278 26.1103 15.7224 26.5773 16.2612 26.9126C15.6408 27.8969 15.4799 29.1524 15.9501 30.3101C16.1731 30.8634 16.5255 31.3552 16.9779 31.744C17.4303 32.1329 17.9695 32.4076 18.55 32.5449C18.4378 33.1425 18.4731 33.7586 18.653 34.3395C18.8329 34.9204 19.1518 35.4486 19.5822 35.8783C20.0215 36.317 20.5631 36.6396 21.1582 36.817C21.7532 36.9943 22.3831 37.0208 22.9909 36.8941C23.1009 37.5032 23.3609 38.0753 23.7473 38.5587C24.1338 39.0422 24.6345 39.4218 25.2044 39.6633C26.3929 40.1696 27.694 40.0132 28.7009 39.3618C29.0378 39.8918 29.503 40.3282 30.0535 40.6306C30.6039 40.9329 31.2217 41.0915 31.8498 41.0915C32.458 41.0922 33.0573 40.9441 33.5952 40.6602C34.1332 40.3763 34.5935 39.9651 34.9362 39.4625C35.4538 39.8403 36.0599 40.0785 36.6962 40.1541C37.3326 40.2297 37.9776 40.1401 38.5693 39.8941C39.161 39.6481 39.6794 39.2539 40.0746 38.7495C40.4698 38.245 40.7284 37.6473 40.8256 37.0139C41.4481 37.1658 42.0992 37.1549 42.7163 36.9823C43.3334 36.8097 43.8957 36.4812 44.3491 36.0284C44.8672 35.5086 45.2201 34.8471 45.3633 34.1272C35.4177 33.6952 27.4859 25.499 27.4859 15.4466" fill="#9D9E9F"/>
<path d="M49.5584 22.3503C49.5589 21.7682 49.423 21.1941 49.1616 20.6741C48.9002 20.154 48.5206 19.7024 48.0531 19.3556C48.4143 18.8446 48.6415 18.2513 48.7139 17.6298C48.7864 17.0083 48.7017 16.3786 48.4677 15.7983C48.222 15.1885 47.8195 14.6545 47.301 14.2503C46.7825 13.8461 46.1664 13.5861 45.5151 13.4966C45.6183 12.9059 45.578 12.2991 45.3976 11.7273C45.2171 11.1555 44.9019 10.6355 44.4784 10.211C44.0807 9.81461 43.5989 9.51271 43.0688 9.32762C42.5386 9.14253 41.9736 9.07898 41.4156 9.14169C41.2956 8.54708 41.0325 7.99067 40.6491 7.52061C40.2657 7.05055 39.7735 6.681 39.2151 6.44394C38.6054 6.18528 37.9378 6.09319 37.2808 6.1771C36.6238 6.26101 36.0008 6.5179 35.4756 6.9215C35.1519 6.33932 34.6786 5.85421 34.1045 5.51638C33.5304 5.17855 32.8764 5.00027 32.2103 5C31.6335 4.99967 31.0645 5.13339 30.5482 5.39062C30.0319 5.64784 29.5824 6.02153 29.2353 6.48219C28.7382 6.17645 28.1762 5.99175 27.5947 5.943C27.0132 5.89425 26.4283 5.98279 25.8872 6.2015C25.2741 6.44978 24.7376 6.85609 24.3325 7.37907C23.9274 7.90206 23.6681 8.52304 23.581 9.17881C22.9603 8.96208 22.2935 8.91305 21.6478 9.0367C21.0021 9.16034 20.4005 9.45227 19.9038 9.88298C19.4071 10.3137 19.033 10.8679 18.8191 11.4896C18.6053 12.1112 18.5594 12.7783 18.6861 13.4234C18.1338 13.5671 17.6218 13.8357 17.1896 14.2084C16.7574 14.5811 16.4165 15.0481 16.1931 15.5733C15.9565 16.1298 15.8585 16.7354 15.9077 17.3381C15.9569 17.9408 16.1517 18.5225 16.4755 19.0333C15.8785 19.3528 15.3794 19.8284 15.0315 20.4093C14.6836 20.9902 14.4999 21.6546 14.5 22.3318C14.5001 22.966 14.6618 23.5899 14.97 24.1443C15.2781 24.6987 15.7225 25.1654 16.2612 25.5003C15.9424 26.0019 15.7479 26.5724 15.6938 27.1642C15.6397 27.7561 15.7276 28.3523 15.9501 28.9034C16.1736 29.4564 16.5262 29.9479 16.9785 30.3367C17.4309 30.7255 17.9697 31.0004 18.55 31.1382C18.4371 31.7422 18.4748 32.3646 18.6597 32.9506C18.8445 33.5365 19.1709 34.0679 19.6099 34.4977C20.0489 34.9275 20.587 35.2426 21.1767 35.415C21.7664 35.5875 22.3895 35.612 22.9909 35.4864C23.1006 36.0921 23.3582 36.6614 23.741 37.1436C24.1237 37.6257 24.6197 38.0058 25.1848 38.25C25.7499 38.4941 26.3666 38.5948 26.9801 38.5431C27.5935 38.4914 28.1846 38.2888 28.7009 37.9535C29.0327 38.4749 29.4887 38.9059 30.0281 39.2077C30.5675 39.5095 31.1733 39.6727 31.7913 39.6827C32.4093 39.6928 33.0201 39.5493 33.5689 39.2652C34.1178 38.981 34.5876 38.5651 34.9362 38.0547C35.4482 38.4291 36.0473 38.6664 36.6767 38.7444C37.3061 38.8224 37.945 38.7383 38.5328 38.5003C39.1328 38.2581 39.6596 37.8642 40.0616 37.3572C40.4635 36.8501 40.7268 36.2473 40.8256 35.6079C41.4484 35.7585 42.0994 35.7467 42.7163 35.5737C43.3333 35.4007 43.8955 35.0721 44.3491 34.6196C44.7708 34.1977 45.0854 33.681 45.2665 33.1126C45.4475 32.5441 45.4898 31.9406 45.3897 31.3526C46.0123 31.2514 46.5992 30.9945 47.0959 30.6056C47.5925 30.2167 47.9828 29.7086 48.2303 29.1284C48.4799 28.5405 48.5745 27.8985 48.5052 27.2636C48.4358 26.6287 48.2049 26.0222 47.8343 25.502C48.364 25.1647 48.8 24.6993 49.102 24.1488C49.4041 23.5983 49.5624 22.9805 49.5623 22.3526" fill="#E6E7E8"/>
<path d="M27.4847 14.0362C27.4847 11.3204 28.0692 8.74303 29.1098 6.41147C28.1558 5.87935 26.9808 5.75785 25.8872 6.19941C25.2741 6.44769 24.7376 6.854 24.3325 7.37698C23.9274 7.89996 23.6681 8.52095 23.581 9.17672C22.9603 8.95998 22.2935 8.91096 21.6478 9.03461C21.0021 9.15825 20.4005 9.45018 19.9038 9.88088C19.4071 10.3116 19.033 10.8658 18.8191 11.4875C18.6053 12.1091 18.5594 12.7762 18.6861 13.4213C18.1338 13.565 17.6218 13.8336 17.1896 14.2063C16.7574 14.579 16.4165 15.046 16.1931 15.5712C15.9565 16.1277 15.8585 16.7333 15.9077 17.336C15.9569 17.9387 16.1517 18.5204 16.4755 19.0312C15.8785 19.3507 15.3794 19.8263 15.0315 20.4072C14.6836 20.9881 14.4999 21.6525 14.5 22.3297C14.5001 22.964 14.6618 23.5878 14.97 24.1422C15.2781 24.6966 15.7225 25.1633 16.2612 25.4982C15.9424 25.9998 15.7479 26.5703 15.6938 27.1621C15.6397 27.754 15.7276 28.3503 15.9501 28.9013C16.1736 29.4544 16.5262 29.9458 16.9785 30.3346C17.4309 30.7234 17.9697 30.9983 18.55 31.1362C18.4371 31.7401 18.4748 32.3625 18.6597 32.9485C18.8445 33.5344 19.1709 34.0658 19.6099 34.4956C20.0489 34.9254 20.587 35.2405 21.1767 35.4129C21.7664 35.5854 22.3895 35.6099 22.9909 35.4843C23.1006 36.0901 23.3582 36.6593 23.741 37.1415C24.1237 37.6236 24.6197 38.0037 25.1848 38.2479C25.7499 38.492 26.3666 38.5927 26.9801 38.541C27.5935 38.4893 28.1846 38.2868 28.7009 37.9514C29.0327 38.4728 29.4887 38.9038 30.0281 39.2056C30.5675 39.5074 31.1733 39.6706 31.7913 39.6806C32.4093 39.6907 33.0201 39.5472 33.5689 39.2631C34.1178 38.9789 34.5876 38.563 34.9362 38.0527C35.4482 38.427 36.0473 38.6643 36.6767 38.7423C37.3061 38.8203 37.945 38.7362 38.5328 38.4982C39.1328 38.256 39.6596 37.8621 40.0616 37.3551C40.4635 36.848 40.7268 36.2452 40.8256 35.6058C41.4484 35.7564 42.0994 35.7447 42.7163 35.5716C43.3333 35.3986 43.8955 35.07 44.3491 34.6175C44.8676 34.0988 45.2206 33.4379 45.3633 32.7185C35.4177 32.2859 27.4859 24.0903 27.4859 14.0378" fill="#CCCBCB"/>
<path d="M42.0041 16.5493C37.6751 11.2967 29.9941 9.48259 24.4372 13.9207C19.7825 17.6394 20.7275 25.403 24.1334 29.5892C27.8189 34.1173 35.5016 33.8186 39.3997 29.7461C41.5237 27.527 41.9495 24.0204 40.7711 21.2467C39.6146 18.509 37.1463 16.8654 34.2393 16.5313C31.2423 16.1859 27.9427 16.9183 26.8205 20.0233C25.4553 23.796 29.5998 26.6928 32.9506 25.7799C34.6342 25.322 33.9187 22.7109 32.2301 23.1688C29.4817 23.918 28.1947 20.3574 30.9329 19.4259C33.0288 18.7138 35.6838 19.1897 37.2667 20.7298C39.2844 22.6946 39.1241 26.1219 37.2481 28.0817C35.4149 29.997 32.1519 30.5426 29.66 29.9739C24.8067 28.8714 22.6946 22.1338 24.656 17.9133C25.9278 15.1818 29.1397 14.0208 31.9572 14.0613C35.2141 14.1097 38.0857 16.0273 40.0921 18.4612C41.2053 19.8084 43.1094 17.8818 42.0057 16.5487" fill="#EC297B"/>
</g>
<defs>
<filter id="filter0_d_1885_2204" x="0.5" y="0" width="64" height="78" filterUnits="userSpaceOnUse" color-interpolation-filters="sRGB">
<feFlood flood-opacity="0" result="BackgroundImageFix"/>
<feColorMatrix in="SourceAlpha" type="matrix" values="0 0 0 0 0 0 0 0 0 0 0 0 0 0 0 0 0 0 127 0" result="hardAlpha"/>
<feMorphology radius="2" operator="dilate" in="SourceAlpha" result="effect1_dropShadow_1885_2204"/>
<feOffset/>
<feGaussianBlur stdDeviation="0.5"/>
<feComposite in2="hardAlpha" operator="out"/>
<feColorMatrix type="matrix" values="0 0 0 0 0 0 0 0 0 0 0 0 0 0 0 0 0 0 0.05 0"/>
<feBlend mode="normal" in2="BackgroundImageFix" result="effect1_dropShadow_1885_2204"/>
<feBlend mode="normal" in="SourceGraphic" in2="effect1_dropShadow_1885_2204" result="shape"/>
</filter>
<clipPath id="clip0_1885_2204">
<rect width="36" height="36" fill="white" transform="translate(14.5 5)"/>
</clipPath>
</defs>
</svg>
