<svg width="64" height="78" viewBox="0 0 64 78" fill="none" xmlns="http://www.w3.org/2000/svg">
<g filter="url(#filter0_d_2297_1697)">
<rect x="3" y="3" width="58" height="72" rx="8" fill="white"/>
</g>
<path d="M17.64 62.192H31.048V63.872H17.64V62.192ZM23.448 63.088H25.592V66.208H23.448V63.088ZM19.192 67.472H29.576V69.168H19.192V67.472ZM19.192 65.088H21.304V68.192H19.192V65.088ZM19.352 55.072H21.448V56.592H27.224V55.072H29.336V61.168H19.352V55.072ZM21.448 58.192V59.504H27.224V58.192H21.448ZM35.8307 55.28H37.5908V56.704C37.5908 59.504 36.2308 62.048 33.3348 62.976L32.2948 61.296C34.7908 60.496 35.8307 58.576 35.8307 56.704V55.28ZM36.2628 55.28H38.0068V56.704C38.0068 58.528 39.0308 60.32 41.4468 61.056L40.4068 62.72C37.5748 61.824 36.2628 59.456 36.2628 56.704V55.28ZM34.5668 64.096H44.6788V69.424H42.5348V65.792H34.5668V64.096ZM42.5348 54.608H44.6788V63.44H42.5348V54.608Z" fill="#797878"/>
<g clip-path="url(#clip0_2297_1697)">
<path d="M49.0666 26.7554C49.0671 26.1735 48.9312 25.5996 48.6698 25.0797C48.4084 24.5598 48.0287 24.1085 47.5614 23.7618C47.9226 23.2509 48.1498 22.6575 48.2223 22.0361C48.2947 21.4146 48.21 20.7848 47.9759 20.2046C47.7301 19.5948 47.3276 19.0607 46.8091 18.6563C46.2907 18.252 45.6747 17.9916 45.0234 17.9017C45.1235 17.3299 45.0889 16.7427 44.9223 16.1866C44.7557 15.6305 44.4618 15.121 44.0638 14.6984C43.6659 14.2758 43.1749 13.9519 42.6298 13.7522C42.0847 13.5526 41.5006 13.4829 40.9239 13.5485C40.8038 12.954 40.5407 12.3978 40.1573 11.9279C39.7738 11.4581 39.2817 11.0887 38.7234 10.8519C38.1138 10.5924 37.4461 10.4999 36.7889 10.5838C36.1317 10.6677 35.5087 10.9251 34.9839 11.3294C34.6606 10.7468 34.1873 10.2612 33.6132 9.92304C33.039 9.58489 32.3849 9.40645 31.7185 9.40625C31.1417 9.40592 30.5727 9.53964 30.0564 9.79687C29.5401 10.0541 29.0906 10.4278 28.7435 10.8884C28.246 10.5837 27.6842 10.3996 27.1028 10.3508C26.5215 10.3019 25.9368 10.3898 25.3955 10.6072C24.7822 10.8555 24.2457 11.2619 23.8406 11.785C23.4355 12.3081 23.1763 12.9292 23.0892 13.5851C21.7786 13.1317 20.2655 13.4225 19.2198 14.471C18.7868 14.9041 18.4668 15.437 18.288 16.0227C18.1092 16.6085 18.077 17.2292 18.1944 17.8303C17.6421 17.974 17.1301 18.2426 16.6979 18.6153C16.2657 18.988 15.9248 19.455 15.7014 19.9801C15.4648 20.5368 15.3669 21.1426 15.4161 21.7455C15.4653 22.3483 15.6601 22.9302 15.9837 23.4412C15.4053 23.75 14.9184 24.2056 14.5719 24.7623C14.2254 25.3189 14.0316 25.957 14.0099 26.6123C13.9881 27.2676 14.1393 27.9171 14.4482 28.4955C14.7571 29.0738 15.2127 29.5607 15.7694 29.9071C15.149 30.8915 14.9881 32.147 15.4584 33.3046C15.6813 33.858 16.0338 34.3497 16.4862 34.7386C16.9386 35.1275 17.4777 35.4021 18.0582 35.5394C17.946 36.1371 17.9814 36.7531 18.1613 37.334C18.3411 37.9149 18.6601 38.4431 19.0904 38.8728C19.5298 39.3116 20.0714 39.6342 20.6664 39.8115C21.2615 39.9889 21.8913 40.0154 22.4992 39.8887C22.6092 40.4978 22.8691 41.0698 23.2556 41.5533C23.642 42.0368 24.1428 42.4164 24.7126 42.6579C25.9012 43.1641 27.2022 43.0078 28.2091 42.3564C28.546 42.8864 29.0113 43.3228 29.5617 43.6251C30.1121 43.9275 30.73 44.086 31.358 44.0861C31.9663 44.0867 32.5655 43.9387 33.1034 43.6547C33.6414 43.3708 34.1018 42.9596 34.4444 42.4571C34.962 42.8349 35.5682 43.073 36.2045 43.1486C36.8408 43.2242 37.4859 43.1347 38.0776 42.8887C38.6693 42.6427 39.1877 42.2485 39.5828 41.744C39.978 41.2396 40.2366 40.6419 40.3338 40.0085C40.9563 40.1604 41.6074 40.1495 42.2245 39.9769C42.8416 39.8043 43.4039 39.4758 43.8573 39.023C44.279 38.6009 44.5935 38.0839 44.7746 37.5153C44.9556 36.9468 44.9979 36.3431 44.8979 35.7549C45.5208 35.6537 46.1079 35.3966 46.6046 35.0074C47.1012 34.6182 47.4913 34.1096 47.7385 33.5291C47.9881 32.9417 48.0828 32.3 48.0134 31.6656C47.9441 31.0311 47.7131 30.4251 47.3425 29.9054C47.8721 29.5673 48.3079 29.1013 48.6099 28.5504C48.9119 27.9995 49.0703 27.3814 49.0705 26.7532" fill="#9D9E9F"/>
<path d="M26.9847 18.4488C26.9847 15.7336 27.5692 13.1568 28.6098 10.8275C28.1233 10.5518 27.581 10.3893 27.0231 10.352C26.4652 10.3147 25.9061 10.4036 25.3872 10.6121C24.774 10.8604 24.2375 11.2668 23.8324 11.7899C23.4273 12.313 23.168 12.9341 23.081 13.5899C21.7704 13.1366 20.2572 13.4274 19.2116 14.4759C18.7786 14.909 18.4586 15.4418 18.2798 16.0276C18.101 16.6133 18.0688 17.234 18.1861 17.8351C17.6338 17.9789 17.1219 18.2475 16.6897 18.6202C16.2575 18.9929 15.9165 19.4598 15.6931 19.985C15.4566 20.5417 15.3587 21.1475 15.4078 21.7503C15.457 22.3532 15.6518 22.9351 15.9755 23.4461C15.3786 23.7651 14.8795 24.2403 14.5316 24.8208C14.1837 25.4014 13.9999 26.0655 14 26.7423C14 27.3769 14.1617 28.0009 14.4699 28.5556C14.778 29.1103 15.2224 29.5773 15.7612 29.9126C15.1407 30.8969 14.9799 32.1524 15.4501 33.3101C15.6731 33.8634 16.0255 34.3552 16.4779 34.744C16.9303 35.1329 17.4695 35.4076 18.05 35.5449C17.9378 36.1425 17.9731 36.7586 18.153 37.3395C18.3329 37.9204 18.6518 38.4486 19.0822 38.8783C19.5215 39.317 20.0631 39.6396 20.6582 39.817C21.2532 39.9943 21.8831 40.0208 22.4909 39.8941C22.6009 40.5032 22.8609 41.0753 23.2473 41.5587C23.6338 42.0422 24.1345 42.4218 24.7044 42.6633C25.8929 43.1696 27.194 43.0132 28.2009 42.3618C28.5378 42.8918 29.003 43.3282 29.5535 43.6306C30.1039 43.9329 30.7217 44.0915 31.3497 44.0915C31.958 44.0922 32.5573 43.9441 33.0952 43.6602C33.6332 43.3763 34.0935 42.9651 34.4362 42.4625C34.9538 42.8403 35.5599 43.0785 36.1962 43.1541C36.8326 43.2297 37.4776 43.1401 38.0693 42.8941C38.661 42.6481 39.1794 42.2539 39.5746 41.7495C39.9698 41.245 40.2284 40.6473 40.3256 40.0139C40.9481 40.1658 41.5992 40.1549 42.2163 39.9823C42.8334 39.8097 43.3957 39.4812 43.8491 39.0284C44.3672 38.5086 44.7201 37.8471 44.8633 37.1272C34.9177 36.6952 26.9859 28.499 26.9859 18.4466" fill="#9D9E9F"/>
<path d="M49.0584 25.3503C49.0589 24.7682 48.923 24.1941 48.6616 23.6741C48.4002 23.154 48.0206 22.7024 47.5531 22.3556C47.9143 21.8446 48.1415 21.2513 48.2139 20.6298C48.2864 20.0083 48.2017 19.3786 47.9677 18.7983C47.722 18.1885 47.3195 17.6545 46.801 17.2503C46.2825 16.8461 45.6664 16.5861 45.0151 16.4966C45.1183 15.9059 45.078 15.2991 44.8976 14.7273C44.7171 14.1555 44.4019 13.6355 43.9784 13.211C43.5807 12.8146 43.0989 12.5127 42.5688 12.3276C42.0386 12.1425 41.4736 12.079 40.9156 12.1417C40.7956 11.5471 40.5325 10.9907 40.1491 10.5206C39.7657 10.0506 39.2735 9.681 38.7151 9.44394C38.1054 9.18528 37.4378 9.09319 36.7808 9.1771C36.1238 9.26101 35.5008 9.5179 34.9756 9.9215C34.6519 9.33932 34.1786 8.85421 33.6045 8.51638C33.0304 8.17855 32.3764 8.00027 31.7103 8C31.1335 7.99967 30.5645 8.13339 30.0482 8.39062C29.5319 8.64784 29.0824 9.02153 28.7353 9.48219C28.2382 9.17645 27.6762 8.99175 27.0947 8.943C26.5132 8.89425 25.9283 8.98279 25.3872 9.2015C24.7741 9.44978 24.2376 9.85609 23.8325 10.3791C23.4274 10.9021 23.1681 11.523 23.081 12.1788C22.4603 11.9621 21.7935 11.9131 21.1478 12.0367C20.5021 12.1603 19.9005 12.4523 19.4038 12.883C18.9071 13.3137 18.533 13.8679 18.3191 14.4896C18.1053 15.1112 18.0594 15.7783 18.1861 16.4234C17.6338 16.5671 17.1218 16.8357 16.6896 17.2084C16.2574 17.5811 15.9165 18.0481 15.6931 18.5733C15.4565 19.1298 15.3585 19.7354 15.4077 20.3381C15.4569 20.9408 15.6517 21.5225 15.9755 22.0333C15.3785 22.3528 14.8794 22.8284 14.5315 23.4093C14.1836 23.9902 13.9999 24.6546 14 25.3318C14.0001 25.966 14.1618 26.5899 14.47 27.1443C14.7781 27.6987 15.2225 28.1654 15.7612 28.5003C15.4424 29.0019 15.2479 29.5724 15.1938 30.1642C15.1397 30.7561 15.2276 31.3523 15.4501 31.9034C15.6736 32.4564 16.0262 32.9479 16.4785 33.3367C16.9309 33.7255 17.4697 34.0004 18.05 34.1382C17.9371 34.7422 17.9748 35.3646 18.1597 35.9506C18.3445 36.5365 18.6709 37.0679 19.1099 37.4977C19.5489 37.9275 20.087 38.2426 20.6767 38.415C21.2664 38.5875 21.8895 38.612 22.4909 38.4864C22.6006 39.0921 22.8582 39.6614 23.241 40.1436C23.6237 40.6257 24.1197 41.0058 24.6848 41.25C25.2499 41.4941 25.8666 41.5948 26.4801 41.5431C27.0935 41.4914 27.6846 41.2888 28.2009 40.9535C28.5327 41.4749 28.9887 41.9059 29.5281 42.2077C30.0675 42.5095 30.6733 42.6727 31.2913 42.6827C31.9093 42.6928 32.5201 42.5493 33.0689 42.2652C33.6178 41.981 34.0876 41.5651 34.4362 41.0547C34.9482 41.4291 35.5473 41.6664 36.1767 41.7444C36.8061 41.8224 37.445 41.7383 38.0328 41.5002C38.6328 41.2581 39.1596 40.8642 39.5616 40.3572C39.9635 39.8501 40.2268 39.2473 40.3256 38.6079C40.9484 38.7585 41.5994 38.7467 42.2163 38.5737C42.8333 38.4007 43.3955 38.0721 43.8491 37.6196C44.2708 37.1977 44.5854 36.681 44.7665 36.1126C44.9475 35.5441 44.9898 34.9406 44.8897 34.3526C45.5123 34.2514 46.0992 33.9945 46.5959 33.6056C47.0925 33.2167 47.4828 32.7086 47.7303 32.1284C47.9799 31.5405 48.0745 30.8985 48.0052 30.2636C47.9358 29.6287 47.7049 29.0222 47.3343 28.502C47.864 28.1647 48.3 27.6993 48.602 27.1488C48.9041 26.5983 49.0624 25.9805 49.0623 25.3526" fill="#E6E7E8"/>
<path d="M26.9847 17.0362C26.9847 14.3204 27.5692 11.743 28.6098 9.41147C27.6558 8.87935 26.4807 8.75785 25.3872 9.19941C24.7741 9.44769 24.2376 9.854 23.8325 10.377C23.4274 10.9 23.1681 11.5209 23.081 12.1767C22.4603 11.96 21.7935 11.911 21.1478 12.0346C20.5021 12.1583 19.9005 12.4502 19.4038 12.8809C18.9071 13.3116 18.533 13.8658 18.3191 14.4875C18.1053 15.1091 18.0594 15.7762 18.1861 16.4213C17.6338 16.565 17.1218 16.8336 16.6896 17.2063C16.2574 17.579 15.9165 18.046 15.6931 18.5712C15.4565 19.1277 15.3585 19.7333 15.4077 20.336C15.4569 20.9387 15.6517 21.5204 15.9755 22.0312C15.3785 22.3507 14.8794 22.8263 14.5315 23.4072C14.1836 23.9881 13.9999 24.6525 14 25.3297C14.0001 25.964 14.1618 26.5878 14.47 27.1422C14.7781 27.6966 15.2225 28.1633 15.7612 28.4982C15.4424 28.9998 15.2479 29.5703 15.1938 30.1621C15.1397 30.754 15.2276 31.3503 15.4501 31.9013C15.6736 32.4544 16.0262 32.9458 16.4785 33.3346C16.9309 33.7234 17.4697 33.9983 18.05 34.1362C17.9371 34.7401 17.9748 35.3625 18.1597 35.9485C18.3445 36.5344 18.6709 37.0658 19.1099 37.4956C19.5489 37.9254 20.087 38.2405 20.6767 38.4129C21.2664 38.5854 21.8895 38.6099 22.4909 38.4843C22.6006 39.0901 22.8582 39.6593 23.241 40.1415C23.6237 40.6236 24.1197 41.0037 24.6848 41.2479C25.2499 41.492 25.8666 41.5927 26.4801 41.541C27.0935 41.4893 27.6846 41.2868 28.2009 40.9514C28.5327 41.4728 28.9887 41.9038 29.5281 42.2056C30.0675 42.5074 30.6733 42.6706 31.2913 42.6806C31.9092 42.6907 32.5201 42.5472 33.0689 42.2631C33.6178 41.9789 34.0876 41.563 34.4362 41.0527C34.9482 41.427 35.5473 41.6643 36.1767 41.7423C36.8061 41.8203 37.445 41.7362 38.0328 41.4982C38.6328 41.256 39.1596 40.8621 39.5616 40.3551C39.9635 39.848 40.2268 39.2452 40.3256 38.6058C40.9484 38.7564 41.5994 38.7447 42.2163 38.5716C42.8333 38.3986 43.3955 38.07 43.8491 37.6175C44.3676 37.0988 44.7206 36.4379 44.8633 35.7185C34.9177 35.2859 26.9859 27.0903 26.9859 17.0378" fill="#CCCBCB"/>
<path d="M41.5041 19.5493C37.1751 14.2967 29.4941 12.4826 23.9372 16.9207C19.2825 20.6394 20.2275 28.403 23.6334 32.5892C27.3189 37.1173 35.0016 36.8186 38.8997 32.7461C41.0237 30.527 41.4495 27.0204 40.2711 24.2467C39.1146 21.509 36.6463 19.8654 33.7393 19.5313C30.7423 19.1859 27.4427 19.9183 26.3205 23.0233C24.9553 26.796 29.0998 29.6928 32.4506 28.7799C34.1342 28.322 33.4187 25.7109 31.7301 26.1688C28.9817 26.918 27.6947 23.3574 30.4329 22.4259C32.5288 21.7138 35.1838 22.1897 36.7667 23.7298C38.7844 25.6946 38.6241 29.1219 36.7481 31.0817C34.9149 32.997 31.6519 33.5426 29.16 32.9739C24.3067 31.8714 22.1946 25.1338 24.156 20.9133C25.4278 18.1818 28.6397 17.0208 31.4572 17.0613C34.7141 17.1097 37.5857 19.0273 39.5921 21.4612C40.7053 22.8084 42.6094 20.8818 41.5057 19.5487" fill="#EC297B"/>
</g>
<defs>
<filter id="filter0_d_2297_1697" x="0" y="0" width="64" height="78" filterUnits="userSpaceOnUse" color-interpolation-filters="sRGB">
<feFlood flood-opacity="0" result="BackgroundImageFix"/>
<feColorMatrix in="SourceAlpha" type="matrix" values="0 0 0 0 0 0 0 0 0 0 0 0 0 0 0 0 0 0 127 0" result="hardAlpha"/>
<feMorphology radius="2" operator="dilate" in="SourceAlpha" result="effect1_dropShadow_2297_1697"/>
<feOffset/>
<feGaussianBlur stdDeviation="0.5"/>
<feComposite in2="hardAlpha" operator="out"/>
<feColorMatrix type="matrix" values="0 0 0 0 0 0 0 0 0 0 0 0 0 0 0 0 0 0 0.05 0"/>
<feBlend mode="normal" in2="BackgroundImageFix" result="effect1_dropShadow_2297_1697"/>
<feBlend mode="normal" in="SourceGraphic" in2="effect1_dropShadow_2297_1697" result="shape"/>
</filter>
<clipPath id="clip0_2297_1697">
<rect width="36" height="36" fill="white" transform="translate(14 8)"/>
</clipPath>
</defs>
</svg>
