<svg width="21" height="20" viewBox="0 0 21 20" fill="none" xmlns="http://www.w3.org/2000/svg">
<path d="M12.7794 2.31893L12.7798 2.31858C14.4652 0.415626 16.9695 0.260456 18.5887 1.77C20.6778 3.72184 20.8101 7.33781 18.9095 9.48402L18.9093 9.48419L10.498 18.9882L2.08769 9.48526C2.08762 9.48518 2.08756 9.48511 2.08749 9.48503C2.08746 9.485 2.08743 9.48496 2.08739 9.48492C0.190291 7.3384 0.322827 3.7218 2.41199 1.76995C4.03201 0.259709 6.53946 0.416354 8.21916 2.31666L8.22051 2.31817L8.22119 2.31894L8.22171 2.31953L9.11423 3.32591L9.11423 3.32592L9.93918 4.25615L10.5003 4.88888L11.0614 4.25615L11.8864 3.32593L12.7794 2.31893Z" fill="#4E4949" stroke="white" stroke-width="1.5"/>
</svg>
