<svg width="65" height="78" viewBox="0 0 65 78" fill="none" xmlns="http://www.w3.org/2000/svg">
<g filter="url(#filter0_d_1885_2159)">
<rect x="3.5" y="3" width="58" height="72" rx="8" fill="white"/>
</g>
<path d="M29.148 56.432H31.708V58.16H29.148V56.432ZM29.148 59.648H31.708V61.376H29.148V59.648ZM22.268 55.408C24.556 55.408 26.3 56.912 26.3 59.008C26.3 61.088 24.556 62.592 22.268 62.592C19.98 62.592 18.236 61.088 18.236 59.008C18.236 56.912 19.98 55.408 22.268 55.408ZM22.268 57.184C21.148 57.184 20.316 57.872 20.316 59.008C20.316 60.16 21.148 60.816 22.268 60.816C23.388 60.816 24.22 60.16 24.22 59.008C24.22 57.872 23.388 57.184 22.268 57.184ZM27.676 54.608H29.804V63.248H27.676V54.608ZM24.972 63.568C28.028 63.568 29.98 64.672 29.98 66.496C29.98 68.336 28.028 69.424 24.972 69.424C21.9 69.424 19.948 68.336 19.948 66.496C19.948 64.672 21.9 63.568 24.972 63.568ZM24.972 65.248C23.084 65.248 22.06 65.648 22.06 66.496C22.06 67.36 23.084 67.76 24.972 67.76C26.86 67.76 27.868 67.36 27.868 66.496C27.868 65.648 26.86 65.248 24.972 65.248ZM36.3307 55.28H38.0908V56.704C38.0908 59.504 36.7308 62.048 33.8348 62.976L32.7948 61.296C35.2908 60.496 36.3307 58.576 36.3307 56.704V55.28ZM36.7628 55.28H38.5068V56.704C38.5068 58.528 39.5308 60.32 41.9468 61.056L40.9068 62.72C38.0748 61.824 36.7628 59.456 36.7628 56.704V55.28ZM35.0668 64.096H45.1788V69.424H43.0348V65.792H35.0668V64.096ZM43.0348 54.608H45.1788V63.44H43.0348V54.608Z" fill="#797878"/>
<g clip-path="url(#clip0_1885_2159)">
<path d="M33.9324 7.97938C30.3127 7.34094 28.119 9.48407 27.8096 12.9631C27.7421 13.7169 27.1402 14.3806 26.6818 14.9741C25.1434 16.9738 23.5655 19.0663 21.9512 21.0181C20.5505 22.7084 19.3496 24.5422 18.1177 26.3534C15.5555 30.1391 14.543 33.0697 15.9718 37.5669C16.284 38.5569 16.9984 40.1741 18.2837 40.1122C19.569 40.0531 19.7715 38.4191 20.0049 37.4881C20.123 37.01 20.2637 36.4419 20.6574 36.0988C20.8684 35.9159 21.0455 35.975 21.2818 35.9103C21.5209 35.8456 21.5405 35.7978 21.729 35.66C22.2549 35.2747 22.3984 35.4603 22.8034 35.8569C23.3855 36.4278 24.3502 36.3828 25.0871 36.2366C25.5174 36.1522 25.658 36.0594 25.914 35.7388C26.1896 35.39 26.6115 35.1622 26.8562 34.7909C27.1093 34.4084 27.1177 34.2734 27.5846 34.1188C28.5802 33.7897 28.853 34.4816 29.5646 34.9681C30.2621 35.4463 31.2099 35.6319 32.034 35.4406C32.4334 35.3478 32.5487 35.2381 32.7455 34.9119C32.979 34.5209 33.2827 34.2566 33.564 33.9022C33.8734 33.5084 34.1209 33.2694 34.5455 33.0022C34.9309 32.7603 35.2768 32.6534 35.7127 32.5156C36.5115 32.2625 37.2821 31.9109 38.0752 31.6466C39.1074 31.3006 40.1396 30.9547 41.1718 30.6059C43.2024 29.9141 45.2274 29.2081 47.2355 28.4628C48.383 28.0381 49.6684 27.7006 49.9665 26.3619C50.0677 25.9091 50.1437 25.4506 50.1915 24.9894C50.7174 19.9719 47.7446 15.5197 43.9084 12.5272C41.9677 11.0141 39.7796 9.79907 37.4677 8.94407C36.5818 8.62063 35.2937 8.22125 33.9324 7.97938Z" fill="#FFE082"/>
<path d="M29.2349 27.9362C29.1168 27.9362 29.0043 27.9306 28.889 27.9222C27.7808 27.8153 26.9202 26.8309 26.8837 25.6272C26.864 24.9213 27.1874 24.2659 27.7724 23.8328C27.9187 23.7231 28.1605 23.5628 28.4305 23.4616C28.3771 23.335 28.3293 23.1916 28.2899 23.0341C28.183 22.6009 28.2168 22.1791 28.3912 21.8106C28.6808 21.1947 29.3052 20.7756 30.149 20.6181C30.3262 20.5872 30.5202 20.5703 30.7199 20.5703C31.0912 20.5703 32.0165 20.6378 32.5762 21.2594C32.7674 21.4703 32.8912 21.7206 32.9446 21.9991C33.8643 21.7825 34.888 22.2016 35.3718 23.0087C35.954 23.9819 35.8668 25.45 34.8065 26.0884C34.334 26.3725 33.8221 26.5019 33.1893 26.5019C33.0852 26.5019 33.0149 26.5075 32.939 26.5131C32.6521 26.5244 32.3708 26.5244 32.1487 26.4737C32.0679 26.4546 31.9896 26.4263 31.9152 26.3894C31.9096 26.4006 31.904 26.4091 31.8983 26.4203C31.6424 26.8281 31.3105 27.2809 30.6496 27.5369C30.5933 27.5594 30.5399 27.5903 30.4893 27.6212C30.3627 27.6916 30.2333 27.7619 30.0927 27.8069C29.8368 27.8941 29.5499 27.9362 29.2349 27.9362ZM28.903 24.6653C28.8918 24.6738 28.723 24.7553 28.5515 24.8819C28.3096 25.0591 28.183 25.3122 28.1887 25.5934C28.1999 26.0659 28.5149 26.575 29.0127 26.6256C29.249 26.6453 29.4993 26.6341 29.6765 26.575C29.7383 26.5553 29.7918 26.5187 29.848 26.4878C29.9549 26.4259 30.0618 26.3697 30.1771 26.3247C30.419 26.2319 30.5652 26.0912 30.7958 25.7228C30.8043 25.7059 30.8127 25.6834 30.824 25.6581C30.8858 25.5175 30.9899 25.2784 31.2374 25.1153C31.4062 25.0028 31.5862 24.9438 31.7774 24.9438C32.0727 24.9438 32.2893 25.0872 32.4158 25.1687C32.4383 25.1828 32.4608 25.2025 32.4862 25.2109C32.4946 25.2109 32.5537 25.2166 32.6268 25.2166C32.7055 25.2166 32.7899 25.2109 32.8715 25.2053C32.9699 25.1997 33.0683 25.1941 33.1583 25.1941C33.583 25.1941 33.8671 25.1266 34.1343 24.9663C34.4971 24.7469 34.4971 24.0831 34.2552 23.6781C34.0302 23.3013 33.5015 23.1381 33.0908 23.3153L33.0683 23.3378C32.908 23.4503 32.6296 23.6331 32.3005 23.5909C32.1975 23.577 32.0983 23.5424 32.0089 23.4893C31.9195 23.4361 31.8417 23.3655 31.7802 23.2816C31.5637 22.9862 31.6227 22.6488 31.6565 22.4463L31.6649 22.3759C31.6818 22.2128 31.6312 22.1538 31.6058 22.1284C31.468 21.9766 31.1108 21.8725 30.7171 21.8725C30.5962 21.8725 30.4808 21.8838 30.3824 21.9006C29.9746 21.9738 29.6709 22.1481 29.5696 22.3647C29.5134 22.4828 29.5302 22.6234 29.5555 22.7219C29.6062 22.9328 29.654 22.9975 29.6568 23.0003C29.7693 23.0678 29.9802 23.2084 30.0955 23.5009C30.2587 23.9087 30.1602 24.1928 30.0477 24.3587C29.9577 24.4909 29.7468 24.7103 29.3277 24.7103C29.2237 24.7103 29.0999 24.6962 28.9874 24.6766C28.9565 24.6737 28.9283 24.6681 28.903 24.6653Z" fill="#757F3F"/>
<path d="M19.212 24.5351C19.2823 23.8601 19.7098 23.1682 20.6576 22.5579C21.3411 22.1191 22.047 21.9616 22.8542 22.0741C24.6936 22.3272 26.4008 23.3144 25.872 25.4857C25.6526 26.3885 24.4967 27.0972 23.6839 27.3869C22.6939 27.7413 21.5914 27.6991 20.6436 27.2407C20.2161 27.0354 19.6536 26.6472 19.4033 26.2366C19.1417 25.8063 19.1586 25.0244 19.212 24.5351Z" fill="#ED6C30"/>
<path d="M24.2856 23.8053L23.8778 24.455L24.8566 24.5366L25.1828 23.8053L24.6934 23.3159L24.2856 23.8053ZM21.3972 24.6181L20.6294 24.6631L21.13 25.5069L21.9175 25.3466L22.0328 24.6659L21.3972 24.6181ZM22.8738 26.0356L22.0919 26.0328L22.66 26.9694L23.4559 26.8513L23.5263 26.1284L22.8738 26.0356ZM25.0534 24.8572L24.9325 25.2847L25.4416 25.3044L25.4613 24.8966L25.0534 24.8572ZM23.1859 24.8403C23.1859 24.8403 22.8203 25.1862 22.8794 25.2059C22.9413 25.2256 23.4503 25.2875 23.4503 25.2875L23.6528 24.9612L23.1859 24.8403ZM20.6238 25.7741C20.6238 25.7741 20.1569 26.2634 20.2778 26.2634C20.3988 26.2634 20.7475 26.2016 20.7475 26.2016L20.95 25.8753L20.6238 25.7741ZM22.8513 22.6719C22.8513 22.6719 22.0019 23.5578 22.2241 23.5578C22.4463 23.5578 23.0734 23.4481 23.0734 23.4481L23.4419 22.8575L22.8513 22.6719Z" fill="white"/>
<path d="M26.0428 16.6176C26.0006 15.9369 26.31 15.186 27.1453 14.4266C27.7472 13.881 28.4194 13.611 29.2322 13.5885C31.0856 13.5379 32.9334 14.2297 32.7703 16.4601C32.7056 17.3882 31.6791 18.2769 30.9253 18.696C30.0084 19.2051 28.9144 19.3485 27.9019 19.0532C27.4463 18.9182 26.8275 18.6313 26.5153 18.2657C26.1863 17.8832 26.0766 17.1069 26.0428 16.6176Z" fill="#ED6C30"/>
<path d="M29.5638 15.2253L29.1559 15.8778L30.1347 15.9594L30.4609 15.2253L29.9716 14.7359L29.5638 15.2253ZM28.2222 16.4628L27.4544 16.5106L27.955 17.3516L28.7397 17.1941L28.8578 16.5106L28.2222 16.4628ZM30.8181 16.9747L30.0334 16.9719L30.6044 17.9113L31.3975 17.7931L31.4706 17.0703L30.8181 16.9747ZM28.0731 18.3584L28.4809 18.0941L28.7453 18.3387L28.6019 18.5609L28.2953 18.6228L28.0731 18.3584ZM31.2906 16.1169L31.1697 16.5444L31.6788 16.5641L31.6984 16.1591L31.2906 16.1169ZM31.555 14.6094C31.555 14.6094 31.1894 14.9553 31.2484 14.975C31.3103 14.9947 31.8194 15.0566 31.8194 15.0566L32.0219 14.7303L31.555 14.6094ZM28.4584 14.6909C28.4584 14.6909 27.9888 15.1803 28.1125 15.1803C28.2334 15.1803 28.5822 15.1184 28.5822 15.1184L28.7847 14.7922L28.4584 14.6909ZM26.5656 17.1153L26.3828 17.4416L26.6669 17.7481C26.6669 17.7481 26.8497 17.5231 26.8497 17.4416C26.8497 17.36 26.7681 17.1153 26.7681 17.1153H26.5656Z" fill="white"/>
<path d="M35.837 21.4882C35.9073 20.8132 36.3348 20.1213 37.2826 19.511C37.9661 19.0722 38.672 18.9147 39.4764 19.0272C41.3158 19.2804 43.0229 20.2676 42.497 22.4388C42.2776 23.3416 41.1217 24.0504 40.3089 24.3372C39.3189 24.6916 38.2164 24.6494 37.2686 24.191C36.8411 23.9857 36.2786 23.5976 36.0283 23.1869C35.7667 22.7594 35.7836 21.9776 35.837 21.4882Z" fill="#ED6C30"/>
<path d="M38.305 20.3806L38.4231 21.14L39.2162 20.5606L38.9856 19.7928L38.2937 19.7422L38.305 20.3806ZM38.0997 22.1947L37.5484 22.7291L38.4794 23.0413L38.9716 22.4056L38.6116 21.815L38.0997 22.1947ZM40.3975 20.8841L39.8041 21.3959L40.8475 21.7334L41.3706 21.1231L40.9544 20.5297L40.3975 20.8841ZM40.3272 22.94L40.735 22.6728L40.9994 22.9203L40.8588 23.1425L40.5522 23.2044L40.3272 22.94ZM38.2684 23.4547C38.2684 23.4547 37.9028 23.8006 37.9619 23.8203C38.0237 23.84 38.5328 23.9019 38.5328 23.9019L38.7353 23.5756L38.2684 23.4547ZM36.9016 20.8953L36.7188 21.2216L37.0028 21.5281C37.0028 21.5281 37.1856 21.3031 37.1856 21.2216C37.1856 21.14 37.1041 20.8953 37.1041 20.8953H36.9016Z" fill="white"/>
<path d="M29.7179 12.1328C30.5335 11.8178 31.2367 12.2059 32.0439 12.4984C32.6204 12.7093 33.1773 12.9709 33.7314 13.2297C35.4385 14.0312 37.1457 14.83 38.8501 15.6315C39.6826 16.0225 40.5179 16.4162 41.2548 16.9675C42.1239 17.6172 42.8776 18.3625 43.5639 19.2034C44.1151 19.8756 44.6664 21.0709 44.5201 21.9315C44.4385 22.2184 44.2135 22.0497 44.1657 21.9484C43.4448 20.5072 42.3851 19.2622 41.0776 18.3203C39.4576 17.1587 37.531 16.5118 35.6214 15.9325C35.146 15.7862 34.6595 15.6428 34.2404 15.3756C33.7707 15.0775 33.4079 14.6444 32.986 14.2815C31.9904 13.4209 30.6573 12.9597 29.341 13.0215C29.0626 13.0468 29.2145 12.3493 29.7179 12.1328Z" fill="#DDA450"/>
<path d="M49.8925 21.7337C49.4031 20.9237 48.5622 20.5075 47.6397 20.7184C46.7734 20.9181 45.73 21.8828 45.3222 22.6759C44.9144 23.4662 44.6866 24.8444 43.9244 25.3028C43.0441 25.8372 41.8938 25.6741 40.96 26.1072C40.3469 26.3941 39.6381 26.7962 39.0531 27.1394C38.1981 27.6428 37.405 27.8453 36.4263 28.0141C35.4475 28.1828 34.2016 28.5034 33.6025 29.2966C33.3859 29.5862 33.2397 29.9237 33.0147 30.2078C32.1372 31.3272 31.0966 30.6494 29.6931 30.4131C29.2459 30.3372 28.6778 30.2894 28.2419 30.4131C27.7806 30.5425 26.8834 31.2119 26.4587 31.4369C25.3956 32.005 24.1862 31.4819 23.0809 31.9628C21.6213 32.5984 20.8647 34.2325 19.5456 35.1269C18.7947 35.6359 17.8441 35.8834 16.9609 35.6781C16.2944 35.5234 15.6841 35.0875 15.3438 34.4997C15.4141 35.4503 15.6137 36.46 15.9653 37.5653C16.2775 38.5553 16.9919 40.1725 18.2772 40.1106C19.5625 40.0516 19.765 38.4175 19.9984 37.4866C20.1166 37.0084 20.2572 36.4403 20.6509 36.0972C20.8619 35.9144 21.0391 35.9734 21.2753 35.9087C21.5144 35.8441 21.5341 35.7962 21.7225 35.6584C22.2484 35.2731 22.3919 35.4587 22.7969 35.8553C23.3791 36.4262 24.3438 36.3812 25.0806 36.235C25.5109 36.1506 25.6516 36.0578 25.9075 35.7372C26.1831 35.3884 26.605 35.1606 26.8497 34.7894C27.1028 34.4069 27.1112 34.2719 27.5781 34.1172C28.5737 33.7881 28.8466 34.48 29.5581 34.9666C30.2556 35.4447 31.2034 35.6303 32.0275 35.4391C32.4269 35.3462 32.5422 35.2366 32.7391 34.9103C32.9725 34.5194 33.2763 34.255 33.5575 33.9006C33.8669 33.5069 34.1144 33.2678 34.5391 33.0006C34.9244 32.7587 35.2703 32.6519 35.7063 32.5141C36.505 32.2609 37.2756 31.9094 38.0688 31.645C39.1009 31.2991 40.1331 30.9531 41.1653 30.6044C43.1959 29.9125 45.2209 29.2066 47.2291 28.4612C48.3766 28.0366 49.6619 27.6991 49.96 26.3603C50.0612 25.9075 50.1372 25.4491 50.185 24.9878C50.2188 24.6644 50.2384 24.3409 50.2441 24.0231C50.2469 23.3341 50.2666 22.3497 49.8925 21.7337Z" fill="#DDA450"/>
</g>
<defs>
<filter id="filter0_d_1885_2159" x="0.5" y="0" width="64" height="78" filterUnits="userSpaceOnUse" color-interpolation-filters="sRGB">
<feFlood flood-opacity="0" result="BackgroundImageFix"/>
<feColorMatrix in="SourceAlpha" type="matrix" values="0 0 0 0 0 0 0 0 0 0 0 0 0 0 0 0 0 0 127 0" result="hardAlpha"/>
<feMorphology radius="2" operator="dilate" in="SourceAlpha" result="effect1_dropShadow_1885_2159"/>
<feOffset/>
<feGaussianBlur stdDeviation="0.5"/>
<feComposite in2="hardAlpha" operator="out"/>
<feColorMatrix type="matrix" values="0 0 0 0 0 0 0 0 0 0 0 0 0 0 0 0 0 0 0.05 0"/>
<feBlend mode="normal" in2="BackgroundImageFix" result="effect1_dropShadow_1885_2159"/>
<feBlend mode="normal" in="SourceGraphic" in2="effect1_dropShadow_1885_2159" result="shape"/>
</filter>
<clipPath id="clip0_1885_2159">
<rect width="36" height="36" fill="white" transform="translate(14.5 5)"/>
</clipPath>
</defs>
</svg>
