<svg width="64" height="78" viewBox="0 0 64 78" fill="none" xmlns="http://www.w3.org/2000/svg">
<g filter="url(#filter0_d_1728_1351)">
<rect x="3" y="3" width="58" height="72" rx="8" fill="white"/>
</g>
<path d="M28.648 56.432H31.208V58.16H28.648V56.432ZM28.648 59.648H31.208V61.376H28.648V59.648ZM21.768 55.408C24.056 55.408 25.8 56.912 25.8 59.008C25.8 61.088 24.056 62.592 21.768 62.592C19.48 62.592 17.736 61.088 17.736 59.008C17.736 56.912 19.48 55.408 21.768 55.408ZM21.768 57.184C20.648 57.184 19.816 57.872 19.816 59.008C19.816 60.16 20.648 60.816 21.768 60.816C22.888 60.816 23.72 60.16 23.72 59.008C23.72 57.872 22.888 57.184 21.768 57.184ZM27.176 54.608H29.304V63.248H27.176V54.608ZM24.472 63.568C27.528 63.568 29.48 64.672 29.48 66.496C29.48 68.336 27.528 69.424 24.472 69.424C21.4 69.424 19.448 68.336 19.448 66.496C19.448 64.672 21.4 63.568 24.472 63.568ZM24.472 65.248C22.584 65.248 21.56 65.648 21.56 66.496C21.56 67.36 22.584 67.76 24.472 67.76C26.36 67.76 27.368 67.36 27.368 66.496C27.368 65.648 26.36 65.248 24.472 65.248ZM35.8307 55.28H37.5908V56.704C37.5908 59.504 36.2308 62.048 33.3348 62.976L32.2948 61.296C34.7908 60.496 35.8307 58.576 35.8307 56.704V55.28ZM36.2628 55.28H38.0068V56.704C38.0068 58.528 39.0308 60.32 41.4468 61.056L40.4068 62.72C37.5748 61.824 36.2628 59.456 36.2628 56.704V55.28ZM34.5668 64.096H44.6788V69.424H42.5348V65.792H34.5668V64.096ZM42.5348 54.608H44.6788V63.44H42.5348V54.608Z" fill="#797878"/>
<path d="M33.4324 9.97938C29.8127 9.34094 27.619 11.4841 27.3096 14.9631C27.2421 15.7169 26.6402 16.3806 26.1818 16.9741C24.6434 18.9738 23.0655 21.0663 21.4512 23.0181C20.0505 24.7084 18.8496 26.5422 17.6177 28.3534C15.0555 32.1391 14.043 35.0697 15.4718 39.5669C15.784 40.5569 16.4984 42.1741 17.7837 42.1122C19.069 42.0531 19.2715 40.4191 19.5049 39.4881C19.623 39.01 19.7637 38.4419 20.1574 38.0988C20.3684 37.9159 20.5455 37.975 20.7818 37.9103C21.0209 37.8456 21.0405 37.7978 21.229 37.66C21.7549 37.2747 21.8984 37.4603 22.3034 37.8569C22.8855 38.4278 23.8502 38.3828 24.5871 38.2366C25.0174 38.1522 25.158 38.0594 25.414 37.7388C25.6896 37.39 26.1115 37.1622 26.3562 36.7909C26.6093 36.4084 26.6177 36.2734 27.0846 36.1188C28.0802 35.7897 28.353 36.4816 29.0646 36.9681C29.7621 37.4463 30.7099 37.6319 31.534 37.4406C31.9334 37.3478 32.0487 37.2381 32.2455 36.9119C32.479 36.5209 32.7827 36.2566 33.064 35.9022C33.3734 35.5084 33.6209 35.2694 34.0455 35.0022C34.4309 34.7603 34.7768 34.6534 35.2127 34.5156C36.0115 34.2625 36.7821 33.9109 37.5752 33.6466C38.6074 33.3006 39.6396 32.9547 40.6718 32.6059C42.7024 31.9141 44.7274 31.2081 46.7355 30.4628C47.883 30.0381 49.1684 29.7006 49.4665 28.3619C49.5677 27.9091 49.6437 27.4506 49.6915 26.9894C50.2174 21.9719 47.2446 17.5197 43.4084 14.5272C41.4677 13.0141 39.2796 11.7991 36.9677 10.9441C36.0818 10.6206 34.7937 10.2213 33.4324 9.97938Z" fill="#FFE082"/>
<path d="M28.7349 29.9362C28.6168 29.9362 28.5043 29.9306 28.389 29.9222C27.2808 29.8153 26.4202 28.8309 26.3837 27.6272C26.364 26.9213 26.6874 26.2659 27.2724 25.8328C27.4187 25.7231 27.6605 25.5628 27.9305 25.4616C27.8771 25.335 27.8293 25.1916 27.7899 25.0341C27.683 24.6009 27.7168 24.1791 27.8912 23.8106C28.1808 23.1947 28.8052 22.7756 29.649 22.6181C29.8262 22.5872 30.0202 22.5703 30.2199 22.5703C30.5912 22.5703 31.5165 22.6378 32.0762 23.2594C32.2674 23.4703 32.3912 23.7206 32.4446 23.9991C33.3643 23.7825 34.388 24.2016 34.8718 25.0087C35.454 25.9819 35.3668 27.45 34.3065 28.0884C33.834 28.3725 33.3221 28.5019 32.6893 28.5019C32.5852 28.5019 32.5149 28.5075 32.439 28.5131C32.1521 28.5244 31.8708 28.5244 31.6487 28.4737C31.5679 28.4546 31.4896 28.4263 31.4152 28.3894C31.4096 28.4006 31.404 28.4091 31.3983 28.4203C31.1424 28.8281 30.8105 29.2809 30.1496 29.5369C30.0933 29.5594 30.0399 29.5903 29.9893 29.6212C29.8627 29.6916 29.7333 29.7619 29.5927 29.8069C29.3368 29.8941 29.0499 29.9362 28.7349 29.9362ZM28.403 26.6653C28.3918 26.6738 28.223 26.7553 28.0515 26.8819C27.8096 27.0591 27.683 27.3122 27.6887 27.5934C27.6999 28.0659 28.0149 28.575 28.5127 28.6256C28.749 28.6453 28.9993 28.6341 29.1765 28.575C29.2383 28.5553 29.2918 28.5187 29.348 28.4878C29.4549 28.4259 29.5618 28.3697 29.6771 28.3247C29.919 28.2319 30.0652 28.0912 30.2958 27.7228C30.3043 27.7059 30.3127 27.6834 30.324 27.6581C30.3858 27.5175 30.4899 27.2784 30.7374 27.1153C30.9062 27.0028 31.0862 26.9438 31.2774 26.9438C31.5727 26.9438 31.7893 27.0872 31.9158 27.1687C31.9383 27.1828 31.9608 27.2025 31.9862 27.2109C31.9946 27.2109 32.0537 27.2166 32.1268 27.2166C32.2055 27.2166 32.2899 27.2109 32.3715 27.2053C32.4699 27.1997 32.5683 27.1941 32.6583 27.1941C33.083 27.1941 33.3671 27.1266 33.6343 26.9663C33.9971 26.7469 33.9971 26.0831 33.7552 25.6781C33.5302 25.3013 33.0015 25.1381 32.5908 25.3153L32.5683 25.3378C32.408 25.4503 32.1296 25.6331 31.8005 25.5909C31.6975 25.577 31.5983 25.5424 31.5089 25.4893C31.4195 25.4361 31.3417 25.3655 31.2802 25.2816C31.0637 24.9862 31.1227 24.6488 31.1565 24.4463L31.1649 24.3759C31.1818 24.2128 31.1312 24.1538 31.1058 24.1284C30.968 23.9766 30.6108 23.8725 30.2171 23.8725C30.0962 23.8725 29.9808 23.8838 29.8824 23.9006C29.4746 23.9738 29.1709 24.1481 29.0696 24.3647C29.0134 24.4828 29.0302 24.6234 29.0555 24.7219C29.1062 24.9328 29.154 24.9975 29.1568 25.0003C29.2693 25.0678 29.4802 25.2084 29.5955 25.5009C29.7587 25.9087 29.6602 26.1928 29.5477 26.3587C29.4577 26.4909 29.2468 26.7103 28.8277 26.7103C28.7237 26.7103 28.5999 26.6962 28.4874 26.6766C28.4565 26.6737 28.4283 26.6681 28.403 26.6653Z" fill="#757F3F"/>
<path d="M18.712 26.5351C18.7823 25.8601 19.2098 25.1682 20.1576 24.5579C20.8411 24.1191 21.547 23.9616 22.3542 24.0741C24.1936 24.3272 25.9008 25.3144 25.372 27.4857C25.1526 28.3885 23.9967 29.0972 23.1839 29.3869C22.1939 29.7413 21.0914 29.6991 20.1436 29.2407C19.7161 29.0354 19.1536 28.6472 18.9033 28.2366C18.6417 27.8063 18.6586 27.0244 18.712 26.5351Z" fill="#ED6C30"/>
<path d="M23.7856 25.8053L23.3778 26.455L24.3566 26.5366L24.6828 25.8053L24.1934 25.3159L23.7856 25.8053ZM20.8972 26.6181L20.1294 26.6631L20.63 27.5069L21.4175 27.3466L21.5328 26.6659L20.8972 26.6181ZM22.3738 28.0356L21.5919 28.0328L22.16 28.9694L22.9559 28.8513L23.0263 28.1284L22.3738 28.0356ZM24.5534 26.8572L24.4325 27.2847L24.9416 27.3044L24.9613 26.8966L24.5534 26.8572ZM22.6859 26.8403C22.6859 26.8403 22.3203 27.1862 22.3794 27.2059C22.4413 27.2256 22.9503 27.2875 22.9503 27.2875L23.1528 26.9612L22.6859 26.8403ZM20.1238 27.7741C20.1238 27.7741 19.6569 28.2634 19.7778 28.2634C19.8988 28.2634 20.2475 28.2016 20.2475 28.2016L20.45 27.8753L20.1238 27.7741ZM22.3513 24.6719C22.3513 24.6719 21.5019 25.5578 21.7241 25.5578C21.9463 25.5578 22.5734 25.4481 22.5734 25.4481L22.9419 24.8575L22.3513 24.6719Z" fill="white"/>
<path d="M25.5428 18.6176C25.5006 17.9369 25.81 17.186 26.6453 16.4266C27.2472 15.881 27.9194 15.611 28.7322 15.5885C30.5856 15.5379 32.4334 16.2297 32.2703 18.4601C32.2056 19.3882 31.1791 20.2769 30.4253 20.696C29.5084 21.2051 28.4144 21.3485 27.4019 21.0532C26.9463 20.9182 26.3275 20.6313 26.0153 20.2657C25.6863 19.8832 25.5766 19.1069 25.5428 18.6176Z" fill="#ED6C30"/>
<path d="M29.0638 17.2253L28.6559 17.8778L29.6347 17.9594L29.9609 17.2253L29.4716 16.7359L29.0638 17.2253ZM27.7222 18.4628L26.9544 18.5106L27.455 19.3516L28.2397 19.1941L28.3578 18.5106L27.7222 18.4628ZM30.3181 18.9747L29.5334 18.9719L30.1044 19.9113L30.8975 19.7931L30.9706 19.0703L30.3181 18.9747ZM27.5731 20.3584L27.9809 20.0941L28.2453 20.3387L28.1019 20.5609L27.7953 20.6228L27.5731 20.3584ZM30.7906 18.1169L30.6697 18.5444L31.1788 18.5641L31.1984 18.1591L30.7906 18.1169ZM31.055 16.6094C31.055 16.6094 30.6894 16.9553 30.7484 16.975C30.8103 16.9947 31.3194 17.0566 31.3194 17.0566L31.5219 16.7303L31.055 16.6094ZM27.9584 16.6909C27.9584 16.6909 27.4888 17.1803 27.6125 17.1803C27.7334 17.1803 28.0822 17.1184 28.0822 17.1184L28.2847 16.7922L27.9584 16.6909ZM26.0656 19.1153L25.8828 19.4416L26.1669 19.7481C26.1669 19.7481 26.3497 19.5231 26.3497 19.4416C26.3497 19.36 26.2681 19.1153 26.2681 19.1153H26.0656Z" fill="white"/>
<path d="M35.337 23.4882C35.4073 22.8132 35.8348 22.1213 36.7826 21.511C37.4661 21.0722 38.172 20.9147 38.9764 21.0272C40.8158 21.2804 42.5229 22.2676 41.997 24.4388C41.7776 25.3416 40.6217 26.0504 39.8089 26.3372C38.8189 26.6916 37.7164 26.6494 36.7686 26.191C36.3411 25.9857 35.7786 25.5976 35.5283 25.1869C35.2667 24.7594 35.2836 23.9776 35.337 23.4882Z" fill="#ED6C30"/>
<path d="M37.805 22.3806L37.9231 23.14L38.7162 22.5606L38.4856 21.7928L37.7937 21.7422L37.805 22.3806ZM37.5997 24.1947L37.0484 24.7291L37.9794 25.0413L38.4716 24.4056L38.1116 23.815L37.5997 24.1947ZM39.8975 22.8841L39.3041 23.3959L40.3475 23.7334L40.8706 23.1231L40.4544 22.5297L39.8975 22.8841ZM39.8272 24.94L40.235 24.6728L40.4994 24.9203L40.3588 25.1425L40.0522 25.2044L39.8272 24.94ZM37.7684 25.4547C37.7684 25.4547 37.4028 25.8006 37.4619 25.8203C37.5237 25.84 38.0328 25.9019 38.0328 25.9019L38.2353 25.5756L37.7684 25.4547ZM36.4016 22.8953L36.2188 23.2216L36.5028 23.5281C36.5028 23.5281 36.6856 23.3031 36.6856 23.2216C36.6856 23.14 36.6041 22.8953 36.6041 22.8953H36.4016Z" fill="white"/>
<path d="M29.2179 14.1328C30.0335 13.8178 30.7367 14.2059 31.5439 14.4984C32.1204 14.7093 32.6773 14.9709 33.2314 15.2297C34.9385 16.0312 36.6457 16.83 38.3501 17.6315C39.1826 18.0225 40.0179 18.4162 40.7548 18.9675C41.6239 19.6172 42.3776 20.3625 43.0639 21.2034C43.6151 21.8756 44.1664 23.0709 44.0201 23.9315C43.9385 24.2184 43.7135 24.0497 43.6657 23.9484C42.9448 22.5072 41.8851 21.2622 40.5776 20.3203C38.9576 19.1587 37.031 18.5118 35.1214 17.9325C34.646 17.7862 34.1595 17.6428 33.7404 17.3756C33.2707 17.0775 32.9079 16.6444 32.486 16.2815C31.4904 15.4209 30.1573 14.9597 28.841 15.0215C28.5626 15.0468 28.7145 14.3493 29.2179 14.1328Z" fill="#DDA450"/>
<path d="M49.3925 23.7337C48.9031 22.9237 48.0622 22.5075 47.1397 22.7184C46.2734 22.9181 45.23 23.8828 44.8222 24.6759C44.4144 25.4662 44.1866 26.8444 43.4244 27.3028C42.5441 27.8372 41.3938 27.6741 40.46 28.1072C39.8469 28.3941 39.1381 28.7962 38.5531 29.1394C37.6981 29.6428 36.905 29.8453 35.9263 30.0141C34.9475 30.1828 33.7016 30.5034 33.1025 31.2966C32.8859 31.5862 32.7397 31.9237 32.5147 32.2078C31.6372 33.3272 30.5966 32.6494 29.1931 32.4131C28.7459 32.3372 28.1778 32.2894 27.7419 32.4131C27.2806 32.5425 26.3834 33.2119 25.9587 33.4369C24.8956 34.005 23.6862 33.4819 22.5809 33.9628C21.1213 34.5984 20.3647 36.2325 19.0456 37.1269C18.2947 37.6359 17.3441 37.8834 16.4609 37.6781C15.7944 37.5234 15.1841 37.0875 14.8438 36.4997C14.9141 37.4503 15.1137 38.46 15.4653 39.5653C15.7775 40.5553 16.4919 42.1725 17.7772 42.1106C19.0625 42.0516 19.265 40.4175 19.4984 39.4866C19.6166 39.0084 19.7572 38.4403 20.1509 38.0972C20.3619 37.9144 20.5391 37.9734 20.7753 37.9087C21.0144 37.8441 21.0341 37.7962 21.2225 37.6584C21.7484 37.2731 21.8919 37.4587 22.2969 37.8553C22.8791 38.4262 23.8438 38.3812 24.5806 38.235C25.0109 38.1506 25.1516 38.0578 25.4075 37.7372C25.6831 37.3884 26.105 37.1606 26.3497 36.7894C26.6028 36.4069 26.6112 36.2719 27.0781 36.1172C28.0737 35.7881 28.3466 36.48 29.0581 36.9666C29.7556 37.4447 30.7034 37.6303 31.5275 37.4391C31.9269 37.3462 32.0422 37.2366 32.2391 36.9103C32.4725 36.5194 32.7763 36.255 33.0575 35.9006C33.3669 35.5069 33.6144 35.2678 34.0391 35.0006C34.4244 34.7587 34.7703 34.6519 35.2063 34.5141C36.005 34.2609 36.7756 33.9094 37.5688 33.645C38.6009 33.2991 39.6331 32.9531 40.6653 32.6044C42.6959 31.9125 44.7209 31.2066 46.7291 30.4612C47.8766 30.0366 49.1619 29.6991 49.46 28.3603C49.5612 27.9075 49.6372 27.4491 49.685 26.9878C49.7188 26.6644 49.7384 26.3409 49.7441 26.0231C49.7469 25.3341 49.7666 24.3497 49.3925 23.7337Z" fill="#DDA450"/>
<defs>
<filter id="filter0_d_1728_1351" x="0" y="0" width="64" height="78" filterUnits="userSpaceOnUse" color-interpolation-filters="sRGB">
<feFlood flood-opacity="0" result="BackgroundImageFix"/>
<feColorMatrix in="SourceAlpha" type="matrix" values="0 0 0 0 0 0 0 0 0 0 0 0 0 0 0 0 0 0 127 0" result="hardAlpha"/>
<feMorphology radius="2" operator="dilate" in="SourceAlpha" result="effect1_dropShadow_1728_1351"/>
<feOffset/>
<feGaussianBlur stdDeviation="0.5"/>
<feComposite in2="hardAlpha" operator="out"/>
<feColorMatrix type="matrix" values="0 0 0 0 0 0 0 0 0 0 0 0 0 0 0 0 0 0 0.05 0"/>
<feBlend mode="normal" in2="BackgroundImageFix" result="effect1_dropShadow_1728_1351"/>
<feBlend mode="normal" in="SourceGraphic" in2="effect1_dropShadow_1728_1351" result="shape"/>
</filter>
</defs>
</svg>
