<svg width="19" height="18" viewBox="0 0 19 18" fill="none" xmlns="http://www.w3.org/2000/svg">
<circle cx="8.04025" cy="8.04025" r="7.54025" fill="white" stroke="black"/>
<circle cx="6.42836" cy="4.02016" r="1.10805" fill="#FFE551" stroke="black"/>
<path d="M1.60938 12.0605L5.02622 8.74525L8.5858 11.4613L12.1454 7.23633L15.2778 9.6484C15.6798 11.2565 13.8879 13.1652 12.4637 14.0705C8.35991 17.6887 3.0332 14.4748 1.60938 12.0605Z" fill="#2292F9"/>
<path d="M12.4637 14.0705L8.5858 11.4613M12.4637 14.0705C8.35991 17.6887 3.0332 14.4748 1.60938 12.0605L5.02622 8.74525L8.5858 11.4613M12.4637 14.0705C13.8879 13.1652 15.6798 11.2565 15.2778 9.6484L12.1454 7.23633L8.5858 11.4613" stroke="black"/>
<path d="M10.3013 17.2346C10.1482 16.3857 10.8006 13.6452 14.6342 9.47472C16.7459 8.00257 19.321 8.82386 17.1694 12.0702C14.7561 15.7113 11.4334 16.923 10.3013 17.2346Z" fill="#FFE551" stroke="black"/>
<path d="M15.8921 8.62549C15.8921 9.65947 15.7721 11.1127 17.6688 10.4037" stroke="black"/>
<path d="M14.0938 9.81152C14.0938 10.69 15.4316 12.7848 17.0574 12.1825" stroke="black"/>
</svg>
