<svg width="29" height="28" viewBox="0 0 29 28" fill="none" xmlns="http://www.w3.org/2000/svg">
<circle cx="12.5016" cy="12.5016" r="12.0016" fill="url(#paint0_linear_2642_2115)" stroke="black"/>
<circle cx="9.99251" cy="6.25081" r="2.00033" fill="#FFE551" stroke="black"/>
<path d="M2.5 18.7524L7.81279 13.5977L13.3475 17.8208L18.8822 11.2515L23.7528 15.002C24.3779 17.5023 21.5916 20.4701 19.3772 21.8778C12.9963 27.5036 4.71389 22.5064 2.5 18.7524Z" fill="#2292F9"/>
<path d="M19.3772 21.8778L13.3475 17.8208M19.3772 21.8778C12.9963 27.5036 4.71389 22.5064 2.5 18.7524L7.81279 13.5977L13.3475 17.8208M19.3772 21.8778C21.5916 20.4701 24.3779 17.5023 23.7528 15.002L18.8822 11.2515L13.3475 17.8208" stroke="black"/>
<path d="M16.0165 26.7978C15.7786 25.4778 16.7929 21.2167 22.7537 14.7321C26.0371 12.4431 30.041 13.7201 26.6956 18.7677C22.9432 24.4292 17.7768 26.3133 16.0165 26.7978Z" fill="#FFE551" stroke="black"/>
<path d="M24.7133 13.4116C24.7133 15.0193 24.5266 17.2789 27.4758 16.1765" stroke="black"/>
<path d="M21.9141 15.2559C21.9141 16.6218 23.9943 19.879 26.5222 18.9424" stroke="black"/>
<defs>
<linearGradient id="paint0_linear_2642_2115" x1="12.5016" y1="0" x2="12.5016" y2="25.0033" gradientUnits="userSpaceOnUse">
<stop stop-color="#FEEA78"/>
<stop offset="1" stop-color="#CBC7AE" stop-opacity="0"/>
</linearGradient>
</defs>
</svg>
