<svg width="64" height="78" viewBox="0 0 64 78" fill="none" xmlns="http://www.w3.org/2000/svg">
<g filter="url(#filter0_d_2297_1696)">
<rect x="3" y="3" width="58" height="72" rx="8" fill="white"/>
</g>
<path d="M21.816 55.04C24.072 55.04 25.768 56.448 25.768 58.432C25.768 60.4 24.072 61.808 21.816 61.808C19.56 61.808 17.864 60.4 17.864 58.432C17.864 56.448 19.56 55.04 21.816 55.04ZM21.816 56.768C20.728 56.768 19.912 57.376 19.912 58.432C19.912 59.488 20.728 60.096 21.816 60.096C22.904 60.096 23.704 59.488 23.704 58.432C23.704 57.376 22.904 56.768 21.816 56.768ZM27.816 54.608H29.96V62.016H27.816V54.608ZM20.072 62.624H29.96V66.688H22.184V68.48H20.104V65.152H27.848V64.272H20.072V62.624ZM20.104 67.616H30.328V69.264H20.104V67.616ZM35.8307 55.28H37.5908V56.704C37.5908 59.504 36.2308 62.048 33.3348 62.976L32.2948 61.296C34.7908 60.496 35.8307 58.576 35.8307 56.704V55.28ZM36.2628 55.28H38.0068V56.704C38.0068 58.528 39.0308 60.32 41.4468 61.056L40.4068 62.72C37.5748 61.824 36.2628 59.456 36.2628 56.704V55.28ZM34.5668 64.096H44.6788V69.424H42.5348V65.792H34.5668V64.096ZM42.5348 54.608H44.6788V63.44H42.5348V54.608Z" fill="#797878"/>
<path d="M16.7624 20.4796C16.4542 20.8526 16.4372 21.3625 16.4474 21.8339C16.4862 23.6284 16.7688 25.5155 17.9368 26.9392C19.41 28.7352 22.0259 29.4186 24.4418 29.2913C26.8577 29.1639 29.1622 28.3541 31.4694 27.6717C33.1276 27.1812 34.8072 26.7526 36.5067 26.4075C38.3357 26.036 40.3005 25.709 41.6581 24.5036C43.5274 22.844 43.469 19.6699 41.5399 18.0716C40.5677 17.2661 39.2903 16.8783 38.0516 16.5138C36.9947 16.2028 35.9256 15.8917 34.8206 15.8159C33.5193 15.7266 32.2208 15.9669 30.9411 16.206C26.353 17.063 21.6956 17.9423 17.5389 19.9517C17.2522 20.0902 16.9597 20.2408 16.7624 20.4796Z" fill="#EFEFEF"/>
<path d="M21.9058 26.5948C20.7797 25.223 19.731 21.118 19.6932 19.3892C19.6899 19.2673 19.6909 19.1453 19.6961 19.0234C18.9648 19.3047 18.2441 19.6108 17.5389 19.9518C17.2522 20.0904 16.9597 20.2409 16.7624 20.4797C16.4542 20.8528 16.4372 21.3627 16.4474 21.834C16.4862 23.6286 16.7688 25.5156 17.9368 26.9394C19.41 28.7354 22.0259 29.4188 24.4418 29.2915C25.3981 29.241 26.3368 29.0828 27.2654 28.8687C25.2135 28.7949 23.1424 28.1012 21.9058 26.5948Z" fill="#DDDDDD"/>
<path d="M39.7298 21.2136C35.8373 21.8243 31.613 21.3946 28.1835 23.2547C26.8051 24.0023 25.5934 25.1059 24.0489 25.4488C22.1042 25.8806 20.1129 24.9956 18.4944 23.9046C17.3854 23.157 16.3071 22.2255 15.9518 20.9799C15.5414 19.5411 16.1943 17.5469 17.2888 16.4637C18.3832 15.3805 19.8289 13.945 21.2817 13.3517C23.7271 12.353 26.212 11.8987 28.7863 11.2597C31.6753 10.5427 34.8168 10.8713 37.6927 11.5958C40.5687 12.3204 43.1924 14.5255 43.4701 17.3313C43.5579 18.2187 43.3908 19.169 42.7965 19.8654C42.0713 20.7153 40.8662 21.0353 39.7298 21.2136Z" fill="#FFE46A"/>
<path d="M43.4815 17.3334C43.4638 17.1559 43.4367 16.9794 43.4001 16.8047C43.2846 17.196 43.103 17.5656 42.8315 17.8831C42.0749 18.768 40.8168 19.1006 39.6305 19.2857C35.5669 19.9197 31.1561 19.4697 27.5767 21.4053C26.1381 22.1832 24.8737 23.3321 23.2614 23.6884C21.2313 24.1371 19.1518 23.2142 17.4612 22.0769C16.9186 21.7118 16.384 21.304 15.9297 20.8409C15.9408 20.888 15.9499 20.9353 15.9632 20.9821C16.3185 22.2276 17.0168 23.347 18.1258 24.0945C19.7444 25.1856 22.0692 26.3501 24.0139 25.9183C25.5583 25.5754 26.8091 24.772 28.1875 24.0244C31.617 22.1643 35.7343 22.4208 39.6267 21.8101C40.7631 21.6318 42.1496 21.0771 42.8747 20.2272C43.469 19.5308 43.5693 18.2209 43.4815 17.3334Z" fill="#FFCD00"/>
<path d="M33.725 23.1452L33.5039 19.8721L33.514 19.87C33.514 19.87 32.867 16.0705 31.014 14.201C29.536 12.7099 28.0279 11.3906 28.0279 11.3906L24.6172 12.2343C24.6172 12.2343 27.5547 14.9309 28.784 16.7235C29.7795 18.1752 30.0973 19.9377 30.1677 20.4104L30.1663 20.4106C30.1663 20.4106 30.5107 23.1962 30.4772 23.3153C30.4436 23.4345 30.536 28.0692 30.536 28.0692L33.608 27.0913C33.608 27.0913 33.7769 25.8716 33.7854 25.364C33.794 24.8565 33.725 23.1452 33.725 23.1452Z" fill="#3D4432"/>
<path d="M45.6117 26.7822L45.5621 26.5416C45.3368 25.4484 44.2581 24.7383 43.165 24.9636L42.9244 25.0132C41.8312 25.2384 41.1211 26.3172 41.3464 27.4103L41.396 27.6509C41.6213 28.7441 42.7 29.4542 43.7931 29.2289L44.0337 29.1793C45.1269 28.9541 45.837 27.8754 45.6117 26.7822Z" fill="#D45C20"/>
<path d="M45.7836 31.3525L45.734 31.1119C45.5087 30.0187 44.43 29.3086 43.3368 29.5339L43.0963 29.5835C42.0031 29.8088 41.293 30.8875 41.5183 31.9806L41.5678 32.2212C41.7931 33.3144 42.8719 34.0245 43.965 33.7992L44.2055 33.7496C45.2987 33.5244 46.0089 32.4457 45.7836 31.3525Z" fill="#EC7B30"/>
<path d="M37.958 30.2923L37.9563 30.0467C37.9486 28.9305 37.0291 28.0236 35.913 28.0313L35.6674 28.033C34.5512 28.0407 33.6444 28.9602 33.652 30.0763L33.6537 30.3219C33.6551 30.5171 33.6849 30.7111 33.7421 30.8978C32.6766 30.9624 31.8285 31.8578 31.836 32.9373L31.8377 33.1829C31.8453 34.299 32.7649 35.2059 33.881 35.1983L34.1266 35.1966C35.2427 35.1889 36.1496 34.2694 36.1419 33.1533L36.1402 32.9077C36.1388 32.7124 36.1091 32.5184 36.0519 32.3318C37.1173 32.2671 37.9654 31.3717 37.958 30.2923Z" fill="#E55525"/>
<path d="M32.6976 31.8681L32.6481 31.6275C32.4228 30.5343 31.344 29.8242 30.2509 30.0495L30.0104 30.0991C28.9171 30.3244 28.2071 31.4031 28.4323 32.4963L28.4819 32.7368C28.7072 33.83 29.7859 34.5401 30.8791 34.3148L31.1196 34.2653C32.2128 34.04 32.9229 32.9612 32.6976 31.8681Z" fill="#D45C20"/>
<path d="M41.1192 28.7731L41.0668 28.5194C40.8293 27.3663 39.6914 26.6172 38.5383 26.8549L38.2845 26.9072C38.2079 26.9229 38.1333 26.943 38.0605 26.9665C38.1138 26.4531 37.9993 25.9194 37.6971 25.4561L37.543 25.2198C36.8426 24.1457 35.3909 23.8401 34.3168 24.5404L34.0805 24.6945C33.116 25.3235 32.7717 26.5585 33.2188 27.5817C32.8884 27.4754 32.5361 27.4564 32.1962 27.5266L31.9557 27.5761C30.8625 27.8014 30.1524 28.8802 30.3777 29.9733L30.4272 30.2139C30.6525 31.3071 31.7312 32.0172 32.8244 31.7919L33.0649 31.7423C34.1581 31.517 34.8682 30.4383 34.6429 29.3451L34.5934 29.1046C34.5871 29.0749 34.5803 29.0454 34.5728 29.016C35.201 29.2897 35.9392 29.2845 36.5772 28.9552C36.5734 29.1135 36.5867 29.2744 36.62 29.4358L36.6723 29.6895C36.9099 30.8427 38.0478 31.5917 39.2009 31.354L39.4546 31.3017C40.6077 31.0641 41.3567 29.9263 41.1192 28.7731Z" fill="#F26C24"/>
<path d="M36.9313 33.2347C32.7461 33.2635 28.9258 33.5928 26.3271 32.4291C26.1279 32.9948 26.2854 33.7876 26.2899 34.4424L26.6254 38.8419C26.9237 41.3771 27.9762 41.7597 30.8757 42.6075C30.9037 42.6157 30.9328 42.6211 30.9607 42.6295C31.299 42.7322 33.7838 43.4277 38.5934 42.9058C42.7452 42.4552 45.4909 40.5569 45.4909 40.5569C47.6906 39.1401 47.4096 36.841 47.3923 34.3305L47.2805 30.9377C47.276 30.2829 47.0773 30.1958 46.8703 29.6328C44.2879 30.8322 41.1164 33.2059 36.9313 33.2347Z" fill="#444D38"/>
<path d="M29.3851 31.1228L29.3356 30.8823C29.1103 29.789 28.0315 29.079 26.9384 29.3042L26.6979 29.3538C25.6046 29.5791 24.8946 30.6578 25.1198 31.751L25.1694 31.9915C25.3947 33.0847 26.4734 33.7948 27.5666 33.5695L27.8071 33.52C28.9003 33.2948 29.6104 32.216 29.3851 31.1228ZM40.0088 31.4175L39.9561 31.1618C39.7166 29.9996 38.5699 29.2448 37.4078 29.4842L37.1521 29.5369C35.9899 29.7764 35.2351 30.9231 35.4745 32.0852L35.5272 32.341C35.7667 33.5031 36.9134 34.258 38.0755 34.0185L38.3312 33.9658C39.4934 33.7263 40.2483 32.5796 40.0088 31.4175ZM42.8503 25.2197L42.8007 24.9791C42.5754 23.8859 41.4967 23.1758 40.4035 23.4011L40.163 23.4507C39.0698 23.6759 38.3597 24.7547 38.585 25.8478L38.6345 26.0884C38.8598 27.1816 39.9385 27.8917 41.0317 27.6664L41.2722 27.6168C42.3654 27.3915 43.0755 26.3128 42.8503 25.2197Z" fill="#EC7B30"/>
<path d="M43.5286 31.0745C43.5205 29.9083 42.5598 28.9608 41.3937 28.9688L41.137 28.9706C39.9708 28.9786 39.0233 29.9393 39.0313 31.1055L39.0336 31.4311C39.0416 32.5973 40.0023 33.5449 41.1684 33.5369L41.4251 33.5351C42.5913 33.5271 43.5388 32.5663 43.5308 31.4002L43.5286 31.0745Z" fill="#F24D20"/>
<path d="M32.8199 26.2576C32.8123 25.1415 31.8927 24.2346 30.7766 24.2422L30.531 24.2439C29.4149 24.2516 28.508 25.1711 28.5157 26.2872L28.5174 26.5328C28.525 27.6489 29.4446 28.5558 30.5606 28.5482L30.8062 28.5465C31.9224 28.5388 32.8293 27.6193 32.8216 26.5032L32.8199 26.2576Z" fill="#ED6623"/>
<path d="M47.148 29.5779C47.1404 28.4618 46.2208 27.5549 45.1048 27.5625L44.8592 27.5642C43.743 27.5719 42.8361 28.4914 42.8438 29.6075L42.8455 29.8531C42.8531 30.9693 43.7727 31.8761 44.8888 31.8685L45.1344 31.8668C46.2505 31.8591 47.1574 30.9396 47.1497 29.8235L47.148 29.5779Z" fill="#E55525"/>
<path d="M44.148 28.2967C44.1404 27.1805 43.2208 26.2736 42.1048 26.2813L41.8592 26.283C40.743 26.2906 39.8361 27.2102 39.8438 28.3263L39.8455 28.5719C39.8531 29.688 40.7727 30.5949 41.8888 30.5872L42.1344 30.5855C43.2505 30.5779 44.1574 29.6583 44.1497 28.5423L44.148 28.2967Z" fill="#EB6523"/>
<path d="M40.341 26.4217C40.3333 25.3055 39.4138 24.3986 38.2977 24.4063L38.0521 24.408C36.936 24.4156 36.0291 25.3352 36.0367 26.4513L36.0384 26.6969C36.0461 27.813 36.9656 28.7199 38.0817 28.7122L38.3273 28.7105C39.4434 28.7029 40.3503 27.7833 40.3427 26.6673L40.341 26.4217ZM31.0777 28.4408C31.0701 27.3246 30.1505 26.4177 29.0345 26.4254L28.7889 26.4271C27.6727 26.4347 26.7658 27.3543 26.7735 28.4704L26.7752 28.716C26.7828 29.8321 27.7024 30.739 28.8185 30.7313L29.0641 30.7296C30.1802 30.722 31.0871 29.8024 31.0794 28.6864L31.0777 28.4408Z" fill="#F24D20"/>
<path d="M34.6742 26.4931L34.6246 26.2526C34.3993 25.1593 33.3206 24.4492 32.2275 24.6745L31.9869 24.7241C30.8937 24.9494 30.1836 26.0281 30.4089 27.1213L30.4585 27.3618C30.6838 28.455 31.7625 29.1651 32.8556 28.9398L33.0962 28.8903C34.1893 28.665 34.8995 27.5863 34.6742 26.4931Z" fill="#EC7B30"/>
<path d="M29.8591 26.1636C30.1912 26.1636 30.4604 25.8943 30.4604 25.5623C30.4604 25.2302 30.1912 24.9609 29.8591 24.9609C29.527 24.9609 29.2578 25.2302 29.2578 25.5623C29.2578 25.8943 29.527 26.1636 29.8591 26.1636Z" fill="#F7C2A9"/>
<path d="M29.2651 27.4681C29.2657 27.5471 29.2507 27.6254 29.221 27.6986C29.1912 27.7717 29.1474 27.8383 29.092 27.8946C29.0365 27.9508 28.9705 27.9955 28.8978 28.0262C28.825 28.057 28.7469 28.0731 28.668 28.0736C28.589 28.0741 28.5107 28.0591 28.4375 28.0294C28.3644 27.9997 28.2978 27.9559 28.2416 27.9004C28.1853 27.845 28.1406 27.779 28.1099 27.7062C28.0791 27.6335 28.0631 27.5554 28.0625 27.4764C28.0614 27.317 28.1237 27.1636 28.2357 27.05C28.3477 26.9365 28.5002 26.8721 28.6597 26.871C28.8192 26.8699 28.9725 26.9322 29.0861 27.0442C29.1996 27.1562 29.264 27.3087 29.2651 27.4681ZM45.1886 28.315C45.1096 28.3155 45.0315 28.3316 44.9588 28.3623C44.8861 28.3931 44.8201 28.4378 44.7646 28.494C44.7092 28.5503 44.6653 28.6169 44.6356 28.69C44.6059 28.7632 44.5909 28.8415 44.5914 28.9204C44.592 28.9994 44.6081 29.0775 44.6388 29.1502C44.6695 29.223 44.7143 29.289 44.7705 29.3444C44.8267 29.3999 44.8933 29.4437 44.9665 29.4734C45.0396 29.5031 45.1179 29.5182 45.1969 29.5176C45.3564 29.5165 45.5089 29.4521 45.6209 29.3386C45.7329 29.225 45.7952 29.0716 45.7941 28.9121C45.793 28.7527 45.7286 28.6002 45.615 28.4882C45.5015 28.3762 45.3481 28.3139 45.1886 28.315ZM43.6582 25.5781C43.5792 25.5787 43.5011 25.5948 43.4284 25.6255C43.3556 25.6562 43.2897 25.701 43.2342 25.7572C43.1787 25.8134 43.1349 25.88 43.1052 25.9532C43.0755 26.0263 43.0605 26.1046 43.061 26.1836C43.0616 26.2626 43.0777 26.3407 43.1084 26.4134C43.1391 26.4861 43.1838 26.5521 43.2401 26.6076C43.2963 26.663 43.3629 26.7069 43.436 26.7366C43.5092 26.7663 43.5875 26.7813 43.6665 26.7808C43.826 26.7797 43.9785 26.7153 44.0905 26.6017C44.2024 26.4882 44.2647 26.3348 44.2636 26.1753C44.2625 26.0158 44.1981 25.8633 44.0846 25.7513C43.971 25.6393 43.8177 25.577 43.6582 25.5781ZM40.2604 30.5176C40.1814 30.5181 40.1033 30.5342 40.0306 30.565C39.9579 30.5957 39.8919 30.6404 39.8364 30.6966C39.781 30.7529 39.7371 30.8195 39.7074 30.8926C39.6777 30.9658 39.6627 31.0441 39.6632 31.1231C39.6638 31.202 39.6799 31.2801 39.7106 31.3528C39.7413 31.4256 39.7861 31.4916 39.8423 31.547C39.8985 31.6025 39.9651 31.6463 40.0383 31.676C40.1114 31.7057 40.1897 31.7208 40.2687 31.7202C40.4282 31.7191 40.5807 31.6547 40.6927 31.5412C40.8047 31.4276 40.867 31.2742 40.8659 31.1148C40.8648 30.9553 40.8003 30.8028 40.6868 30.6908C40.5733 30.5788 40.4199 30.5165 40.2604 30.5176Z" fill="#F48165"/>
<path d="M41.2987 24.3862C41.2998 24.5457 41.2376 24.6991 41.1256 24.8126C41.0136 24.9262 40.8611 24.9906 40.7016 24.9917C40.5421 24.9928 40.3887 24.9305 40.2752 24.8185C40.1616 24.7065 40.0972 24.554 40.0961 24.3945C40.0956 24.3156 40.1106 24.2373 40.1403 24.1641C40.17 24.0909 40.2139 24.0244 40.2693 23.9681C40.3248 23.9119 40.3907 23.8672 40.4635 23.8364C40.5362 23.8057 40.6143 23.7896 40.6933 23.7891C40.7723 23.7885 40.8506 23.8035 40.9237 23.8333C40.9969 23.863 41.0635 23.9068 41.1197 23.9623C41.1759 24.0177 41.2207 24.0837 41.2514 24.1564C41.2821 24.2292 41.2982 24.3073 41.2987 24.3862ZM35.2456 24.8047C35.0861 24.8058 34.9336 24.8702 34.8216 24.9838C34.7096 25.0973 34.6474 25.2507 34.6485 25.4102C34.6496 25.5697 34.714 25.7222 34.8275 25.8342C34.9411 25.9462 35.0944 26.0085 35.2539 26.0074C35.4134 26.0063 35.5659 25.9419 35.6779 25.8283C35.7899 25.7148 35.8522 25.5614 35.8511 25.4019C35.85 25.2424 35.7856 25.0899 35.672 24.9779C35.5585 24.8659 35.4051 24.8036 35.2456 24.8047Z" fill="#F4B994"/>
<path d="M26.9448 30.7172C26.9453 30.7961 26.9303 30.8744 26.9006 30.9476C26.8709 31.0208 26.8271 31.0874 26.7716 31.1436C26.7162 31.1998 26.6502 31.2446 26.5774 31.2753C26.5047 31.306 26.4266 31.3221 26.3476 31.3226C26.2287 31.3235 26.1122 31.289 26.0129 31.2236C25.9135 31.1582 25.8358 31.0648 25.7896 30.9553C25.7433 30.8457 25.7306 30.7249 25.7529 30.6081C25.7753 30.4913 25.8319 30.3838 25.9154 30.2991C25.9989 30.2144 26.1056 30.1564 26.2221 30.1324C26.3386 30.1084 26.4596 30.1195 26.5698 30.1642C26.68 30.209 26.7744 30.2854 26.8412 30.3838C26.9079 30.4822 26.944 30.5982 26.9448 30.7172ZM37.8563 24.9766C37.6968 24.9777 37.5443 25.0421 37.4323 25.1556C37.3203 25.2692 37.258 25.4226 37.2591 25.582C37.2602 25.7415 37.3247 25.894 37.4382 26.006C37.5517 26.118 37.7051 26.1803 37.8646 26.1792C37.9436 26.1787 38.0217 26.1626 38.0944 26.1318C38.1672 26.1011 38.2331 26.0564 38.2886 26.0001C38.344 25.9439 38.3879 25.8773 38.4176 25.8042C38.4473 25.731 38.4623 25.6527 38.4618 25.5737C38.4612 25.4948 38.4451 25.4167 38.4144 25.3439C38.3837 25.2712 38.3389 25.2052 38.2827 25.1498C38.2265 25.0943 38.1599 25.0505 38.0867 25.0208C38.0136 24.991 37.9353 24.976 37.8563 24.9766ZM41.5743 27.1349C41.4953 27.1354 41.4172 27.1515 41.3445 27.1822C41.2718 27.213 41.2058 27.2577 41.1503 27.3139C41.0949 27.3702 41.051 27.4368 41.0213 27.5099C40.9916 27.5831 40.9766 27.6614 40.9771 27.7403C40.9777 27.8193 40.9938 27.8974 41.0245 27.9701C41.0552 28.0429 41.1 28.1089 41.1562 28.1643C41.2124 28.2198 41.279 28.2636 41.3522 28.2933C41.4253 28.323 41.5036 28.3381 41.5826 28.3375C41.7421 28.3364 41.8946 28.272 42.0066 28.1585C42.1186 28.0449 42.1809 27.8915 42.1798 27.7321C42.1787 27.5726 42.1143 27.4201 42.0007 27.3081C41.8872 27.1961 41.7338 27.1338 41.5743 27.1349ZM37.0059 30.3921C36.9269 30.3927 36.8488 30.4088 36.7761 30.4395C36.7033 30.4702 36.6374 30.5149 36.5819 30.5712C36.5265 30.6274 36.4826 30.694 36.4529 30.7672C36.4232 30.8403 36.4082 30.9186 36.4087 30.9976C36.4093 31.0765 36.4254 31.1546 36.4561 31.2274C36.4868 31.3001 36.5316 31.3661 36.5878 31.4216C36.644 31.477 36.7106 31.5208 36.7838 31.5506C36.8569 31.5803 36.9352 31.5953 37.0142 31.5947C37.1737 31.5936 37.3262 31.5292 37.4382 31.4157C37.5501 31.3021 37.6124 31.1488 37.6113 30.9893C37.6102 30.8298 37.5458 30.6773 37.4323 30.5653C37.3187 30.4533 37.1654 30.391 37.0059 30.3921Z" fill="#F6CAAE"/>
<path d="M32.0076 26.5698C32.3397 26.5698 32.6089 26.3006 32.6089 25.9685C32.6089 25.6364 32.3397 25.3672 32.0076 25.3672C31.6755 25.3672 31.4062 25.6364 31.4062 25.9685C31.4062 26.3006 31.6755 26.5698 32.0076 26.5698Z" fill="#EFA06F"/>
<defs>
<filter id="filter0_d_2297_1696" x="0" y="0" width="64" height="78" filterUnits="userSpaceOnUse" color-interpolation-filters="sRGB">
<feFlood flood-opacity="0" result="BackgroundImageFix"/>
<feColorMatrix in="SourceAlpha" type="matrix" values="0 0 0 0 0 0 0 0 0 0 0 0 0 0 0 0 0 0 127 0" result="hardAlpha"/>
<feMorphology radius="2" operator="dilate" in="SourceAlpha" result="effect1_dropShadow_2297_1696"/>
<feOffset/>
<feGaussianBlur stdDeviation="0.5"/>
<feComposite in2="hardAlpha" operator="out"/>
<feColorMatrix type="matrix" values="0 0 0 0 0 0 0 0 0 0 0 0 0 0 0 0 0 0 0.05 0"/>
<feBlend mode="normal" in2="BackgroundImageFix" result="effect1_dropShadow_2297_1696"/>
<feBlend mode="normal" in="SourceGraphic" in2="effect1_dropShadow_2297_1696" result="shape"/>
</filter>
</defs>
</svg>
