<svg width="65" height="78" viewBox="0 0 65 78" fill="none" xmlns="http://www.w3.org/2000/svg">
<g filter="url(#filter0_d_1885_2175)">
<rect x="3.5" y="3" width="58" height="72" rx="8" fill="white"/>
</g>
<path d="M22.316 55.04C24.572 55.04 26.268 56.448 26.268 58.432C26.268 60.4 24.572 61.808 22.316 61.808C20.06 61.808 18.364 60.4 18.364 58.432C18.364 56.448 20.06 55.04 22.316 55.04ZM22.316 56.768C21.228 56.768 20.412 57.376 20.412 58.432C20.412 59.488 21.228 60.096 22.316 60.096C23.404 60.096 24.204 59.488 24.204 58.432C24.204 57.376 23.404 56.768 22.316 56.768ZM28.316 54.608H30.46V62.016H28.316V54.608ZM20.572 62.624H30.46V66.688H22.684V68.48H20.604V65.152H28.348V64.272H20.572V62.624ZM20.604 67.616H30.828V69.264H20.604V67.616ZM36.3307 55.28H38.0908V56.704C38.0908 59.504 36.7308 62.048 33.8348 62.976L32.7948 61.296C35.2908 60.496 36.3307 58.576 36.3307 56.704V55.28ZM36.7628 55.28H38.5068V56.704C38.5068 58.528 39.5308 60.32 41.9468 61.056L40.9068 62.72C38.0748 61.824 36.7628 59.456 36.7628 56.704V55.28ZM35.0668 64.096H45.1788V69.424H43.0348V65.792H35.0668V64.096ZM43.0348 54.608H45.1788V63.44H43.0348V54.608Z" fill="#797878"/>
<path d="M17.2624 16.4796C16.9542 16.8526 16.9372 17.3625 16.9474 17.8339C16.9862 19.6284 17.2688 21.5155 18.4368 22.9392C19.91 24.7352 22.5259 25.4186 24.9418 25.2913C27.3577 25.1639 29.6622 24.3541 31.9694 23.6717C33.6276 23.1812 35.3072 22.7526 37.0067 22.4075C38.8357 22.036 40.8005 21.709 42.1581 20.5036C44.0274 18.844 43.969 15.6699 42.0399 14.0716C41.0677 13.2661 39.7903 12.8783 38.5516 12.5138C37.4947 12.2028 36.4256 11.8917 35.3206 11.8159C34.0193 11.7266 32.7208 11.9669 31.4411 12.206C26.853 13.063 22.1956 13.9423 18.0389 15.9517C17.7522 16.0902 17.4597 16.2408 17.2624 16.4796Z" fill="#EFEFEF"/>
<path d="M22.4058 22.5948C21.2797 21.223 20.231 17.118 20.1932 15.3892C20.1899 15.2673 20.1909 15.1453 20.1961 15.0234C19.4648 15.3047 18.7441 15.6108 18.0389 15.9518C17.7522 16.0904 17.4597 16.2409 17.2624 16.4797C16.9542 16.8528 16.9372 17.3627 16.9474 17.834C16.9862 19.6286 17.2688 21.5156 18.4368 22.9394C19.91 24.7354 22.5259 25.4188 24.9418 25.2915C25.8981 25.241 26.8368 25.0828 27.7654 24.8687C25.7135 24.7949 23.6424 24.1012 22.4058 22.5948Z" fill="#DDDDDD"/>
<path d="M40.2298 17.2136C36.3373 17.8243 32.113 17.3946 28.6835 19.2547C27.3051 20.0023 26.0934 21.1059 24.5489 21.4488C22.6042 21.8806 20.6129 20.9956 18.9944 19.9046C17.8854 19.157 16.8071 18.2255 16.4518 16.9799C16.0414 15.5411 16.6943 13.5469 17.7888 12.4637C18.8832 11.3805 20.3289 9.94504 21.7817 9.35168C24.2271 8.35303 26.712 7.89867 29.2863 7.25974C32.1753 6.54269 35.3168 6.87126 38.1927 7.59583C41.0687 8.3204 43.6924 10.5255 43.9701 13.3313C44.0579 14.2187 43.8908 15.169 43.2965 15.8654C42.5713 16.7153 41.3662 17.0353 40.2298 17.2136Z" fill="#FFE46A"/>
<path d="M43.9815 13.3334C43.9638 13.1559 43.9367 12.9794 43.9001 12.8047C43.7846 13.196 43.603 13.5656 43.3315 13.8831C42.5749 14.768 41.3168 15.1006 40.1305 15.2857C36.0669 15.9197 31.6561 15.4697 28.0767 17.4053C26.6381 18.1832 25.3737 19.3321 23.7614 19.6884C21.7313 20.1371 19.6518 19.2142 17.9612 18.0769C17.4186 17.7118 16.884 17.304 16.4297 16.8409C16.4408 16.888 16.4499 16.9353 16.4632 16.9821C16.8185 18.2276 17.5168 19.347 18.6258 20.0945C20.2444 21.1856 22.5692 22.3501 24.5139 21.9183C26.0583 21.5754 27.3091 20.772 28.6875 20.0244C32.117 18.1643 36.2343 18.4208 40.1267 17.8101C41.2631 17.6318 42.6496 17.0771 43.3747 16.2272C43.969 15.5308 44.0693 14.2209 43.9815 13.3334Z" fill="#FFCD00"/>
<path d="M34.225 19.1452L34.0039 15.8721L34.014 15.87C34.014 15.87 33.367 12.0705 31.514 10.201C30.036 8.7099 28.5279 7.39062 28.5279 7.39062L25.1172 8.2343C25.1172 8.2343 28.0547 10.9309 29.284 12.7235C30.2795 14.1752 30.5973 15.9377 30.6677 16.4104L30.6663 16.4106C30.6663 16.4106 31.0107 19.1962 30.9772 19.3153C30.9436 19.4345 31.036 24.0692 31.036 24.0692L34.108 23.0913C34.108 23.0913 34.2769 21.8716 34.2854 21.364C34.294 20.8565 34.225 19.1452 34.225 19.1452Z" fill="#3D4432"/>
<path d="M46.1117 22.7822L46.0621 22.5416C45.8368 21.4484 44.7581 20.7383 43.665 20.9636L43.4244 21.0132C42.3312 21.2384 41.6211 22.3172 41.8464 23.4103L41.896 23.6509C42.1213 24.7441 43.2 25.4542 44.2931 25.2289L44.5337 25.1793C45.6269 24.9541 46.337 23.8754 46.1117 22.7822Z" fill="#D45C20"/>
<path d="M46.2836 27.3525L46.234 27.1119C46.0087 26.0187 44.93 25.3086 43.8368 25.5339L43.5963 25.5835C42.5031 25.8088 41.793 26.8875 42.0183 27.9806L42.0678 28.2212C42.2931 29.3144 43.3719 30.0245 44.465 29.7992L44.7055 29.7496C45.7987 29.5244 46.5089 28.4457 46.2836 27.3525Z" fill="#EC7B30"/>
<path d="M38.458 26.2923L38.4563 26.0467C38.4486 24.9305 37.5291 24.0236 36.413 24.0313L36.1674 24.033C35.0512 24.0407 34.1444 24.9602 34.152 26.0763L34.1537 26.3219C34.1551 26.5171 34.1849 26.7111 34.2421 26.8978C33.1766 26.9624 32.3285 27.8578 32.336 28.9373L32.3377 29.1829C32.3453 30.299 33.2649 31.2059 34.381 31.1983L34.6266 31.1966C35.7427 31.1889 36.6496 30.2694 36.6419 29.1533L36.6402 28.9077C36.6388 28.7124 36.6091 28.5184 36.5519 28.3318C37.6173 28.2671 38.4654 27.3717 38.458 26.2923Z" fill="#E55525"/>
<path d="M33.1976 27.8681L33.1481 27.6275C32.9228 26.5343 31.844 25.8242 30.7509 26.0495L30.5104 26.0991C29.4171 26.3244 28.7071 27.4031 28.9323 28.4963L28.9819 28.7368C29.2072 29.83 30.2859 30.5401 31.3791 30.3148L31.6196 30.2653C32.7128 30.04 33.4229 28.9612 33.1976 27.8681Z" fill="#D45C20"/>
<path d="M41.6192 24.7731L41.5668 24.5194C41.3293 23.3663 40.1914 22.6172 39.0383 22.8549L38.7845 22.9072C38.7079 22.9229 38.6333 22.943 38.5605 22.9665C38.6138 22.4531 38.4993 21.9194 38.1971 21.4561L38.043 21.2198C37.3426 20.1457 35.8909 19.8401 34.8168 20.5404L34.5805 20.6945C33.616 21.3235 33.2717 22.5585 33.7188 23.5817C33.3884 23.4754 33.0361 23.4564 32.6962 23.5266L32.4557 23.5761C31.3625 23.8014 30.6524 24.8802 30.8777 25.9733L30.9272 26.2139C31.1525 27.3071 32.2312 28.0172 33.3244 27.7919L33.5649 27.7423C34.6581 27.517 35.3682 26.4383 35.1429 25.3451L35.0934 25.1046C35.0871 25.0749 35.0803 25.0454 35.0728 25.016C35.701 25.2897 36.4392 25.2845 37.0772 24.9552C37.0734 25.1135 37.0867 25.2744 37.12 25.4358L37.1723 25.6895C37.4099 26.8427 38.5478 27.5917 39.7009 27.354L39.9546 27.3017C41.1077 27.0641 41.8567 25.9263 41.6192 24.7731Z" fill="#F26C24"/>
<path d="M37.4313 29.2347C33.2461 29.2635 29.4258 29.5928 26.8271 28.4291C26.6279 28.9948 26.7854 29.7876 26.7899 30.4424L27.1254 34.8419C27.4237 37.3771 28.4762 37.7597 31.3757 38.6075C31.4037 38.6157 31.4328 38.6211 31.4607 38.6295C31.799 38.7322 34.2838 39.4277 39.0934 38.9058C43.2452 38.4552 45.9909 36.5569 45.9909 36.5569C48.1906 35.1401 47.9096 32.841 47.8923 30.3305L47.7805 26.9377C47.776 26.2829 47.5773 26.1958 47.3703 25.6328C44.7879 26.8322 41.6164 29.2059 37.4313 29.2347Z" fill="#444D38"/>
<path d="M29.8851 27.1228L29.8356 26.8823C29.6103 25.789 28.5315 25.079 27.4384 25.3042L27.1979 25.3538C26.1046 25.5791 25.3946 26.6578 25.6198 27.751L25.6694 27.9915C25.8947 29.0847 26.9734 29.7948 28.0666 29.5695L28.3071 29.52C29.4003 29.2948 30.1104 28.216 29.8851 27.1228ZM40.5088 27.4175L40.4561 27.1618C40.2166 25.9996 39.0699 25.2448 37.9078 25.4842L37.6521 25.5369C36.4899 25.7764 35.7351 26.9231 35.9745 28.0852L36.0272 28.341C36.2667 29.5031 37.4134 30.258 38.5755 30.0185L38.8312 29.9658C39.9934 29.7263 40.7483 28.5796 40.5088 27.4175ZM43.3503 21.2197L43.3007 20.9791C43.0754 19.8859 41.9967 19.1758 40.9035 19.4011L40.663 19.4507C39.5698 19.6759 38.8597 20.7547 39.085 21.8478L39.1345 22.0884C39.3598 23.1816 40.4385 23.8917 41.5317 23.6664L41.7722 23.6168C42.8654 23.3915 43.5755 22.3128 43.3503 21.2197Z" fill="#EC7B30"/>
<path d="M44.0286 27.0745C44.0205 25.9083 43.0598 24.9608 41.8937 24.9688L41.637 24.9706C40.4708 24.9786 39.5233 25.9393 39.5313 27.1055L39.5336 27.4311C39.5416 28.5973 40.5023 29.5449 41.6684 29.5369L41.9251 29.5351C43.0913 29.5271 44.0388 28.5663 44.0308 27.4002L44.0286 27.0745Z" fill="#F24D20"/>
<path d="M33.3199 22.2576C33.3123 21.1415 32.3927 20.2346 31.2766 20.2422L31.031 20.2439C29.9149 20.2516 29.008 21.1711 29.0157 22.2872L29.0174 22.5328C29.025 23.6489 29.9446 24.5558 31.0606 24.5482L31.3062 24.5465C32.4224 24.5388 33.3293 23.6193 33.3216 22.5032L33.3199 22.2576Z" fill="#ED6623"/>
<path d="M47.648 25.5779C47.6404 24.4618 46.7208 23.5549 45.6048 23.5625L45.3592 23.5642C44.243 23.5719 43.3361 24.4914 43.3438 25.6075L43.3455 25.8531C43.3531 26.9693 44.2727 27.8761 45.3888 27.8685L45.6344 27.8668C46.7505 27.8591 47.6574 26.9396 47.6497 25.8235L47.648 25.5779Z" fill="#E55525"/>
<path d="M44.648 24.2967C44.6404 23.1805 43.7208 22.2736 42.6048 22.2813L42.3592 22.283C41.243 22.2906 40.3361 23.2102 40.3438 24.3263L40.3455 24.5719C40.3531 25.688 41.2727 26.5949 42.3888 26.5872L42.6344 26.5855C43.7505 26.5779 44.6574 25.6583 44.6497 24.5423L44.648 24.2967Z" fill="#EB6523"/>
<path d="M40.841 22.4217C40.8333 21.3055 39.9138 20.3986 38.7977 20.4063L38.5521 20.408C37.436 20.4156 36.5291 21.3352 36.5367 22.4513L36.5384 22.6969C36.5461 23.813 37.4656 24.7199 38.5817 24.7122L38.8273 24.7105C39.9434 24.7029 40.8503 23.7833 40.8427 22.6673L40.841 22.4217ZM31.5777 24.4408C31.5701 23.3246 30.6505 22.4177 29.5345 22.4254L29.2889 22.4271C28.1727 22.4347 27.2658 23.3543 27.2735 24.4704L27.2752 24.716C27.2828 25.8321 28.2024 26.739 29.3185 26.7313L29.5641 26.7296C30.6802 26.722 31.5871 25.8024 31.5794 24.6864L31.5777 24.4408Z" fill="#F24D20"/>
<path d="M35.1742 22.4931L35.1246 22.2526C34.8993 21.1593 33.8206 20.4492 32.7275 20.6745L32.4869 20.7241C31.3937 20.9494 30.6836 22.0281 30.9089 23.1213L30.9585 23.3618C31.1838 24.455 32.2625 25.1651 33.3556 24.9398L33.5962 24.8903C34.6893 24.665 35.3995 23.5863 35.1742 22.4931Z" fill="#EC7B30"/>
<path d="M30.3591 22.1636C30.6912 22.1636 30.9604 21.8943 30.9604 21.5623C30.9604 21.2302 30.6912 20.9609 30.3591 20.9609C30.027 20.9609 29.7578 21.2302 29.7578 21.5623C29.7578 21.8943 30.027 22.1636 30.3591 22.1636Z" fill="#F7C2A9"/>
<path d="M29.7651 23.4681C29.7657 23.5471 29.7507 23.6254 29.721 23.6986C29.6912 23.7717 29.6474 23.8383 29.592 23.8946C29.5365 23.9508 29.4705 23.9955 29.3978 24.0262C29.325 24.057 29.2469 24.0731 29.168 24.0736C29.089 24.0741 29.0107 24.0591 28.9375 24.0294C28.8644 23.9997 28.7978 23.9559 28.7416 23.9004C28.6853 23.845 28.6406 23.779 28.6099 23.7062C28.5791 23.6335 28.5631 23.5554 28.5625 23.4764C28.5614 23.317 28.6237 23.1636 28.7357 23.05C28.8477 22.9365 29.0002 22.8721 29.1597 22.871C29.3192 22.8699 29.4725 22.9322 29.5861 23.0442C29.6996 23.1562 29.764 23.3087 29.7651 23.4681ZM45.6886 24.315C45.6096 24.3155 45.5315 24.3316 45.4588 24.3623C45.3861 24.3931 45.3201 24.4378 45.2646 24.494C45.2092 24.5503 45.1653 24.6169 45.1356 24.69C45.1059 24.7632 45.0909 24.8415 45.0914 24.9204C45.092 24.9994 45.1081 25.0775 45.1388 25.1502C45.1695 25.223 45.2143 25.289 45.2705 25.3444C45.3267 25.3999 45.3933 25.4437 45.4665 25.4734C45.5396 25.5031 45.6179 25.5182 45.6969 25.5176C45.8564 25.5165 46.0089 25.4521 46.1209 25.3386C46.2329 25.225 46.2952 25.0716 46.2941 24.9121C46.293 24.7527 46.2286 24.6002 46.115 24.4882C46.0015 24.3762 45.8481 24.3139 45.6886 24.315ZM44.1582 21.5781C44.0792 21.5787 44.0011 21.5948 43.9284 21.6255C43.8556 21.6562 43.7897 21.701 43.7342 21.7572C43.6787 21.8134 43.6349 21.88 43.6052 21.9532C43.5755 22.0263 43.5605 22.1046 43.561 22.1836C43.5616 22.2626 43.5777 22.3407 43.6084 22.4134C43.6391 22.4861 43.6838 22.5521 43.7401 22.6076C43.7963 22.663 43.8629 22.7069 43.936 22.7366C44.0092 22.7663 44.0875 22.7813 44.1665 22.7808C44.326 22.7797 44.4785 22.7153 44.5905 22.6017C44.7024 22.4882 44.7647 22.3348 44.7636 22.1753C44.7625 22.0158 44.6981 21.8633 44.5846 21.7513C44.471 21.6393 44.3177 21.577 44.1582 21.5781ZM40.7604 26.5176C40.6814 26.5181 40.6033 26.5342 40.5306 26.565C40.4579 26.5957 40.3919 26.6404 40.3364 26.6966C40.281 26.7529 40.2371 26.8195 40.2074 26.8926C40.1777 26.9658 40.1627 27.0441 40.1632 27.1231C40.1638 27.202 40.1799 27.2801 40.2106 27.3528C40.2413 27.4256 40.2861 27.4916 40.3423 27.547C40.3985 27.6025 40.4651 27.6463 40.5383 27.676C40.6114 27.7057 40.6897 27.7208 40.7687 27.7202C40.9282 27.7191 41.0807 27.6547 41.1927 27.5412C41.3047 27.4276 41.367 27.2742 41.3659 27.1148C41.3648 26.9553 41.3003 26.8028 41.1868 26.6908C41.0733 26.5788 40.9199 26.5165 40.7604 26.5176Z" fill="#F48165"/>
<path d="M41.7987 20.3862C41.7998 20.5457 41.7376 20.6991 41.6256 20.8126C41.5136 20.9262 41.3611 20.9906 41.2016 20.9917C41.0421 20.9928 40.8887 20.9305 40.7752 20.8185C40.6616 20.7065 40.5972 20.554 40.5961 20.3945C40.5956 20.3156 40.6106 20.2373 40.6403 20.1641C40.67 20.0909 40.7139 20.0244 40.7693 19.9681C40.8248 19.9119 40.8907 19.8672 40.9635 19.8364C41.0362 19.8057 41.1143 19.7896 41.1933 19.7891C41.2723 19.7885 41.3506 19.8035 41.4237 19.8333C41.4969 19.863 41.5635 19.9068 41.6197 19.9623C41.6759 20.0177 41.7207 20.0837 41.7514 20.1564C41.7821 20.2292 41.7982 20.3073 41.7987 20.3862ZM35.7456 20.8047C35.5861 20.8058 35.4336 20.8702 35.3216 20.9838C35.2096 21.0973 35.1474 21.2507 35.1485 21.4102C35.1496 21.5697 35.214 21.7222 35.3275 21.8342C35.4411 21.9462 35.5944 22.0085 35.7539 22.0074C35.9134 22.0063 36.0659 21.9419 36.1779 21.8283C36.2899 21.7148 36.3522 21.5614 36.3511 21.4019C36.35 21.2424 36.2856 21.0899 36.172 20.9779C36.0585 20.8659 35.9051 20.8036 35.7456 20.8047Z" fill="#F4B994"/>
<path d="M27.4448 26.7172C27.4453 26.7961 27.4303 26.8744 27.4006 26.9476C27.3709 27.0208 27.3271 27.0874 27.2716 27.1436C27.2162 27.1998 27.1502 27.2446 27.0774 27.2753C27.0047 27.306 26.9266 27.3221 26.8476 27.3226C26.7287 27.3235 26.6122 27.289 26.5129 27.2236C26.4135 27.1582 26.3358 27.0648 26.2896 26.9553C26.2433 26.8457 26.2306 26.7249 26.2529 26.6081C26.2753 26.4913 26.3319 26.3838 26.4154 26.2991C26.4989 26.2144 26.6056 26.1564 26.7221 26.1324C26.8386 26.1084 26.9596 26.1195 27.0698 26.1642C27.18 26.209 27.2744 26.2854 27.3412 26.3838C27.4079 26.4822 27.444 26.5982 27.4448 26.7172ZM38.3563 20.9766C38.1968 20.9777 38.0443 21.0421 37.9323 21.1556C37.8203 21.2692 37.758 21.4226 37.7591 21.582C37.7602 21.7415 37.8247 21.894 37.9382 22.006C38.0517 22.118 38.2051 22.1803 38.3646 22.1792C38.4436 22.1787 38.5217 22.1626 38.5944 22.1318C38.6672 22.1011 38.7331 22.0564 38.7886 22.0001C38.844 21.9439 38.8879 21.8773 38.9176 21.8042C38.9473 21.731 38.9623 21.6527 38.9618 21.5737C38.9612 21.4948 38.9451 21.4167 38.9144 21.3439C38.8837 21.2712 38.8389 21.2052 38.7827 21.1498C38.7265 21.0943 38.6599 21.0505 38.5867 21.0208C38.5136 20.991 38.4353 20.976 38.3563 20.9766ZM42.0743 23.1349C41.9953 23.1354 41.9172 23.1515 41.8445 23.1822C41.7718 23.213 41.7058 23.2577 41.6503 23.3139C41.5949 23.3702 41.551 23.4368 41.5213 23.5099C41.4916 23.5831 41.4766 23.6614 41.4771 23.7403C41.4777 23.8193 41.4938 23.8974 41.5245 23.9701C41.5552 24.0429 41.6 24.1089 41.6562 24.1643C41.7124 24.2198 41.779 24.2636 41.8522 24.2933C41.9253 24.323 42.0036 24.3381 42.0826 24.3375C42.2421 24.3364 42.3946 24.272 42.5066 24.1585C42.6186 24.0449 42.6809 23.8915 42.6798 23.7321C42.6787 23.5726 42.6143 23.4201 42.5007 23.3081C42.3872 23.1961 42.2338 23.1338 42.0743 23.1349ZM37.5059 26.3921C37.4269 26.3927 37.3488 26.4088 37.2761 26.4395C37.2033 26.4702 37.1374 26.5149 37.0819 26.5712C37.0265 26.6274 36.9826 26.694 36.9529 26.7672C36.9232 26.8403 36.9082 26.9186 36.9087 26.9976C36.9093 27.0765 36.9254 27.1546 36.9561 27.2274C36.9868 27.3001 37.0316 27.3661 37.0878 27.4216C37.144 27.477 37.2106 27.5208 37.2838 27.5506C37.3569 27.5803 37.4352 27.5953 37.5142 27.5947C37.6737 27.5936 37.8262 27.5292 37.9382 27.4157C38.0501 27.3021 38.1124 27.1488 38.1113 26.9893C38.1102 26.8298 38.0458 26.6773 37.9323 26.5653C37.8187 26.4533 37.6654 26.391 37.5059 26.3921Z" fill="#F6CAAE"/>
<path d="M32.5076 22.5698C32.8397 22.5698 33.1089 22.3006 33.1089 21.9685C33.1089 21.6364 32.8397 21.3672 32.5076 21.3672C32.1755 21.3672 31.9062 21.6364 31.9062 21.9685C31.9062 22.3006 32.1755 22.5698 32.5076 22.5698Z" fill="#EFA06F"/>
<defs>
<filter id="filter0_d_1885_2175" x="0.5" y="0" width="64" height="78" filterUnits="userSpaceOnUse" color-interpolation-filters="sRGB">
<feFlood flood-opacity="0" result="BackgroundImageFix"/>
<feColorMatrix in="SourceAlpha" type="matrix" values="0 0 0 0 0 0 0 0 0 0 0 0 0 0 0 0 0 0 127 0" result="hardAlpha"/>
<feMorphology radius="2" operator="dilate" in="SourceAlpha" result="effect1_dropShadow_1885_2175"/>
<feOffset/>
<feGaussianBlur stdDeviation="0.5"/>
<feComposite in2="hardAlpha" operator="out"/>
<feColorMatrix type="matrix" values="0 0 0 0 0 0 0 0 0 0 0 0 0 0 0 0 0 0 0.05 0"/>
<feBlend mode="normal" in2="BackgroundImageFix" result="effect1_dropShadow_1885_2175"/>
<feBlend mode="normal" in="SourceGraphic" in2="effect1_dropShadow_1885_2175" result="shape"/>
</filter>
</defs>
</svg>
