<svg width="65" height="78" viewBox="0 0 65 78" fill="none" xmlns="http://www.w3.org/2000/svg">
<g filter="url(#filter0_d_2059_1664)">
<rect x="3.5" y="3" width="58" height="72" rx="8" fill="white"/>
</g>
<path d="M23.772 62.048H25.9V64.656H23.772V62.048ZM18.14 61.344H31.532V63.024H18.14V61.344ZM24.812 64.08C28.012 64.08 29.948 65.04 29.948 66.752C29.948 68.464 28.012 69.424 24.812 69.424C21.596 69.424 19.66 68.464 19.66 66.752C19.66 65.04 21.596 64.08 24.812 64.08ZM24.812 65.68C22.828 65.68 21.82 66.016 21.82 66.752C21.82 67.472 22.828 67.824 24.812 67.824C26.796 67.824 27.804 67.472 27.804 66.752C27.804 66.016 26.796 65.68 24.812 65.68ZM23.372 56H25.26V56.368C25.26 58.592 23.26 60.416 19.436 60.768L18.7 59.104C21.948 58.832 23.372 57.52 23.372 56.368V56ZM24.412 56H26.3V56.368C26.3 57.536 27.708 58.832 30.972 59.104L30.236 60.768C26.428 60.416 24.412 58.608 24.412 56.368V56ZM19.356 55.216H30.332V56.896H19.356V55.216ZM36.3307 55.28H38.0908V56.704C38.0908 59.504 36.7308 62.048 33.8348 62.976L32.7948 61.296C35.2908 60.496 36.3307 58.576 36.3307 56.704V55.28ZM36.7628 55.28H38.5068V56.704C38.5068 58.528 39.5308 60.32 41.9468 61.056L40.9068 62.72C38.0748 61.824 36.7628 59.456 36.7628 56.704V55.28ZM35.0668 64.096H45.1788V69.424H43.0348V65.792H35.0668V64.096ZM43.0348 54.608H45.1788V63.44H43.0348V54.608Z" fill="#797878"/>
<path d="M47.125 25.5844C47.125 30.3656 40.5438 34.2469 32.5 34.2469C24.4 34.2469 17.875 30.3656 17.875 25.5844C17.875 20.8031 24.4 16.9219 32.5 16.9219C40.5438 16.9219 47.125 20.8031 47.125 25.5844Z" fill="#94989B"/>
<path d="M49.375 22.3813C49.375 28.2313 41.8375 33.0125 32.5 33.0125C23.1625 33.0125 15.625 28.2875 15.625 22.3813C15.625 16.475 23.1625 11.75 32.5 11.75C41.8375 11.75 49.375 16.475 49.375 22.3813Z" fill="#C7D7D7"/>
<path d="M46.3969 21.4234C46.3969 17.5422 40.1531 14.3359 32.5031 14.3359C24.8531 14.3359 18.6094 17.4859 18.6094 21.4234C18.6094 23.6172 20.5781 25.5859 23.7281 26.8797C23.8969 27.0484 24.0656 27.4422 23.7844 28.1172C23.3344 29.2422 24.9656 30.7047 26.4281 29.8609C27.8906 29.0172 30.0281 29.2984 30.8156 29.8609C31.6031 30.4234 33.8531 30.6484 35.0344 29.8609C36.2156 29.0734 37.1156 28.5109 39.0844 28.5109C41.0531 28.5109 42.5719 26.4859 43.5844 25.6984C45.3844 24.5172 46.3969 23.0547 46.3969 21.4234Z" fill="#BA5327"/>
<path d="M43.9788 20.7519C43.135 19.3456 41.2788 21.3144 40.21 21.0331C37.8475 20.4144 39.5913 23.8456 40.5475 24.0144C41.6725 24.2394 44.8225 22.1581 43.9788 20.7519ZM35.5975 24.0144C33.91 23.9581 33.685 23.4519 32.8413 24.2394C31.0413 25.9269 36.61 27.8394 37.285 27.1644C38.0725 26.3206 37.285 24.0706 35.5975 24.0144ZM38.6913 16.5331C36.7225 16.4769 36.61 16.1394 35.6538 17.0956C33.5163 19.1206 36.3288 21.3144 37.1163 20.4706C38.0163 19.4581 40.6038 16.5894 38.6913 16.5331ZM29.2975 23.0581C27.7225 22.8894 25.6413 23.9019 25.4725 25.3081C25.3038 26.6581 26.26 27.6706 27.385 27.3331C28.51 26.9956 29.1288 25.3081 29.6913 24.7456C30.2538 24.1831 30.1975 23.1706 29.2975 23.0581Z" fill="#FBBF67"/>
<path d="M31.9388 12.7642C31.2076 12.6517 30.7013 14.058 29.9701 13.9455C29.4638 13.8892 28.3388 12.8205 27.8888 12.933C27.3263 13.0455 26.5951 14.6767 26.0326 14.8455C25.2451 15.0142 24.9076 13.4392 24.1201 13.6642C22.2638 14.1705 21.2513 17.2642 19.1701 17.2642C17.5951 17.3205 15.9638 22.8892 17.6513 22.8892C20.6888 22.8892 20.4076 24.7455 20.8013 24.7455C21.2513 24.8017 21.2513 23.283 21.5888 23.058C22.0388 22.7205 23.3326 23.3392 23.7263 22.9455C24.0638 22.6642 23.7263 21.4267 24.0638 21.1455C24.4576 20.808 25.6951 21.5392 26.2013 21.3142C26.4826 21.2017 26.5951 19.908 26.8201 20.133C28.5076 21.933 29.6326 21.2017 29.9701 20.4142C30.1951 19.8517 29.1826 18.4455 29.6326 17.9955C30.0826 17.5455 31.1513 19.5142 31.7138 19.233C31.9388 19.1205 31.7701 18.3892 31.9388 18.2767C32.2763 17.9955 33.3451 18.8392 33.6263 18.4455C33.7951 18.1642 32.9513 17.3767 33.1201 17.0955C33.3451 16.758 34.3576 17.433 34.6951 17.208C35.2576 16.9267 35.8201 15.1267 35.7076 14.508C35.4263 13.5517 32.7263 12.8767 31.9388 12.7642Z" fill="#FFFBE9"/>
<path d="M22.7665 15.2971C22.0915 16.2533 21.8665 17.2658 22.204 17.5471C22.5415 17.8283 23.329 17.3221 24.004 16.3658C24.679 15.4096 24.904 14.3971 24.5665 14.1158C24.229 13.8346 23.4415 14.3408 22.7665 15.2971ZM24.9603 20.3596C24.004 19.8533 23.0478 19.7408 22.879 20.1908C22.7103 20.5846 23.329 21.3721 24.2853 21.8783C25.2415 22.3846 26.1978 22.4971 26.3665 22.0471C26.5353 21.5971 25.9165 20.8658 24.9603 20.3596ZM19.729 19.0658C18.8853 19.7408 18.4353 20.6408 18.7165 20.9783C18.829 21.1471 19.504 20.5283 19.3353 22.1033C19.2228 23.1158 20.5165 22.1033 21.304 21.3721C23.104 19.5721 21.6978 17.4908 19.729 19.0658ZM28.7853 18.4471C29.2353 18.3908 28.5603 17.1533 27.7728 16.4221C26.929 15.6908 25.8603 15.3533 25.804 15.8033C25.6915 16.8721 25.129 16.5346 25.0165 16.7596C24.7915 17.1533 25.2978 18.0533 26.1978 18.6721C27.0415 19.2908 27.9415 19.5158 28.1665 19.1221C28.2228 18.9533 27.7728 18.5033 28.7853 18.4471ZM33.3415 15.5221C34.1853 14.8471 34.6353 13.9471 34.354 13.6096C34.0728 13.2158 32.1603 14.6221 30.3603 14.1158C29.3478 13.8346 28.3915 14.4533 28.3915 14.9033C28.3915 15.2408 28.7853 15.5221 29.404 15.6908C29.1228 16.1971 29.0103 16.6471 29.2353 16.8721C29.5165 17.2096 30.4165 16.8721 31.204 16.1408C31.204 15.9721 32.4978 16.1971 33.3415 15.5221Z" fill="#E8E1D6"/>
<path d="M23.9484 18.725C23.6109 17.6563 22.5984 16.925 22.5984 16.925C22.5984 16.925 22.7109 18.05 22.8234 18.5563C21.6984 18.1063 21.6984 15.9125 21.6984 15.9125C21.6984 15.9125 20.9672 16.4187 21.0234 17.2625C19.7859 16.1937 18.7734 16.7 18.7734 16.7C18.7734 16.7 20.2922 17.6563 20.5172 18.3313C19.6734 18.3875 19.1672 18.725 18.8297 19.5125C18.8297 19.5125 20.5172 18.6125 21.8109 19.2875C21.3047 19.7375 21.5859 20.8625 21.5859 20.8625C23.6109 18.5 24.9047 20.6375 25.8047 20.0188C25.1297 18.8938 23.9484 18.725 23.9484 18.725ZM35.6484 13.0438C35.6484 13.0438 34.4672 13.8875 33.9609 13.775C34.2422 13.0438 34.2422 12.5375 33.8484 12.0312C33.8484 12.0312 33.7359 13.7187 32.8359 14.45C32.7234 13.8875 31.9359 13.6625 31.9359 13.6625C32.6672 16.1938 30.8109 16.3625 30.8109 17.2625C31.8234 17.15 32.3297 16.3063 32.3297 16.3063C33.1172 16.475 33.9609 15.9688 33.9609 15.9688C33.9609 15.9688 33.2297 15.6313 32.8359 15.5188C33.5109 14.8438 34.9172 15.6313 34.9172 15.6313C34.9172 15.6313 34.9172 14.8438 34.3547 14.5625C35.5922 14 35.6484 13.0438 35.6484 13.0438Z" fill="#699635"/>
<defs>
<filter id="filter0_d_2059_1664" x="0.5" y="0" width="64" height="78" filterUnits="userSpaceOnUse" color-interpolation-filters="sRGB">
<feFlood flood-opacity="0" result="BackgroundImageFix"/>
<feColorMatrix in="SourceAlpha" type="matrix" values="0 0 0 0 0 0 0 0 0 0 0 0 0 0 0 0 0 0 127 0" result="hardAlpha"/>
<feMorphology radius="2" operator="dilate" in="SourceAlpha" result="effect1_dropShadow_2059_1664"/>
<feOffset/>
<feGaussianBlur stdDeviation="0.5"/>
<feComposite in2="hardAlpha" operator="out"/>
<feColorMatrix type="matrix" values="0 0 0 0 0 0 0 0 0 0 0 0 0 0 0 0 0 0 0.05 0"/>
<feBlend mode="normal" in2="BackgroundImageFix" result="effect1_dropShadow_2059_1664"/>
<feBlend mode="normal" in="SourceGraphic" in2="effect1_dropShadow_2059_1664" result="shape"/>
</filter>
</defs>
</svg>
