<svg width="20" height="24" viewBox="0 0 20 24" fill="none" xmlns="http://www.w3.org/2000/svg">
<path d="M11.4314 0.729403C11.0381 0.350013 10.528 0.140137 9.99929 0.140137C9.47054 0.140137 8.96046 0.350013 8.56714 0.729403L0.71 8.30905C0.486604 8.52473 0.307949 8.78844 0.185632 9.08305C0.0633145 9.37766 6.87969e-05 9.6966 0 10.0192V20.8396C0 21.4497 0.225765 22.0349 0.627628 22.4663C1.02949 22.8978 1.57454 23.1401 2.14286 23.1401H5C5.56832 23.1401 6.11337 22.8978 6.51523 22.4663C6.91709 22.0349 7.14286 21.4497 7.14286 20.8396V14.7047C7.14286 14.5013 7.21811 14.3062 7.35207 14.1624C7.48602 14.0186 7.6677 13.9378 7.85714 13.9378H12.1429C12.3323 13.9378 12.514 14.0186 12.6479 14.1624C12.7819 14.3062 12.8571 14.5013 12.8571 14.7047V20.8396C12.8571 21.4497 13.0829 22.0349 13.4848 22.4663C13.8866 22.8978 14.4317 23.1401 15 23.1401H17.8571C18.4255 23.1401 18.9705 22.8978 19.3724 22.4663C19.7742 22.0349 20 21.4497 20 20.8396V10.0192C19.9999 9.6966 19.9367 9.37766 19.8144 9.08305C19.6921 8.78844 19.5134 8.52473 19.29 8.30905L11.4329 0.729403H11.4314Z" fill="white"/>
</svg>
