<svg width="22" height="22" viewBox="0 0 22 22" fill="none" xmlns="http://www.w3.org/2000/svg">
<path fill-rule="evenodd" clip-rule="evenodd" d="M0 11C0 4.92487 4.92487 0 11 0C17.0751 0 22 4.92487 22 11C22 17.0751 17.0751 22 11 22C4.92487 22 0 17.0751 0 11ZM16.5 7C16.7929 6.70711 16.7929 6.29289 16.5 6C16.2071 5.70711 15.7929 5.70711 15.5 6L9.25 13.1893L6.78033 10.7197C6.48744 10.4268 6.01256 10.4268 5.71967 10.7197C5.42678 11.0126 5.42678 11.4874 5.71967 11.7803L9 17C9.29289 17.2929 10 17.5 10.5 17L16.5 7Z" fill="#85E861"/>
</svg>
