<svg width="13" height="12" viewBox="0 0 13 12" fill="none" xmlns="http://www.w3.org/2000/svg">
<path d="M7.36858 1.52306L7.36836 1.5233L6.86817 2.06704L6.50019 2.46707L6.1322 2.06704L5.63202 1.5233L5.63146 1.5227C4.51765 0.307902 2.75805 0.148259 1.59666 1.19219C0.213501 2.43769 0.135982 4.6952 1.37937 6.05125L6.29207 11.4026C6.29208 11.4026 6.29209 11.4026 6.2921 11.4027C6.29212 11.4027 6.29214 11.4027 6.29216 11.4027C6.41139 11.5324 6.58645 11.5324 6.70568 11.4027C6.7057 11.4027 6.70571 11.4027 6.70573 11.4027C6.70574 11.4026 6.70576 11.4026 6.70577 11.4026L11.6187 6.05103L11.6188 6.05093C12.8643 4.69499 12.7868 2.43785 11.4039 1.19235L7.36858 1.52306ZM7.36858 1.52306C8.48518 0.307637 10.2424 0.148445 11.4036 1.19209L7.36858 1.52306Z" fill="#282828" stroke="#282828"/>
</svg>
