<svg width="29" height="29" viewBox="0 0 29 29" fill="none" xmlns="http://www.w3.org/2000/svg">
<path d="M26.2812 16.5816C26.2812 20.4332 20.9797 23.5598 14.5 23.5598C7.975 23.5598 2.71875 20.4332 2.71875 16.5816C2.71875 12.7301 7.975 9.60352 14.5 9.60352C20.9797 9.60352 26.2812 12.7301 26.2812 16.5816Z" fill="#94989B"/>
<path d="M28.0938 14.0016C28.0938 18.7141 22.0219 22.5656 14.5 22.5656C6.97812 22.5656 0.90625 18.7594 0.90625 14.0016C0.90625 9.24375 6.97812 5.4375 14.5 5.4375C22.0219 5.4375 28.0938 9.24375 28.0938 14.0016Z" fill="#C7D7D7"/>
<path d="M25.693 13.2299C25.693 10.1033 20.6633 7.52051 14.5008 7.52051C8.33828 7.52051 3.30859 10.058 3.30859 13.2299C3.30859 14.9971 4.89453 16.583 7.43203 17.6252C7.56797 17.7611 7.70391 18.0783 7.47734 18.6221C7.11484 19.5283 8.42891 20.7064 9.60703 20.0268C10.7852 19.3471 12.507 19.5736 13.1414 20.0268C13.7758 20.4799 15.5883 20.6611 16.5398 20.0268C17.4914 19.3924 18.2164 18.9393 19.8023 18.9393C21.3883 18.9393 22.6117 17.308 23.4273 16.6736C24.8773 15.7221 25.693 14.5439 25.693 13.2299Z" fill="#BA5327"/>
<path d="M23.7477 12.6888C23.068 11.556 21.5727 13.1419 20.7117 12.9154C18.8086 12.4169 20.2133 15.181 20.9836 15.3169C21.8899 15.4982 24.4274 13.8216 23.7477 12.6888ZM16.9961 15.3169C15.6367 15.2716 15.4555 14.8638 14.7758 15.4982C13.3258 16.8575 17.8117 18.3982 18.3555 17.8544C18.9899 17.1747 18.3555 15.3622 16.9961 15.3169ZM19.4883 9.29036C17.9024 9.24504 17.8117 8.97317 17.0414 9.74348C15.3195 11.3747 17.5852 13.1419 18.2195 12.4622C18.9445 11.6466 21.0289 9.33567 19.4883 9.29036ZM11.9211 14.5466C10.6524 14.4107 8.97579 15.2263 8.83985 16.3591C8.70392 17.4466 9.47423 18.2622 10.3805 17.9904C11.2867 17.7185 11.7852 16.3591 12.2383 15.906C12.6914 15.4529 12.6461 14.6372 11.9211 14.5466Z" fill="#FBBF67"/>
<path d="M14.0492 6.25419C13.4602 6.16356 13.0524 7.29638 12.4633 7.20575C12.0555 7.16044 11.1492 6.2995 10.7867 6.39013C10.3336 6.48075 9.74455 7.79481 9.29142 7.93075C8.65705 8.06669 8.38517 6.79794 7.7508 6.97919C6.25548 7.387 5.43986 9.87919 3.7633 9.87919C2.49455 9.9245 1.18048 14.4104 2.53986 14.4104C4.98673 14.4104 4.76017 15.9058 5.07736 15.9058C5.43986 15.9511 5.43986 14.7276 5.71173 14.5464C6.07423 14.2745 7.11642 14.7729 7.43361 14.4558C7.70548 14.2292 7.43361 13.2323 7.70548 13.0058C8.02267 12.7339 9.01955 13.3229 9.42736 13.1417C9.65392 13.0511 9.74455 12.0089 9.9258 12.1901C11.2852 13.6401 12.1914 13.0511 12.4633 12.4167C12.6445 11.9636 11.8289 10.8308 12.1914 10.4683C12.5539 10.1058 13.4149 11.6917 13.868 11.4651C14.0492 11.3745 13.9133 10.7854 14.0492 10.6948C14.3211 10.4683 15.182 11.1479 15.4086 10.8308C15.5445 10.6042 14.8649 9.96982 15.0008 9.74325C15.182 9.47138 15.9977 10.0151 16.2695 9.83388C16.7227 9.60732 17.1758 8.15731 17.0852 7.65888C16.8586 6.88856 14.6836 6.34481 14.0492 6.25419Z" fill="#FFFBE9"/>
<path d="M6.65805 8.2951C6.1143 9.06541 5.93305 9.88104 6.20493 10.1076C6.4768 10.3342 7.11118 9.92635 7.65493 9.15604C8.19868 8.38573 8.37993 7.5701 8.10805 7.34354C7.83618 7.11698 7.2018 7.52479 6.65805 8.2951ZM8.42524 12.3732C7.65493 11.9654 6.88462 11.8748 6.74868 12.2373C6.61274 12.5545 7.11118 13.1889 7.88149 13.5967C8.6518 14.0045 9.42212 14.0951 9.55805 13.7326C9.69399 13.3701 9.19555 12.781 8.42524 12.3732ZM4.21118 11.331C3.53149 11.8748 3.16899 12.5998 3.39555 12.8717C3.48618 13.0076 4.02993 12.5092 3.89399 13.7779C3.80337 14.5935 4.84555 13.7779 5.47993 13.1889C6.92993 11.7389 5.79712 10.0623 4.21118 11.331ZM11.5065 10.8326C11.869 10.7873 11.3252 9.79041 10.6909 9.20135C10.0112 8.61229 9.15024 8.34041 9.10493 8.70291C9.0143 9.56385 8.56118 9.29198 8.47055 9.47323C8.2893 9.79041 8.69712 10.5154 9.42212 11.0139C10.1018 11.5123 10.8268 11.6935 11.0081 11.3764C11.0534 11.2404 10.6909 10.8779 11.5065 10.8326ZM15.1768 8.47635C15.8565 7.9326 16.219 7.2076 15.9924 6.93573C15.7659 6.61854 14.2252 7.75135 12.7752 7.34354C11.9596 7.11698 11.1893 7.61541 11.1893 7.97791C11.1893 8.24979 11.5065 8.47635 12.0049 8.61229C11.7784 9.0201 11.6877 9.3826 11.869 9.56385C12.0956 9.83573 12.8206 9.56385 13.4549 8.97479C13.4549 8.83885 14.4971 9.0201 15.1768 8.47635Z" fill="#E8E1D6"/>
<path d="M7.61016 11.0563C7.33828 10.1953 6.52266 9.60625 6.52266 9.60625C6.52266 9.60625 6.61328 10.5125 6.70391 10.9203C5.79766 10.5578 5.79766 8.79063 5.79766 8.79063C5.79766 8.79063 5.20859 9.19844 5.25391 9.87812C4.25703 9.01719 3.44141 9.425 3.44141 9.425C3.44141 9.425 4.66484 10.1953 4.84609 10.7391C4.16641 10.7844 3.75859 11.0563 3.48672 11.6906C3.48672 11.6906 4.84609 10.9656 5.88828 11.5094C5.48047 11.8719 5.70703 12.7781 5.70703 12.7781C7.33828 10.875 8.38047 12.5969 9.10547 12.0984C8.56172 11.1922 7.61016 11.0563 7.61016 11.0563ZM17.0352 6.47969C17.0352 6.47969 16.0836 7.15938 15.6758 7.06875C15.9023 6.47969 15.9023 6.07188 15.5852 5.66406C15.5852 5.66406 15.4945 7.02344 14.7695 7.6125C14.6789 7.15937 14.0445 6.97812 14.0445 6.97812C14.6336 9.01719 13.1383 9.15312 13.1383 9.87812C13.9539 9.7875 14.3617 9.10781 14.3617 9.10781C14.9961 9.24375 15.6758 8.83594 15.6758 8.83594C15.6758 8.83594 15.0867 8.56406 14.7695 8.47344C15.3133 7.92969 16.4461 8.56406 16.4461 8.56406C16.4461 8.56406 16.4461 7.92969 15.993 7.70313C16.9898 7.25 17.0352 6.47969 17.0352 6.47969Z" fill="#699635"/>
</svg>
