<svg width="29" height="16" viewBox="0 0 29 16" fill="none" xmlns="http://www.w3.org/2000/svg">
<path d="M15.6715 5.5C15.1423 4.0381 14.1597 2.77203 12.8595 1.87645C11.5592 0.980879 10.0053 0.499943 8.41218 0.5C4.15935 0.5 0.703125 3.8625 0.703125 8C0.703125 12.1375 4.15935 15.5 8.41218 15.5C10.0053 15.5001 11.5592 15.0191 12.8595 14.1235C14.1597 13.228 15.1423 11.9619 15.6715 10.5H21.2606V15.5H26.4V10.5H28.9697V5.5H15.6715ZM8.41218 10.5C6.99886 10.5 5.8425 9.375 5.8425 8C5.8425 6.625 6.99886 5.5 8.41218 5.5C9.82551 5.5 10.9819 6.625 10.9819 8C10.9819 9.375 9.82551 10.5 8.41218 10.5Z" fill="#FFC700"/>
</svg>
