<svg width="100" height="100" viewBox="0 0 100 100" fill="none" xmlns="http://www.w3.org/2000/svg">
<circle cx="50" cy="50" r="50" fill="#FEE500"/>
<path d="M50.1481 24.1313C34.5921 24.1313 22.0469 34.1674 22.0469 46.3513C22.0469 54.2598 27.2657 61.1847 35.0939 65.139L32.4443 75.0347C32.3944 75.183 32.3867 75.3422 32.4221 75.4946C32.4576 75.6471 32.5348 75.7866 32.6451 75.8977C32.8059 76.0395 33.0128 76.1179 33.2272 76.1185C33.4049 76.1042 33.5736 76.034 33.7089 75.9178L45.11 68.2302C46.7929 68.4625 48.4894 68.583 50.1883 68.5913C65.7242 68.5913 78.2895 58.5553 78.2895 46.3513C78.2895 34.1473 65.6841 24.1313 50.1481 24.1313Z" fill="#392020"/>
<path d="M31.8806 42.8388H28.8095C28.4289 42.8499 28.0529 42.7524 27.7256 42.5578C27.5803 42.4667 27.4553 42.3466 27.3586 42.2049C27.2619 42.0633 27.1955 41.9032 27.1636 41.7347C27.1538 41.6279 27.1538 41.5206 27.1636 41.4138C27.154 41.2139 27.1928 41.0145 27.2767 40.8328C27.3606 40.6511 27.487 40.4924 27.6453 40.37C27.9952 40.1165 28.4176 39.9826 28.8496 39.9885H38.103C38.4866 39.975 38.8651 40.0802 39.1869 40.2896C39.3356 40.3766 39.4632 40.4957 39.5604 40.638C39.6576 40.7803 39.722 40.9424 39.7489 41.1126C39.7587 41.2127 39.7587 41.3136 39.7489 41.4138C39.7584 41.6165 39.7197 41.8186 39.6359 42.0035C39.5522 42.1884 39.4258 42.3508 39.2672 42.4774C38.9258 42.7305 38.5075 42.8583 38.0829 42.8388H35.1122V53.3969C35.1243 53.6218 35.0895 53.8467 35.01 54.0575C34.9305 54.2682 34.8081 54.4603 34.6505 54.6213C34.4994 54.7752 34.3178 54.8958 34.1173 54.9753C33.9168 55.0548 33.7019 55.0914 33.4863 55.0829C33.1094 55.0936 32.7404 54.9732 32.4426 54.7418C32.159 54.5158 31.9666 54.1949 31.9006 53.8384C31.8808 53.6919 31.8808 53.5434 31.9006 53.3969L31.8806 42.8388Z" fill="#FEE500"/>
<path d="M40.6348 40.7712C40.7231 40.4409 40.9304 40.1549 41.2169 39.9683C41.5221 39.7953 41.87 39.7118 42.2205 39.7274H42.9833C43.3552 39.7141 43.7235 39.8045 44.0471 39.9884C44.39 40.219 44.6336 40.57 44.7296 40.9719L48.744 52.3128C48.8481 52.6087 48.9352 52.9104 49.005 53.2162C49.0118 53.3433 49.0118 53.4704 49.005 53.5975C49.0117 53.7931 48.9757 53.9879 48.8995 54.1681C48.8232 54.3484 48.7085 54.5099 48.5634 54.6413C48.4227 54.7854 48.2539 54.899 48.0674 54.975C47.8809 55.051 47.6808 55.0876 47.4795 55.0828C47.1699 55.1136 46.8589 55.0393 46.5968 54.8718C46.3346 54.7043 46.1364 54.4534 46.0342 54.1596L45.1912 51.6907H39.9122L39.0692 54.1596C38.9694 54.4592 38.7689 54.715 38.5017 54.8834C38.2345 55.0517 37.9172 55.1222 37.6039 55.0828C37.2644 55.0917 36.932 54.9856 36.6605 54.7817C36.3959 54.5713 36.2175 54.2716 36.1587 53.9388C36.148 53.8253 36.148 53.711 36.1587 53.5975C36.1242 53.3982 36.1242 53.1947 36.1587 52.9955C36.1587 52.7747 36.2992 52.5336 36.3795 52.3128L40.6348 40.7712ZM42.642 43.4008L40.7351 49.4225H44.5288L42.642 43.4008Z" fill="#FEE500"/>
<path d="M49.4627 41.414C49.4423 40.9635 49.601 40.5234 49.9043 40.1896C50.0584 40.0341 50.2435 39.9126 50.4474 39.8331C50.6514 39.7536 50.8698 39.7176 51.0885 39.7277C51.4646 39.7234 51.8315 39.8434 52.1323 40.0691C52.4111 40.3045 52.5962 40.632 52.6542 40.9923C52.6739 41.1321 52.6739 41.2742 52.6542 41.414V51.9721H58.1741C58.5567 51.9671 58.9328 52.0713 59.258 52.2729C59.4041 52.363 59.5297 52.483 59.6265 52.6248C59.7233 52.7666 59.7892 52.9271 59.82 53.096C59.82 53.096 59.82 53.2968 59.82 53.3971C59.8295 53.597 59.7907 53.7961 59.7069 53.9778C59.623 54.1595 59.4966 54.3185 59.3383 54.4409C58.9883 54.6943 58.566 54.828 58.1339 54.8222H51.3495C50.9174 54.85 50.4879 54.7375 50.1251 54.5012C49.8005 54.2585 49.5843 53.8981 49.5229 53.4976C49.5082 53.277 49.5082 53.0556 49.5229 52.835L49.4627 41.414Z" fill="#FEE500"/>
<path d="M60.1822 41.414C60.1702 40.9649 60.3278 40.5277 60.6238 40.1897C60.9246 39.9163 61.3105 39.7549 61.7164 39.7329C62.1222 39.711 62.5233 39.8298 62.8518 40.0691C63.1367 40.3025 63.3289 40.6298 63.3937 40.9924C63.4037 41.1327 63.4037 41.2737 63.3937 41.414V46.3317L68.472 40.4705C68.6677 40.2705 68.8755 40.083 69.0943 39.9086C69.3004 39.7858 69.5369 39.7231 69.7767 39.7278C70.1276 39.7259 70.4706 39.8309 70.7603 40.0289C70.8968 40.1208 71.0133 40.2394 71.103 40.3773C71.1926 40.5153 71.2536 40.6698 71.2822 40.8319C71.2903 40.8716 71.2903 40.9127 71.2822 40.9524C71.2724 40.9987 71.2724 41.0465 71.2822 41.0928C71.2815 41.304 71.2262 41.5116 71.1216 41.6951C71.0151 41.8894 70.8872 42.071 70.7402 42.2368L67.4082 45.8901L71.4227 52.1125V52.3132C71.6311 52.6008 71.7936 52.9193 71.9044 53.2568V53.357C71.9276 53.5895 71.8941 53.8243 71.8067 54.0411C71.7193 54.2578 71.5806 54.45 71.4026 54.6014C71.0678 54.8545 70.6581 54.9888 70.2384 54.9829C69.9595 54.9944 69.6826 54.9319 69.4355 54.8021C69.1682 54.6228 68.9479 54.3819 68.7932 54.0996L65.0598 48.0779L63.2733 49.9448V53.2967C63.2853 53.7458 63.1277 54.183 62.8317 54.5211C62.6731 54.6761 62.4844 54.7972 62.2773 54.8766C62.0702 54.956 61.849 54.9922 61.6274 54.9829C61.257 54.9907 60.8954 54.87 60.6037 54.6416C60.3202 54.4156 60.1277 54.095 60.0618 53.7385C60.0419 53.5919 60.0419 53.4432 60.0618 53.2967L60.1822 41.414Z" fill="#FEE500"/>
</svg>
