<svg width="21" height="22" viewBox="0 0 21 22" fill="none" xmlns="http://www.w3.org/2000/svg">
<path d="M20.7144 18.6558L16.6248 14.567C16.4403 14.3824 16.1901 14.2799 15.9275 14.2799H15.2589C16.391 12.8322 17.0637 11.0113 17.0637 9.03042C17.0637 4.31818 13.2449 0.5 8.53187 0.5C3.81883 0.5 0 4.31818 0 9.03042C0 13.7427 3.81883 17.5608 8.53187 17.5608C10.5131 17.5608 12.3343 16.8882 13.7823 15.7563V16.4248C13.7823 16.6873 13.8848 16.9375 14.0694 17.122L18.1589 21.2109C18.5445 21.5964 19.168 21.5964 19.5495 21.2109L20.7103 20.0502C21.0959 19.6647 21.0959 19.0414 20.7144 18.6558ZM8.53187 14.2799C5.63186 14.2799 3.28149 11.934 3.28149 9.03042C3.28149 6.1309 5.62775 3.78093 8.53187 3.78093C11.4319 3.78093 13.7823 6.12679 13.7823 9.03042C13.7823 11.9299 11.436 14.2799 8.53187 14.2799Z" fill="#6D6D6D"/>
</svg>
