<svg width="72" height="40" viewBox="0 0 72 40" fill="none" xmlns="http://www.w3.org/2000/svg">
<path d="M9.32 8.16H16.64V20.16H9.32V8.16ZM14.16 10.24H11.8V18.08H14.16V10.24ZM22.18 6.26H24.72V24.78H22.18V6.26ZM15.3 12.98H19.46V15.12H15.3V12.98ZM18.4 6.54H20.9V23.94H18.4V6.54ZM34.2384 18.12H36.8784V24.8H34.2384V18.12ZM27.2184 17.34H43.9584V19.5H27.2184V17.34ZM34.2184 9.58H36.5584V10.02C36.5584 13.12 33.8784 15.82 28.9784 16.4L28.0584 14.32C32.2384 13.84 34.2184 11.74 34.2184 10.02V9.58ZM34.5584 9.58H36.8984V10.02C36.8984 11.7 38.8984 13.84 43.0584 14.32L42.1184 16.4C37.2384 15.84 34.5584 13.04 34.5584 10.02V9.58ZM28.7184 8.38H42.4384V10.48H28.7184V8.38ZM34.2384 6.3H36.8784V9.1H34.2384V6.3ZM58.3569 6.24H61.0169V24.82H58.3569V6.24ZM46.5969 18.34H48.2369C51.5169 18.34 54.1369 18.22 57.0769 17.72L57.3369 19.86C54.3369 20.4 51.6169 20.5 48.2369 20.5H46.5969V18.34ZM46.5769 7.82H55.3169V14.98H49.2969V19.14H46.5969V12.88H52.5969V9.94H46.5769V7.82Z" fill="black"/>
<path d="M3.10141 29.58H6.76141V35.58H3.10141V29.58ZM5.52141 30.62H4.34141V34.54H5.52141V30.62ZM9.53141 28.63H10.8014V37.89H9.53141V28.63ZM6.09141 31.99H8.17141V33.06H6.09141V31.99ZM7.64141 28.77H8.89141V37.47H7.64141V28.77ZM13.0506 31.54H19.4906V32.6H13.0506V31.54ZM13.0506 29.05H14.3806V32.02H13.0506V29.05ZM12.0506 33.62H20.4206V34.69H12.0506V33.62ZM13.9506 34H15.2806V37.89H13.9506V34ZM17.1806 34H18.5106V37.89H17.1806V34ZM27.2013 34.56H28.5213V37.9H27.2013V34.56ZM23.6913 34.17H32.0613V35.25H23.6913V34.17ZM27.1913 30.29H28.3613V30.51C28.3613 32.06 27.0213 33.41 24.5713 33.7L24.1113 32.66C26.2013 32.42 27.1913 31.37 27.1913 30.51V30.29ZM27.3613 30.29H28.5313V30.51C28.5313 31.35 29.5312 32.42 31.6113 32.66L31.1413 33.7C28.7013 33.42 27.3613 32.02 27.3613 30.51V30.29ZM24.4413 29.69H31.3013V30.74H24.4413V29.69ZM27.2013 28.65H28.5213V30.05H27.2013V28.65ZM34.9605 30.44H36.0405V30.8C36.0405 32.49 35.2205 34 33.4605 34.55L32.8205 33.51C34.3205 33.04 34.9605 31.92 34.9605 30.8V30.44ZM35.2005 30.44H36.2905V30.8C36.2905 31.84 36.9405 32.91 38.4405 33.36L37.8005 34.4C36.0505 33.88 35.2005 32.42 35.2005 30.8V30.44ZM33.1405 29.72H38.1105V30.76H33.1405V29.72ZM34.9605 28.7H36.2905V30.11H34.9605V28.7ZM37.8205 31.32H39.9705V32.41H37.8205V31.32ZM39.3005 28.64H40.6305V35.49H39.3005V28.64ZM34.5205 36.67H40.8405V37.73H34.5205V36.67ZM34.5205 34.92H35.8505V37.37H34.5205V34.92ZM50.9011 28.62H52.2311V37.91H50.9011V28.62ZM45.0211 34.67H45.8411C47.4811 34.67 48.7911 34.61 50.2611 34.36L50.3911 35.43C48.8911 35.7 47.5311 35.75 45.8411 35.75H45.0211V34.67ZM45.0111 29.41H49.3811V32.99H46.3711V35.07H45.0211V31.94H48.0211V30.47H45.0111V29.41ZM57.1603 29.16H58.3203V29.83C58.3203 31.84 56.8903 33.62 54.4903 34.09L53.9203 32.99C56.0103 32.63 57.1603 31.16 57.1603 29.83V29.16ZM57.4303 29.16H58.5803V29.83C58.5803 31.19 59.7203 32.63 61.8203 32.99L61.2503 34.09C58.8503 33.62 57.4303 31.87 57.4303 29.83V29.16ZM53.7303 35.68H62.1103V36.76H53.7303V35.68ZM63.9095 33.4H70.4195V34.44H63.9095V33.4ZM62.9295 35.75H71.3095V36.83H62.9295V35.75ZM63.9095 29.3H70.3395V30.37H65.2595V33.69H63.9095V29.3ZM64.8495 31.34H70.1295V32.37H64.8495V31.34Z" fill="#555353"/>
</svg>
