<svg width="64" height="78" viewBox="0 0 64 78" fill="none" xmlns="http://www.w3.org/2000/svg">
<g filter="url(#filter0_d_2059_1665)">
<rect x="3" y="3" width="58" height="72" rx="8" fill="white"/>
</g>
<path d="M27.848 54.608H29.992V69.424H27.848V54.608ZM23.48 56.144H25.592C25.592 60.672 24.056 64.384 18.792 66.928L17.688 65.232C21.944 63.184 23.48 60.496 23.48 56.528V56.144ZM18.472 56.144H24.488V57.824H18.472V56.144ZM32.9348 64.352H34.1828C36.6788 64.352 38.5828 64.32 40.7908 63.968L40.9828 65.664C38.7428 66.016 36.7268 66.08 34.1828 66.08H32.9348V64.352ZM32.9348 55.84H39.8948V57.568H35.0788V64.912H32.9348V55.84ZM34.5668 59.952H39.6868V61.616H34.5668V59.952ZM41.8308 54.608H43.9748V69.424H41.8308V54.608ZM43.4948 60.224H46.1188V61.984H43.4948V60.224Z" fill="#797878"/>
<path d="M38.2916 9.08936L15.683 33.4814C15.683 33.4814 15.5 33.6207 15.5 33.8556C15.5 34.1396 16.3467 34.9016 16.5925 34.9125C16.8383 34.9234 17.0376 34.6995 17.0376 34.6995L38.0731 13.268L38.2916 9.08936ZM42.5003 16.8158L19.2663 37.2668C19.2663 37.2668 19.0369 37.4716 19.0942 37.7475C19.1406 37.9851 19.7743 38.6815 19.9873 38.6979C20.2686 38.7198 20.4434 38.5559 20.4434 38.5559L43.9014 19.1592L42.5003 16.8158Z" fill="#D61029"/>
<path d="M46.7039 13.2516C46.3789 13.3172 40.6271 18.4654 40.6271 18.4654L42.3286 20.4619C42.3286 20.4619 48.3617 15.6004 48.4737 15.3246C48.5857 15.046 48.3454 14.7592 47.7172 14.0928C47.089 13.4264 46.8869 13.2134 46.7039 13.2516ZM40.4386 7C40.1246 7 35.4297 12.1756 35.4297 12.1756L37.306 14.0519C37.306 14.0519 42.2713 9.08388 42.3068 8.80803C42.345 8.53218 42.0664 8.25907 41.4382 7.67187C40.9248 7.19391 40.6981 7 40.4386 7Z" fill="#474C4F"/>
<defs>
<filter id="filter0_d_2059_1665" x="0" y="0" width="64" height="78" filterUnits="userSpaceOnUse" color-interpolation-filters="sRGB">
<feFlood flood-opacity="0" result="BackgroundImageFix"/>
<feColorMatrix in="SourceAlpha" type="matrix" values="0 0 0 0 0 0 0 0 0 0 0 0 0 0 0 0 0 0 127 0" result="hardAlpha"/>
<feMorphology radius="2" operator="dilate" in="SourceAlpha" result="effect1_dropShadow_2059_1665"/>
<feOffset/>
<feGaussianBlur stdDeviation="0.5"/>
<feComposite in2="hardAlpha" operator="out"/>
<feColorMatrix type="matrix" values="0 0 0 0 0 0 0 0 0 0 0 0 0 0 0 0 0 0 0.05 0"/>
<feBlend mode="normal" in2="BackgroundImageFix" result="effect1_dropShadow_2059_1665"/>
<feBlend mode="normal" in="SourceGraphic" in2="effect1_dropShadow_2059_1665" result="shape"/>
</filter>
</defs>
</svg>
