<svg width="65" height="78" viewBox="0 0 65 78" fill="none" xmlns="http://www.w3.org/2000/svg">
<g filter="url(#filter0_d_2058_1664)">
<rect x="3.5" y="3" width="58" height="72" rx="8" fill="white"/>
</g>
<path d="M27.676 54.624H29.804V65.696H27.676V54.624ZM29.196 59.136H31.772V60.88H29.196V59.136ZM18.14 56.16H26.86V57.824H18.14V56.16ZM22.508 58.352C24.636 58.352 26.14 59.52 26.14 61.216C26.14 62.912 24.636 64.064 22.508 64.064C20.364 64.064 18.86 62.912 18.86 61.216C18.86 59.52 20.364 58.352 22.508 58.352ZM22.508 59.968C21.564 59.968 20.908 60.416 20.908 61.216C20.908 62.016 21.564 62.448 22.508 62.448C23.452 62.448 24.108 62.016 24.108 61.216C24.108 60.416 23.452 59.968 22.508 59.968ZM21.436 54.592H23.564V56.976H21.436V54.592ZM20.252 67.472H30.332V69.168H20.252V67.472ZM20.252 64.864H22.38V68.208H20.252V64.864ZM36.3307 55.28H38.0908V56.704C38.0908 59.504 36.7308 62.048 33.8348 62.976L32.7948 61.296C35.2908 60.496 36.3307 58.576 36.3307 56.704V55.28ZM36.7628 55.28H38.5068V56.704C38.5068 58.528 39.5308 60.32 41.9468 61.056L40.9068 62.72C38.0748 61.824 36.7628 59.456 36.7628 56.704V55.28ZM35.0668 64.096H45.1788V69.424H43.0348V65.792H35.0668V64.096ZM43.0348 54.608H45.1788V63.44H43.0348V54.608Z" fill="#797878"/>
<path d="M32.5 41C17.542 41 15.5 26 15.5 22H49.5C49.5 24 47.542 41 32.5 41Z" fill="#DD2E44"/>
<path d="M32.5 31.4974C41.8888 31.4974 49.5 27.2692 49.5 22.0534C49.5 16.8376 41.8888 12.6094 32.5 12.6094C23.1112 12.6094 15.5 16.8376 15.5 22.0534C15.5 27.2692 23.1112 31.4974 32.5 31.4974Z" fill="#A0041E"/>
<path d="M32.5 30C26.5 30 16.5 27 16.5 22C16.5 16 22.625 9 32.5 9C42.375 9 48.5 17 48.5 22C48.5 27 39.5 30 32.5 30Z" fill="#E6E9EA"/>
<path d="M29.9102 24.8931C30.0115 24.9781 30.0949 25.0824 30.1557 25.1998C30.2164 25.3173 30.2533 25.4456 30.2641 25.5774C30.2749 25.7092 30.2595 25.8418 30.2187 25.9676C30.1779 26.0934 30.1126 26.2099 30.0265 26.3102C29.9404 26.4106 29.8353 26.4929 29.7171 26.5524C29.599 26.6118 29.4703 26.6473 29.3384 26.6567C29.2065 26.6661 29.074 26.6492 28.9487 26.607C28.8234 26.5649 28.7076 26.4983 28.6082 26.4111L27.0892 25.1091C26.9879 25.0241 26.9045 24.9199 26.8437 24.8024C26.783 24.685 26.7461 24.5566 26.7353 24.4248C26.7245 24.293 26.7399 24.1604 26.7807 24.0346C26.8215 23.9088 26.8868 23.7924 26.9729 23.692C27.059 23.5916 27.1641 23.5093 27.2823 23.4499C27.4004 23.3904 27.5291 23.3549 27.661 23.3456C27.7929 23.3362 27.9254 23.3531 28.0507 23.3952C28.176 23.4373 28.2918 23.5039 28.3912 23.5911L29.9102 24.8931ZM21.7832 23.3861C21.6323 23.5965 21.4058 23.7402 21.1513 23.7872C20.8967 23.8341 20.6338 23.7806 20.4179 23.6379C20.2019 23.4951 20.0496 23.2743 19.993 23.0217C19.9364 22.7691 19.9798 22.5044 20.1142 22.2831L21.2172 20.6141C21.2896 20.5045 21.3829 20.4103 21.4918 20.3367C21.6006 20.2632 21.7229 20.2118 21.8516 20.1856C21.9803 20.1593 22.1129 20.1586 22.2419 20.1836C22.3708 20.2086 22.4936 20.2587 22.6032 20.3311C22.7128 20.4035 22.807 20.4968 22.8806 20.6057C22.9541 20.7145 23.0055 20.8368 23.0317 20.9655C23.058 21.0942 23.0587 21.2268 23.0337 21.3558C23.0088 21.4847 22.9586 21.6075 22.8862 21.7171L21.7832 23.3861ZM44.7832 23.3861C44.7108 23.4957 44.6175 23.59 44.5086 23.6635C44.3998 23.737 44.2775 23.7884 44.1488 23.8147C44.0201 23.8409 43.8875 23.8416 43.7585 23.8166C43.6296 23.7917 43.5068 23.7415 43.3972 23.6691C43.2876 23.5967 43.1934 23.5034 43.1198 23.3945C43.0463 23.2857 42.9949 23.1634 42.9686 23.0347C42.9424 22.906 42.9417 22.7734 42.9667 22.6444C42.9916 22.5155 43.0418 22.3927 43.1142 22.2831L44.2172 20.6141C44.3635 20.3928 44.5917 20.2386 44.8516 20.1856C45.1115 20.1325 45.3819 20.1848 45.6032 20.3311C45.8245 20.4774 45.9787 20.7056 46.0317 20.9655C46.0848 21.2254 46.0325 21.4958 45.8862 21.7171L44.7832 23.3861ZM38.6802 19.7801C38.7217 20.0353 38.6629 20.2967 38.516 20.5095C38.3692 20.7223 38.1457 20.87 37.8924 20.9217C37.639 20.9734 37.3755 20.9251 37.157 20.7868C36.9385 20.6486 36.782 20.4312 36.7202 20.1801L36.3212 18.2201C36.295 18.0915 36.2944 17.959 36.3194 17.8301C36.3444 17.7012 36.3946 17.5786 36.467 17.4691C36.5394 17.3596 36.6327 17.2654 36.7415 17.192C36.8504 17.1186 36.9726 17.0673 37.1012 17.0411C37.361 16.9882 37.6311 17.0407 37.8522 17.1869C37.9617 17.2594 38.0559 17.3526 38.1293 17.4615C38.2027 17.5703 38.254 17.6925 38.2802 17.8211L38.6802 19.7801ZM31.1402 15.8221C31.0582 15.7888 30.9835 15.7396 30.9205 15.6774C30.8575 15.6152 30.8074 15.5412 30.773 15.4596C30.7386 15.378 30.7206 15.2905 30.72 15.2019C30.7195 15.1134 30.7363 15.0256 30.7697 14.9436C30.8031 14.8616 30.8522 14.787 30.9144 14.724C30.9766 14.661 31.0506 14.6108 31.1322 14.5764C31.2138 14.542 31.3013 14.524 31.3899 14.5235C31.4784 14.5229 31.5662 14.5398 31.6482 14.5731L32.8972 15.0821C33.0627 15.1496 33.1946 15.2801 33.2639 15.4448C33.3332 15.6096 33.3342 15.7951 33.2667 15.9606C33.1992 16.1261 33.0687 16.258 32.904 16.3273C32.7392 16.3966 32.5537 16.3976 32.3882 16.3301L31.1402 15.8221ZM21.8442 17.3891C21.7712 17.4392 21.689 17.4744 21.6024 17.4928C21.5158 17.5111 21.4264 17.5122 21.3393 17.496C21.2523 17.4798 21.1692 17.4466 21.095 17.3983C21.0208 17.3501 20.9568 17.2876 20.9067 17.2146C20.8566 17.1416 20.8214 17.0594 20.803 16.9728C20.7847 16.8862 20.7836 16.7968 20.7998 16.7097C20.816 16.6227 20.8492 16.5397 20.8975 16.4654C20.9457 16.3912 21.0082 16.3272 21.0812 16.2771L22.1942 15.5151C22.3419 15.4227 22.5196 15.391 22.6901 15.4265C22.8606 15.4621 23.0108 15.5622 23.1092 15.706C23.2077 15.8497 23.2467 16.026 23.2182 16.1978C23.1896 16.3697 23.0958 16.5239 22.9562 16.6281L21.8442 17.3891ZM35.4372 25.9341C35.1779 25.9098 34.9382 25.7854 34.7691 25.5872C34.6001 25.3891 34.5149 25.1329 34.5317 24.873C34.5485 24.613 34.6659 24.3699 34.8591 24.1952C35.0522 24.0204 35.3059 23.9279 35.5662 23.9371L37.5632 24.0681C37.8223 24.0924 38.0617 24.2167 38.2306 24.4147C38.3995 24.6126 38.4846 24.8686 38.4678 25.1283C38.451 25.388 38.3337 25.6309 38.1407 25.8054C37.9477 25.98 37.6942 26.0724 37.4342 26.0631L35.4372 25.9341ZM26.1962 19.5481C26.0745 19.4985 25.9638 19.4255 25.8704 19.3331C25.7769 19.2408 25.7026 19.1309 25.6516 19.0098C25.6007 18.8887 25.574 18.7588 25.5733 18.6274C25.5725 18.496 25.5976 18.3658 25.6472 18.2441C25.6968 18.1224 25.7698 18.0117 25.8622 17.9183C25.9545 17.8249 26.0644 17.7505 26.1855 17.6995C26.3066 17.6486 26.4365 17.6219 26.5679 17.6212C26.6993 17.6204 26.8295 17.6455 26.9512 17.6951L28.8042 18.4501C28.9263 18.4993 29.0376 18.5721 29.1315 18.6644C29.2254 18.7567 29.3002 18.8667 29.3515 18.9879C29.4028 19.1092 29.4297 19.2394 29.4306 19.3711C29.4315 19.5027 29.4063 19.6333 29.3566 19.7552C29.3069 19.8771 29.2336 19.9881 29.1409 20.0816C29.0482 20.1751 28.938 20.2494 28.8165 20.3002C28.695 20.3511 28.5647 20.3774 28.433 20.3777C28.3014 20.378 28.1709 20.3523 28.0492 20.3021L26.1962 19.5481ZM42.1412 16.8221C41.9841 16.749 41.8612 16.6183 41.7978 16.457C41.7344 16.2958 41.7355 16.1163 41.8008 15.9559C41.8661 15.7954 41.9905 15.6661 42.1485 15.5949C42.3064 15.5236 42.4857 15.5158 42.6492 15.5731L43.8992 16.0821C43.9811 16.1156 44.0557 16.1649 44.1186 16.2272C44.1815 16.2895 44.2315 16.3636 44.2657 16.4452C44.3 16.5268 44.3179 16.6144 44.3183 16.7029C44.3187 16.7914 44.3017 16.8792 44.2682 16.9611C44.2347 17.0431 44.1854 17.1176 44.1231 17.1805C44.0608 17.2434 43.9867 17.2934 43.9051 17.3277C43.8235 17.3619 43.7359 17.3798 43.6474 17.3802C43.5589 17.3806 43.4711 17.3636 43.3892 17.3301L42.1412 16.8221Z" fill="#CCD6DD"/>
<defs>
<filter id="filter0_d_2058_1664" x="0.5" y="0" width="64" height="78" filterUnits="userSpaceOnUse" color-interpolation-filters="sRGB">
<feFlood flood-opacity="0" result="BackgroundImageFix"/>
<feColorMatrix in="SourceAlpha" type="matrix" values="0 0 0 0 0 0 0 0 0 0 0 0 0 0 0 0 0 0 127 0" result="hardAlpha"/>
<feMorphology radius="2" operator="dilate" in="SourceAlpha" result="effect1_dropShadow_2058_1664"/>
<feOffset/>
<feGaussianBlur stdDeviation="0.5"/>
<feComposite in2="hardAlpha" operator="out"/>
<feColorMatrix type="matrix" values="0 0 0 0 0 0 0 0 0 0 0 0 0 0 0 0 0 0 0.05 0"/>
<feBlend mode="normal" in2="BackgroundImageFix" result="effect1_dropShadow_2058_1664"/>
<feBlend mode="normal" in="SourceGraphic" in2="effect1_dropShadow_2058_1664" result="shape"/>
</filter>
</defs>
</svg>
