<svg width="30" height="31" viewBox="0 0 30 31" fill="none" xmlns="http://www.w3.org/2000/svg">
<path d="M25.0625 16.5H4.9375C4.28166 16.5 3.75 17.3507 3.75 18.4V18.6C3.75 19.6493 4.28166 20.5 4.9375 20.5H25.0625C25.7183 20.5 26.25 19.6493 26.25 18.6V18.4C26.25 17.3507 25.7183 16.5 25.0625 16.5Z" fill="white"/>
<path d="M25.0625 25H4.9375C4.28166 25 3.75 25.8507 3.75 26.9V27.1C3.75 28.1493 4.28166 29 4.9375 29H25.0625C25.7183 29 26.25 28.1493 26.25 27.1V26.9C26.25 25.8507 25.7183 25 25.0625 25Z" fill="white"/>
<path d="M25.0625 8H4.9375C4.28166 8 3.75 8.85066 3.75 9.9V10.1C3.75 11.1493 4.28166 12 4.9375 12H25.0625C25.7183 12 26.25 11.1493 26.25 10.1V9.9C26.25 8.85066 25.7183 8 25.0625 8Z" fill="white"/>
</svg>
