<svg width="86" height="17" viewBox="0 0 86 17" fill="none" xmlns="http://www.w3.org/2000/svg">
<path d="M0 16.593V6.69501H3.41762V7.73782H3.45267C4.33994 6.85055 5.28635 6.40582 6.29192 6.40582C7.0105 6.40582 7.68526 6.5548 8.3162 6.85274C8.94715 7.1485 9.42255 7.60418 9.74459 8.21979C10.7458 7.01048 11.839 6.40582 13.022 6.40582C14.0758 6.40582 14.9828 6.70267 15.743 7.29528C16.5021 7.8857 16.8822 8.8113 16.8822 10.0732V16.593H13.4645V10.9977C13.4645 10.4719 13.3199 10.0327 13.0308 9.67885C12.7416 9.32285 12.3078 9.1443 11.7294 9.1443C11.2267 9.1443 10.8444 9.29656 10.5815 9.59998C10.3186 9.90121 10.174 10.2649 10.1477 10.691V16.593H6.73446V10.9977C6.73446 10.4719 6.58987 10.0327 6.30069 9.67885C6.0115 9.32285 5.57773 9.1443 4.99936 9.1443C4.47029 9.1443 4.07485 9.3097 3.81196 9.63942C3.54907 9.96694 3.41762 10.3558 3.41762 10.8049V16.593H0Z" fill="black"/>
<path d="M28.0386 12.1194H20.8616C20.8616 12.8117 21.0861 13.3266 21.5363 13.6617C21.9887 13.9947 22.4784 14.1612 23.0041 14.1612C23.5562 14.1612 23.9922 14.089 24.3142 13.9422C24.6385 13.7932 25.0065 13.4996 25.4184 13.0615L27.8852 14.2971C26.8566 16.0212 25.1467 16.8822 22.7544 16.8822C21.2614 16.8822 19.9809 16.3717 18.9118 15.3487C17.8449 14.3267 17.3125 13.0954 17.3125 11.655C17.3125 10.2157 17.8449 8.98115 18.9118 7.95258C19.9809 6.92181 21.2614 6.40588 22.7544 6.40588C24.323 6.40588 25.5991 6.86047 26.5839 7.76855C27.5675 8.67444 28.0605 9.97028 28.0605 11.655C28.0605 11.8861 28.0528 12.0406 28.0386 12.1194ZM20.958 10.2266H24.7217C24.645 9.71287 24.4424 9.31853 24.1127 9.04358C23.7852 8.76645 23.3645 8.62734 22.8508 8.62734C22.2834 8.62734 21.8321 8.77521 21.4969 9.06987C21.1639 9.36563 20.9842 9.75121 20.958 10.2266Z" fill="black"/>
<path d="M33.9691 9.2057C33.3261 9.2057 32.7729 9.4445 32.3085 9.9199C31.8462 10.3931 31.6162 10.9649 31.6162 11.6331C31.6162 12.3166 31.8462 12.8972 32.3085 13.3726C32.7729 13.8491 33.3261 14.0868 33.9691 14.0868C34.278 14.0868 34.5705 14.0495 34.8454 13.9728C35.1226 13.894 35.3252 13.8151 35.4545 13.7362L35.6297 13.6223L36.7865 15.9971C36.6955 16.0618 36.5696 16.1417 36.4096 16.2381C36.2486 16.3345 35.8817 16.4659 35.3099 16.6324C34.737 16.7989 34.1236 16.8822 33.4696 16.8822C32.0149 16.8822 30.7366 16.3717 29.6357 15.3487C28.5371 14.3267 27.9883 13.1009 27.9883 11.6725C27.9883 10.2332 28.5371 8.99539 29.6357 7.96134C30.7366 6.9251 32.0149 6.40588 33.4696 6.40588C34.1236 6.40588 34.7271 6.48366 35.2792 6.63811C35.8335 6.79365 36.2267 6.9481 36.4578 7.10255L36.7865 7.33477L35.6297 9.66577C35.2058 9.35906 34.6526 9.2057 33.9691 9.2057Z" fill="black"/>
<path d="M37.2188 16.593V0H40.6364V7.73784H40.6714C41.5587 6.85057 42.5051 6.40584 43.5107 6.40584C43.9981 6.40584 44.4834 6.47047 44.9654 6.59863C45.4473 6.72789 45.9096 6.92725 46.3543 7.19891C46.7979 7.46837 47.1572 7.85066 47.4322 8.34688C47.7093 8.8409 47.8484 9.41598 47.8484 10.0732V16.593H44.4352V10.9977C44.4352 10.484 44.2698 10.0338 43.9401 9.6482C43.6125 9.26262 43.1864 9.06983 42.6606 9.06983C42.1458 9.06983 41.6803 9.27029 41.2629 9.67011C40.8445 10.0677 40.6364 10.5103 40.6364 10.9977V16.593H37.2188Z" fill="black"/>
<path d="M49.9248 15.4188C48.8261 14.4406 48.2773 13.1864 48.2773 11.655C48.2773 10.1247 48.8491 8.86723 49.9949 7.88247C51.1396 6.89881 52.5548 6.40588 54.2406 6.40588C55.8991 6.40588 57.2968 6.901 58.4338 7.89123C59.573 8.88147 60.1426 10.1368 60.1426 11.655C60.1426 13.171 59.5862 14.422 58.4732 15.4056C57.3603 16.3904 55.9495 16.8822 54.2406 16.8822C52.4639 16.8822 51.0257 16.3947 49.9248 15.4188ZM52.5713 9.97686C52.1265 10.4128 51.9053 10.9715 51.9053 11.655C51.9053 12.3363 52.1167 12.8928 52.5406 13.3244C52.9667 13.7538 53.5265 13.9685 54.2187 13.9685C54.8869 13.9685 55.4368 13.7516 55.8662 13.3156C56.2978 12.8775 56.5147 12.3243 56.5147 11.655C56.5147 10.9715 56.2923 10.4128 55.8487 9.97686C55.4072 9.5387 54.8639 9.31962 54.2187 9.31962C53.5637 9.31962 53.0149 9.5387 52.5713 9.97686Z" fill="black"/>
<path d="M61.7295 15.4188C60.6308 14.4406 60.082 13.1864 60.082 11.655C60.082 10.1247 60.6538 8.86723 61.7996 7.88247C62.9443 6.89881 64.3595 6.40588 66.0453 6.40588C67.7038 6.40588 69.1015 6.901 70.2385 7.89123C71.3777 8.88147 71.9473 10.1368 71.9473 11.655C71.9473 13.171 71.3908 14.422 70.2779 15.4056C69.165 16.3904 67.7541 16.8822 66.0453 16.8822C64.2686 16.8822 62.8304 16.3947 61.7295 15.4188ZM64.376 9.97686C63.9312 10.4128 63.71 10.9715 63.71 11.655C63.71 12.3363 63.9214 12.8928 64.3453 13.3244C64.7714 13.7538 65.3311 13.9685 66.0234 13.9685C66.6916 13.9685 67.2415 13.7516 67.6709 13.3156C68.1025 12.8775 68.3194 12.3243 68.3194 11.655C68.3194 10.9715 68.097 10.4128 67.6534 9.97686C67.2119 9.5387 66.6686 9.31962 66.0234 9.31962C65.3684 9.31962 64.8196 9.5387 64.376 9.97686Z" fill="black"/>
<path d="M72.5898 16.593V6.69507H76.0075V8.12346H76.0425C76.0688 8.07088 76.1104 8.00734 76.1696 7.93067C76.2276 7.85509 76.3536 7.72035 76.5464 7.52756C76.7392 7.33477 76.9451 7.1617 77.1642 7.00616C77.3833 6.85171 77.6648 6.71259 78.0098 6.58991C78.3571 6.46723 78.712 6.40588 79.0746 6.40588C79.4448 6.40588 79.8107 6.45846 80.1699 6.56362C80.5314 6.66659 80.7965 6.76846 80.963 6.87033L81.2347 7.02368L79.8063 9.9199C79.3824 9.55842 78.7908 9.37658 78.0317 9.37658C77.6199 9.37658 77.265 9.4675 76.967 9.64824C76.6713 9.83007 76.4631 10.0492 76.3405 10.3055C76.22 10.5629 76.1345 10.782 76.0819 10.9627C76.0316 11.1413 76.0075 11.2815 76.0075 11.3833V16.593H72.5898Z" fill="black"/>
<path d="M81.5529 1.17859C81.9527 0.782064 82.4292 0.582703 82.9813 0.582703C83.5334 0.582703 84.0077 0.782064 84.4053 1.17859C84.8051 1.57622 85.0056 2.05272 85.0056 2.60698C85.0056 3.15906 84.8051 3.63556 84.4053 4.03537C84.0077 4.433 83.5334 4.63127 82.9813 4.63127C82.4292 4.63127 81.9527 4.433 81.5529 4.03537C81.1553 3.63556 80.957 3.15906 80.957 2.60698C80.957 2.05272 81.1553 1.57622 81.5529 1.17859ZM81.2243 6.69498V16.5929H84.6419V6.69498H81.2243Z" fill="black"/>
</svg>
