<svg width="110" height="95" viewBox="0 0 110 95" fill="none" xmlns="http://www.w3.org/2000/svg">
<g filter="url(#filter0_d_3086_2361)">
<path d="M73.8 4.14324C77.2667 7.60991 73.8 18.0099 73.8 18.0099H9.5C9.5 18.0099 25.2667 12.8099 39.1333 9.34325C53 5.87665 70.3333 0.676569 73.8 4.14324Z" fill="#F9F5E0"/>
</g>
<g filter="url(#filter1_d_3086_2361)">
<path d="M1 27C1 22.5817 4.58172 19 9 19H97C101.418 19 105 22.5817 105 27V90H1V27Z" fill="#F9F5E0"/>
</g>
<path d="M42.6434 54.5412C42.6434 60.1331 41.2001 65.1722 38.8929 68.7976C36.5821 72.429 33.4511 74.5825 30.0717 74.5825C26.6923 74.5825 23.5613 72.429 21.2504 68.7976C18.9433 65.1722 17.5 60.1331 17.5 54.5412C17.5 48.9493 18.9433 43.9103 21.2504 40.2848C23.5613 36.6534 26.6923 34.5 30.0717 34.5C33.4511 34.5 36.5821 36.6534 38.8929 40.2848C41.2001 43.9103 42.6434 48.9493 42.6434 54.5412Z" fill="#FFE551" stroke="#FFE551"/>
<path d="M66 39H63L60.0128 89.7826L60 90H66.5L66 39Z" fill="#FFE551"/>
<path d="M74.5 37L87 90H93L77.5 36L74.5 37Z" fill="#FFE551"/>
<path d="M27 90L28.25 75H30.75L32 90H27Z" fill="#FFE551"/>
<rect x="6.5" y="30.5" width="93" height="25" rx="3.5" fill="white" stroke="#2292F9"/>
<defs>
<filter id="filter0_d_3086_2361" x="6.5" y="0" width="73.8398" height="23.0099" filterUnits="userSpaceOnUse" color-interpolation-filters="sRGB">
<feFlood flood-opacity="0" result="BackgroundImageFix"/>
<feColorMatrix in="SourceAlpha" type="matrix" values="0 0 0 0 0 0 0 0 0 0 0 0 0 0 0 0 0 0 127 0" result="hardAlpha"/>
<feOffset dx="1" dy="1"/>
<feGaussianBlur stdDeviation="2"/>
<feComposite in2="hardAlpha" operator="out"/>
<feColorMatrix type="matrix" values="0 0 0 0 0 0 0 0 0 0 0 0 0 0 0 0 0 0 0.25 0"/>
<feBlend mode="normal" in2="BackgroundImageFix" result="effect1_dropShadow_3086_2361"/>
<feBlend mode="normal" in="SourceGraphic" in2="effect1_dropShadow_3086_2361" result="shape"/>
</filter>
<filter id="filter1_d_3086_2361" x="0" y="18" width="110" height="77" filterUnits="userSpaceOnUse" color-interpolation-filters="sRGB">
<feFlood flood-opacity="0" result="BackgroundImageFix"/>
<feColorMatrix in="SourceAlpha" type="matrix" values="0 0 0 0 0 0 0 0 0 0 0 0 0 0 0 0 0 0 127 0" result="hardAlpha"/>
<feOffset dx="2" dy="2"/>
<feGaussianBlur stdDeviation="1.5"/>
<feComposite in2="hardAlpha" operator="out"/>
<feColorMatrix type="matrix" values="0 0 0 0 0 0 0 0 0 0 0 0 0 0 0 0 0 0 0.18 0"/>
<feBlend mode="normal" in2="BackgroundImageFix" result="effect1_dropShadow_3086_2361"/>
<feBlend mode="normal" in="SourceGraphic" in2="effect1_dropShadow_3086_2361" result="shape"/>
</filter>
</defs>
</svg>
