<svg width="85" height="13" viewBox="0 0 85 13" fill="none" xmlns="http://www.w3.org/2000/svg">
<path d="M10.7466 12.4337L10.17 5.19461H10.0937L7.59174 12.3574H5.93328L3.4313 5.19461H3.35981L2.78316 12.4337H0L1.09611 0.223999H4.0556L6.76251 7.26769L9.47419 0.223999H12.4337L13.5298 12.4337H10.7466Z" fill="black"/>
<path d="M21.6349 0.223938V2.66397H17.4316V5.08971H21.4586V7.53451H17.4316V9.9936H21.6349V12.4336H14.6484V0.223938H21.6349Z" fill="black"/>
<path d="M29.7438 9.9174C30.1655 9.9174 30.5778 9.85426 30.9781 9.72677C31.3784 9.59691 31.6715 9.473 31.8597 9.35505L32.1409 9.16442L33.3276 11.533C33.2859 11.5616 33.2299 11.6021 33.1608 11.6521C33.094 11.6998 32.9332 11.7903 32.6794 11.9238C32.428 12.0572 32.16 12.174 31.874 12.2717C31.5881 12.3705 31.2128 12.4587 30.7493 12.5385C30.2847 12.6172 29.8069 12.6577 29.3149 12.6577C28.1806 12.6577 27.1048 12.3801 26.0885 11.8237C25.071 11.2649 24.2513 10.4976 23.6294 9.52185C23.0063 8.54369 22.6953 7.48571 22.6953 6.3479C22.6953 5.49007 22.8776 4.66799 23.2434 3.87927C23.6079 3.08817 24.094 2.41144 24.7017 1.84909C25.3081 1.28674 26.017 0.838761 26.8272 0.505163C27.6373 0.169182 28.4666 0 29.3149 0C30.1024 0 30.8303 0.0941224 31.4975 0.281176C32.1647 0.469421 32.6365 0.656474 32.913 0.843527L33.3276 1.1247L32.1409 3.49325C32.0706 3.43368 31.9658 3.36219 31.8264 3.27879C31.6894 3.19659 31.413 3.08698 30.9971 2.94996C30.5837 2.81057 30.1655 2.74027 29.7438 2.74027C29.073 2.74027 28.4713 2.84869 27.9376 3.06434C27.4038 3.28118 26.9809 3.56712 26.6699 3.92216C26.3613 4.2784 26.1242 4.66084 25.9598 5.07069C25.7978 5.48054 25.7168 5.89754 25.7168 6.3193C25.7168 7.24742 26.0647 8.08023 26.7604 8.81653C27.4562 9.55044 28.4499 9.9174 29.7438 9.9174Z" fill="black"/>
<path d="M37.1699 7.53451V12.4336H34.3867V0.223938H37.1699V5.08971H41.1063V0.223938H43.8895V12.4336H41.1063V7.53451H37.1699Z" fill="black"/>
<path d="M45.1133 6.3193C45.1133 4.55362 45.7149 3.05838 46.9195 1.83479C48.1228 0.612391 49.5752 0 51.2753 0C52.9814 0 54.4314 0.610008 55.6264 1.83002C56.8202 3.04766 57.4183 4.54409 57.4183 6.3193C57.4183 8.10525 56.8297 9.60763 55.655 10.8276C54.4791 12.0477 53.0196 12.6577 51.2753 12.6577C49.4858 12.6577 48.012 12.0548 46.8528 10.8467C45.6923 9.63622 45.1133 8.12788 45.1133 6.3193ZM48.1204 6.3193C48.1204 6.96148 48.2181 7.54647 48.4159 8.07308C48.6125 8.60088 48.9568 9.04766 49.4501 9.41224C49.9457 9.778 50.5533 9.96029 51.2753 9.96029C52.3107 9.96029 53.0922 9.60644 53.62 8.89754C54.1466 8.18626 54.4111 7.32725 54.4111 6.3193C54.4111 5.32566 54.1407 4.47022 53.601 3.75536C53.0636 3.03813 52.288 2.67832 51.2753 2.67832C50.2674 2.67832 49.4894 3.03813 48.9401 3.75536C48.3933 4.47022 48.1204 5.32566 48.1204 6.3193Z" fill="black"/>
<path d="M58.0859 6.3193C58.0859 4.55362 58.6876 3.05838 59.8921 1.83479C61.0955 0.612391 62.5478 0 64.248 0C65.9541 0 67.4041 0.610008 68.599 1.83002C69.7929 3.04766 70.3909 4.54409 70.3909 6.3193C70.3909 8.10525 69.8024 9.60763 68.6276 10.8276C67.4517 12.0477 65.9922 12.6577 64.248 12.6577C62.4585 12.6577 60.9847 12.0548 59.8254 10.8467C58.665 9.63622 58.0859 8.12788 58.0859 6.3193ZM61.0931 6.3193C61.0931 6.96148 61.1908 7.54647 61.3886 8.07308C61.5851 8.60088 61.9295 9.04766 62.4227 9.41224C62.9183 9.778 63.526 9.96029 64.248 9.96029C65.2833 9.96029 66.0649 9.60644 66.5927 8.89754C67.1193 8.18626 67.3838 7.32725 67.3838 6.3193C67.3838 5.32566 67.1133 4.47022 66.5736 3.75536C66.0363 3.03813 65.2607 2.67832 64.248 2.67832C63.24 2.67832 62.462 3.03813 61.9128 3.75536C61.3659 4.47022 61.0931 5.32566 61.0931 6.3193Z" fill="black"/>
<path d="M71.6172 0.223907H75.9873C77.1597 0.223907 78.1152 0.537252 78.8563 1.16275C79.5961 1.78944 79.9667 2.68539 79.9667 3.8506C79.9667 4.74655 79.7403 5.49833 79.2899 6.10477C78.842 6.71239 78.2332 7.13892 77.4647 7.38674L81.668 12.4336H78.1319L74.4004 7.60596V12.4336H71.6172V0.223907ZM74.4004 5.63773H74.7292C74.983 5.63773 75.1986 5.63296 75.3773 5.62343C75.5548 5.6139 75.7562 5.58054 75.9826 5.52335C76.2113 5.46378 76.3936 5.37919 76.5306 5.27077C76.67 5.16354 76.7892 5.00628 76.888 4.79897C76.9857 4.58928 77.0358 4.3367 77.0358 4.04122C77.0358 3.74575 76.9857 3.49555 76.888 3.28825C76.7892 3.07856 76.67 2.9201 76.5306 2.81168C76.3936 2.70445 76.2113 2.62105 75.9826 2.56386C75.7562 2.50429 75.5548 2.46855 75.3773 2.45902C75.1986 2.4471 74.983 2.43995 74.7292 2.43995H74.4004V5.63773Z" fill="black"/>
<path d="M85.0019 0.223907V12.4336H82.2188V0.223907H85.0019Z" fill="black"/>
</svg>
