<svg width="110" height="89" viewBox="0 0 110 89" fill="none" xmlns="http://www.w3.org/2000/svg">
<g filter="url(#filter0_d_3044_2381)">
<path d="M73.8 4.14324C77.2667 7.60991 73.8 18.0099 73.8 18.0099H9.5C9.5 18.0099 25.2667 12.8099 39.1333 9.34325C53 5.87665 70.3333 0.676568 73.8 4.14324Z" fill="#F9F5E0"/>
</g>
<g filter="url(#filter1_d_3044_2381)">
<path d="M1 28C1 23.5817 4.58172 20 9 20H97C101.418 20 105 23.5817 105 28V84H1V28Z" fill="#F9F5E0"/>
</g>
<path d="M40.6434 48.3318C40.6434 53.9237 39.2001 58.9628 36.8929 62.5882C34.5821 66.2196 31.4511 68.3731 28.0717 68.3731C24.6923 68.3731 21.5613 66.2196 19.2504 62.5882C16.9433 58.9628 15.5 53.9237 15.5 48.3318C15.5 42.7399 16.9433 37.7009 19.2504 34.0754C21.5613 30.444 24.6923 28.2906 28.0717 28.2906C31.4511 28.2906 34.5821 30.444 36.8929 34.0754C39.2001 37.7009 40.6434 42.7399 40.6434 48.3318Z" fill="#FFE551" stroke="#FFE551"/>
<path d="M68.5 32.5H65.5L62.5128 83.2826L62.5 83.5H69L68.5 32.5Z" fill="#FFE551" stroke="#FFE551"/>
<path d="M77 30.5L89.5 83.5H95.5L80 29.5L77 30.5Z" fill="#FFE551" stroke="#FFE551"/>
<path d="M26 83.5L27 69H29L30 83.5H26Z" fill="#FFE551" stroke="#FFE551"/>
<defs>
<filter id="filter0_d_3044_2381" x="6.5" y="0" width="73.8398" height="23.0099" filterUnits="userSpaceOnUse" color-interpolation-filters="sRGB">
<feFlood flood-opacity="0" result="BackgroundImageFix"/>
<feColorMatrix in="SourceAlpha" type="matrix" values="0 0 0 0 0 0 0 0 0 0 0 0 0 0 0 0 0 0 127 0" result="hardAlpha"/>
<feOffset dx="1" dy="1"/>
<feGaussianBlur stdDeviation="2"/>
<feComposite in2="hardAlpha" operator="out"/>
<feColorMatrix type="matrix" values="0 0 0 0 0 0 0 0 0 0 0 0 0 0 0 0 0 0 0.25 0"/>
<feBlend mode="normal" in2="BackgroundImageFix" result="effect1_dropShadow_3044_2381"/>
<feBlend mode="normal" in="SourceGraphic" in2="effect1_dropShadow_3044_2381" result="shape"/>
</filter>
<filter id="filter1_d_3044_2381" x="0" y="19" width="110" height="70" filterUnits="userSpaceOnUse" color-interpolation-filters="sRGB">
<feFlood flood-opacity="0" result="BackgroundImageFix"/>
<feColorMatrix in="SourceAlpha" type="matrix" values="0 0 0 0 0 0 0 0 0 0 0 0 0 0 0 0 0 0 127 0" result="hardAlpha"/>
<feOffset dx="2" dy="2"/>
<feGaussianBlur stdDeviation="1.5"/>
<feComposite in2="hardAlpha" operator="out"/>
<feColorMatrix type="matrix" values="0 0 0 0 0 0 0 0 0 0 0 0 0 0 0 0 0 0 0.18 0"/>
<feBlend mode="normal" in2="BackgroundImageFix" result="effect1_dropShadow_3044_2381"/>
<feBlend mode="normal" in="SourceGraphic" in2="effect1_dropShadow_3044_2381" result="shape"/>
</filter>
</defs>
</svg>
