<svg width="43" height="27" viewBox="0 0 43 27" fill="none" xmlns="http://www.w3.org/2000/svg">
<rect width="43" height="27" rx="8" fill="#2292F9"/>
<path d="M17.6933 6.108H19.8213V17.02H17.6933V6.108ZM7.78925 7.164H15.6133V8.86H7.78925V7.164ZM7.62925 15.26L7.42125 13.516C9.80525 13.516 13.1333 13.484 15.8053 13.18L15.9173 14.732C13.1653 15.196 9.98125 15.26 7.62925 15.26ZM8.95725 8.652H11.0052V13.724H8.95725V8.652ZM12.3973 8.652H14.4293V13.724H12.3973V8.652ZM15.9013 8.7H18.8453V10.396H15.9013V8.7ZM15.9013 11.676H18.8453V13.388H15.9013V11.676ZM10.0293 18.972H20.1573V20.668H10.0293V18.972ZM10.0293 16.22H12.1733V20.252H10.0293V16.22ZM25.74 7.388H27.484V8.3C27.484 10.956 26.108 13.356 23.26 14.22L22.188 12.556C24.668 11.836 25.74 10.044 25.74 8.3V7.388ZM26.172 7.388H27.916V8.3C27.916 9.948 28.988 11.628 31.388 12.316L30.348 13.964C27.548 13.148 26.172 10.86 26.172 8.3V7.388ZM22.764 6.908H30.828V8.588H22.764V6.908ZM32.316 6.108H34.46V14.14H32.316V6.108ZM24.604 14.78H26.7V16.124H32.348V14.78H34.46V20.764H24.604V14.78ZM26.7 17.772V19.068H32.348V17.772H26.7Z" fill="white"/>
</svg>
