<svg width="28" height="28" viewBox="0 0 28 28" fill="none" xmlns="http://www.w3.org/2000/svg">
<path d="M2.14893 8.92828C1.90923 9.21839 1.896 9.61499 1.90393 9.98161C1.93417 11.3773 2.15396 12.845 3.06237 13.9524C4.20824 15.3492 6.24284 15.8808 8.12184 15.7818C10.0009 15.6827 11.7933 15.0529 13.5877 14.5221C14.8774 14.1406 16.1838 13.8073 17.5057 13.5388C18.9282 13.2499 20.4564 12.9955 21.5123 12.058C22.9662 10.7672 22.9208 8.29849 21.4204 7.05534C20.6642 6.42884 19.6707 6.12724 18.7072 5.84374C17.8852 5.60185 17.0537 5.35992 16.1943 5.30096C15.1821 5.23151 14.1721 5.41838 13.1769 5.60431C9.6083 6.2709 5.98591 6.95477 2.7529 8.51768C2.52994 8.62542 2.30244 8.7425 2.14893 8.92828Z" fill="#EFEFEF"/>
<path d="M6.14937 13.6848C5.27355 12.6178 4.45789 9.42498 4.42847 8.08038C4.42591 7.98556 4.42666 7.89067 4.43071 7.7959C3.86191 8.01465 3.30141 8.25276 2.7529 8.51794C2.52994 8.62573 2.30244 8.74281 2.14893 8.92859C1.90923 9.2187 1.896 9.6153 1.90393 9.98192C1.93417 11.3777 2.15396 12.8454 3.06237 13.9528C4.20824 15.3496 6.24284 15.8812 8.12184 15.7821C8.86565 15.7429 9.59573 15.6198 10.3179 15.4534C8.72204 15.3959 7.11116 14.8564 6.14937 13.6848Z" fill="#DDDDDD"/>
<path d="M20.012 9.49957C16.9845 9.97459 13.699 9.64034 11.0316 11.0871C9.95955 11.6686 9.01712 12.5269 7.8158 12.7936C6.30325 13.1295 4.7545 12.4412 3.49565 11.5926C2.63312 11.0111 1.79443 10.2866 1.51809 9.31779C1.19888 8.19878 1.70666 6.64768 2.55792 5.80521C3.40919 4.96275 4.53356 3.84625 5.66357 3.38475C7.56555 2.60802 9.49826 2.25463 11.5004 1.75768C13.7474 1.19998 16.1909 1.45554 18.4277 2.01909C20.6645 2.58264 22.7052 4.2977 22.9212 6.48C22.9895 7.17021 22.8595 7.90932 22.3973 8.45099C21.8332 9.112 20.8959 9.36089 20.012 9.49957Z" fill="#FFE46A"/>
<path d="M22.9292 6.48156C22.9154 6.34345 22.8943 6.20617 22.8659 6.07031C22.7761 6.37465 22.6348 6.66214 22.4236 6.90911C21.8352 7.5973 20.8566 7.85602 19.934 7.99996C16.7734 8.49308 13.3428 8.14308 10.5588 9.64857C9.43991 10.2536 8.45647 11.1472 7.20243 11.4243C5.62349 11.7733 4.00605 11.0555 2.69115 10.1709C2.26912 9.88695 1.85334 9.56977 1.5 9.20959C1.50864 9.24623 1.5157 9.28298 1.52609 9.31941C1.80242 10.2881 2.34552 11.1588 3.20811 11.7401C4.46702 12.5888 6.27515 13.4945 7.78769 13.1587C8.98896 12.892 9.96174 12.2671 11.0338 11.6856C13.7012 10.2389 16.9036 10.4384 19.931 9.96341C20.8149 9.82472 21.8932 9.39329 22.4572 8.73228C22.9195 8.1906 22.9975 7.17177 22.9292 6.48156Z" fill="#FFCD00"/>
<path d="M15.3416 11.0018L15.1697 8.45605L15.1775 8.45447C15.1775 8.45447 14.6744 5.49927 13.2331 4.04523C12.0836 2.88548 10.9106 1.85938 10.9106 1.85938L8.25781 2.51557C8.25781 2.51557 10.5425 4.61289 11.4986 6.00715C12.2729 7.13628 12.5201 8.50713 12.5748 8.87474L12.5738 8.87491C12.5738 8.87491 12.8417 11.0415 12.8156 11.1342C12.7895 11.2269 12.8613 14.8316 12.8613 14.8316L15.2506 14.071C15.2506 14.071 15.382 13.1223 15.3887 12.7276C15.3954 12.3329 15.3416 11.0018 15.3416 11.0018Z" fill="#3D4432"/>
<path d="M24.5882 13.8307L24.5496 13.6436C24.3744 12.7933 23.5354 12.241 22.6852 12.4162L22.4981 12.4548C21.6478 12.63 21.0955 13.469 21.2707 14.3192L21.3093 14.5063C21.4845 15.3566 22.3235 15.9089 23.1737 15.7337L23.3608 15.6951C24.2111 15.52 24.7634 14.681 24.5882 13.8307Z" fill="#D45C20"/>
<path d="M24.721 17.3854L24.6824 17.1983C24.5072 16.348 23.6682 15.7957 22.818 15.9709L22.6309 16.0095C21.7806 16.1847 21.2283 17.0237 21.4035 17.8739L21.4421 18.061C21.6173 18.9113 22.4563 19.4636 23.3066 19.2884L23.4936 19.2498C24.3439 19.0747 24.8962 18.2356 24.721 17.3854Z" fill="#EC7B30"/>
<path d="M18.6327 16.5603L18.6314 16.3693C18.6254 15.5012 17.9102 14.7958 17.0421 14.8018L16.8511 14.8031C15.983 14.8091 15.2776 15.5243 15.2836 16.3923L15.2849 16.5833C15.286 16.7352 15.3092 16.8861 15.3537 17.0313C14.525 17.0816 13.8653 17.778 13.8711 18.6176L13.8724 18.8086C13.8784 19.6767 14.5936 20.3821 15.4617 20.3761L15.6527 20.3748C16.5208 20.3688 17.2262 19.6536 17.2202 18.7856L17.2189 18.5945C17.2178 18.4427 17.1946 18.2918 17.1501 18.1466C17.9788 18.0963 18.6385 17.3999 18.6327 16.5603Z" fill="#E55525"/>
<path d="M14.5413 17.7867L14.5027 17.5996C14.3275 16.7494 13.4885 16.1971 12.6383 16.3723L12.4512 16.4108C11.6009 16.5861 11.0486 17.4251 11.2239 18.2753L11.2624 18.4624C11.4376 19.3127 12.2766 19.865 13.1269 19.6897L13.314 19.6512C14.1642 19.476 14.7165 18.637 14.5413 17.7867Z" fill="#D45C20"/>
<path d="M21.094 15.3788L21.0533 15.1814C20.8685 14.2845 19.9835 13.702 19.0866 13.8868L18.8892 13.9275C18.8297 13.9397 18.7717 13.9553 18.715 13.9736C18.7565 13.5743 18.6674 13.1592 18.4324 12.7989L18.3125 12.615C17.7678 11.7797 16.6386 11.542 15.8033 12.0867L15.6195 12.2065C14.8693 12.6958 14.6015 13.6563 14.9492 14.4521C14.6923 14.3694 14.4183 14.3547 14.1539 14.4092L13.9668 14.4478C13.1165 14.623 12.5643 15.462 12.7395 16.3122L12.778 16.4993C12.9532 17.3496 13.7923 17.9019 14.6425 17.7267L14.8296 17.6881C15.6799 17.5129 16.2321 16.6739 16.0569 15.8237L16.0184 15.6366C16.0135 15.6135 16.0082 15.5905 16.0024 15.5677C16.491 15.7805 17.0651 15.7765 17.5614 15.5204C17.5584 15.6435 17.5688 15.7687 17.5946 15.8942L17.6353 16.0915C17.8201 16.9884 18.7051 17.571 19.602 17.3861L19.7994 17.3455C20.6962 17.1606 21.2788 16.2757 21.094 15.3788Z" fill="#F26C24"/>
<path d="M17.8337 18.8493C14.5786 18.8717 11.6072 19.1279 9.58603 18.2227C9.4311 18.6627 9.55355 19.2793 9.55705 19.7886L9.81802 23.2104C10.05 25.1823 10.8687 25.4799 13.1238 26.1393C13.1456 26.1456 13.1682 26.1498 13.1899 26.1564C13.453 26.2362 15.3857 26.7772 19.1265 26.3713C22.3556 26.0208 24.4912 24.5444 24.4912 24.5444C26.2021 23.4424 25.9835 21.6542 25.9701 19.7016L25.8831 17.0628C25.8796 16.5535 25.7251 16.4857 25.5641 16.0479C23.5555 16.9807 21.0888 18.8269 17.8337 18.8493Z" fill="#444D38"/>
<path d="M11.9671 17.2062L11.9285 17.0191C11.7533 16.1688 10.9143 15.6165 10.0641 15.7918L9.87698 15.8303C9.0267 16.0055 8.47441 16.8445 8.64963 17.6948L8.68819 17.8819C8.8634 18.7321 9.70242 19.2844 10.5526 19.1092L10.7397 19.0707C11.59 18.8955 12.1423 18.0565 11.9671 17.2062ZM20.2299 17.4354L20.189 17.2365C20.0027 16.3326 19.1108 15.7455 18.2069 15.9318L18.008 15.9727C17.1042 16.159 16.517 17.0509 16.7033 17.9548L16.7443 18.1537C16.9305 19.0575 17.8224 19.6447 18.7262 19.4584L18.9251 19.4174C19.8291 19.2312 20.4162 18.3393 20.2299 17.4354ZM22.44 12.6148L22.4014 12.4278C22.2262 11.5775 21.3872 11.0252 20.5369 11.2004L20.3499 11.239C19.4996 11.4142 18.9473 12.2532 19.1225 13.1034L19.1611 13.2905C19.3363 14.1408 20.1753 14.6931 21.0255 14.5179L21.2126 14.4793C22.0628 14.3041 22.6152 13.4651 22.44 12.6148Z" fill="#EC7B30"/>
<path d="M22.9667 17.1691C22.9604 16.262 22.2132 15.5251 21.3062 15.5313L21.1066 15.5327C20.1995 15.5389 19.4626 16.2861 19.4688 17.1931L19.4705 17.4464C19.4768 18.3535 20.224 19.0905 21.131 19.0842L21.3306 19.0829C22.2377 19.0766 22.9746 18.3294 22.9684 17.4224L22.9667 17.1691Z" fill="#F24D20"/>
<path d="M14.6369 13.423C14.6309 12.5549 13.9157 11.8495 13.0476 11.8555L12.8566 11.8568C11.9885 11.8628 11.2831 12.578 11.2891 13.446L11.2904 13.6371C11.2964 14.5052 12.0116 15.2105 12.8796 15.2046L13.0707 15.2033C13.9388 15.1973 14.6441 14.4821 14.6382 13.614L14.6369 13.423Z" fill="#ED6623"/>
<path d="M25.7814 16.005C25.7754 15.1369 25.0602 14.4316 24.1922 14.4375L24.0011 14.4388C23.133 14.4448 22.4277 15.16 22.4336 16.0281L22.4349 16.2191C22.4409 17.0872 23.1561 17.7926 24.0242 17.7866L24.2152 17.7853C25.0833 17.7793 25.7887 17.0641 25.7827 16.1961L25.7814 16.005Z" fill="#E55525"/>
<path d="M23.4494 15.009C23.4434 14.1408 22.7282 13.4355 21.8601 13.4414L21.6691 13.4428C20.801 13.4487 20.0956 14.1639 20.1016 15.032L20.1029 15.223C20.1089 16.0911 20.8241 16.7965 21.6921 16.7905L21.8832 16.7892C22.7513 16.7832 23.4566 16.068 23.4507 15.2L23.4494 15.009Z" fill="#EB6523"/>
<path d="M20.4861 13.55C20.4802 12.6819 19.765 11.9765 18.8969 11.9825L18.7059 11.9838C17.8378 11.9897 17.1324 12.7049 17.1384 13.573L17.1397 13.764C17.1457 14.6321 17.8609 15.3375 18.7289 15.3315L18.9199 15.3302C19.788 15.3242 20.4934 14.609 20.4874 13.741L20.4861 13.55ZM13.2814 15.1204C13.2754 14.2523 12.5602 13.5469 11.6922 13.5529L11.5011 13.5542C10.633 13.5601 9.92767 14.2753 9.93363 15.1434L9.93494 15.3344C9.9409 16.2025 10.6561 16.9079 11.5242 16.9019L11.7152 16.9006C12.5833 16.8947 13.2887 16.1795 13.2827 15.3114L13.2814 15.1204Z" fill="#F24D20"/>
<path d="M16.0804 13.6061L16.0418 13.419C15.8666 12.5687 15.0276 12.0164 14.1773 12.1916L13.9903 12.2302C13.14 12.4054 12.5877 13.2444 12.7629 14.0946L12.8015 14.2817C12.9767 15.132 13.8157 15.6843 14.6659 15.5091L14.853 15.4705C15.7032 15.2954 16.2556 14.4563 16.0804 13.6061Z" fill="#EC7B30"/>
<path d="M12.3349 13.3494C12.5932 13.3494 12.8026 13.14 12.8026 12.8818C12.8026 12.6235 12.5932 12.4141 12.3349 12.4141C12.0766 12.4141 11.8672 12.6235 11.8672 12.8818C11.8672 13.14 12.0766 13.3494 12.3349 13.3494Z" fill="#F7C2A9"/>
<path d="M11.8729 14.3645C11.8733 14.426 11.8616 14.4869 11.8385 14.5438C11.8154 14.6007 11.7813 14.6525 11.7382 14.6962C11.6951 14.7399 11.6437 14.7747 11.5872 14.7986C11.5306 14.8225 11.4698 14.835 11.4084 14.8355C11.347 14.8359 11.2861 14.8242 11.2292 14.8011C11.1723 14.778 11.1205 14.7439 11.0768 14.7008C11.033 14.6576 10.9982 14.6063 10.9743 14.5497C10.9504 14.4931 10.9379 14.4324 10.9375 14.371C10.9367 14.247 10.9851 14.1277 11.0722 14.0393C11.1593 13.951 11.2779 13.9009 11.402 13.9001C11.526 13.8992 11.6453 13.9477 11.7336 14.0348C11.8219 14.1219 11.872 14.2405 11.8729 14.3645ZM24.2578 15.0232C24.1964 15.0236 24.1356 15.0361 24.0791 15.06C24.0225 15.0839 23.9712 15.1187 23.928 15.1625C23.8849 15.2062 23.8508 15.258 23.8277 15.3149C23.8046 15.3718 23.7929 15.4327 23.7933 15.4941C23.7938 15.5555 23.8063 15.6163 23.8302 15.6728C23.8541 15.7294 23.8889 15.7807 23.9326 15.8239C23.9763 15.867 24.0281 15.9011 24.085 15.9242C24.1419 15.9473 24.2028 15.959 24.2643 15.9586C24.3883 15.9577 24.5069 15.9076 24.594 15.8193C24.6811 15.731 24.7296 15.6117 24.7287 15.4877C24.7279 15.3636 24.6778 15.245 24.5894 15.1579C24.5011 15.0708 24.3818 15.0223 24.2578 15.0232ZM23.0675 12.8945C23.0061 12.895 22.9453 12.9075 22.8887 12.9314C22.8322 12.9553 22.7808 12.9901 22.7377 13.0338C22.6946 13.0775 22.6605 13.1293 22.6374 13.1862C22.6143 13.2431 22.6026 13.304 22.603 13.3655C22.6034 13.4269 22.616 13.4876 22.6398 13.5442C22.6637 13.6008 22.6985 13.6521 22.7423 13.6952C22.786 13.7383 22.8378 13.7724 22.8947 13.7956C22.9516 13.8187 23.0125 13.8303 23.0739 13.8299C23.198 13.8291 23.3166 13.779 23.4037 13.6907C23.4908 13.6023 23.5392 13.483 23.5384 13.359C23.5375 13.235 23.4874 13.1163 23.3991 13.0292C23.3108 12.9421 23.1915 12.8937 23.0675 12.8945ZM20.4248 16.7363C20.3633 16.7368 20.3026 16.7493 20.246 16.7732C20.1894 16.7971 20.1381 16.8319 20.095 16.8756C20.0519 16.9193 20.0178 16.9711 19.9947 17.028C19.9715 17.0849 19.9599 17.1458 19.9603 17.2073C19.9607 17.2687 19.9732 17.3294 19.9971 17.386C20.021 17.4426 20.0558 17.4939 20.0996 17.537C20.1433 17.5801 20.1951 17.6142 20.252 17.6373C20.3089 17.6605 20.3698 17.6721 20.4312 17.6717C20.5552 17.6709 20.6739 17.6208 20.761 17.5325C20.8481 17.4441 20.8965 17.3248 20.8957 17.2008C20.8948 17.0768 20.8447 16.9581 20.7564 16.871C20.6681 16.7839 20.5488 16.7355 20.4248 16.7363Z" fill="#F48165"/>
<path d="M21.2311 11.9674C21.2319 12.0914 21.1835 12.2107 21.0964 12.2991C21.0093 12.3874 20.8906 12.4375 20.7666 12.4383C20.6426 12.4392 20.5233 12.3907 20.4349 12.3036C20.3466 12.2165 20.2965 12.0979 20.2957 11.9739C20.2953 11.9124 20.3069 11.8515 20.33 11.7946C20.3532 11.7377 20.3873 11.6859 20.4304 11.6422C20.4735 11.5985 20.5248 11.5637 20.5814 11.5398C20.638 11.5159 20.6987 11.5034 20.7601 11.5029C20.8216 11.5025 20.8825 11.5142 20.9394 11.5373C20.9963 11.5604 21.0481 11.5945 21.0918 11.6376C21.1355 11.6808 21.1703 11.7321 21.1942 11.7887C21.2181 11.8453 21.2306 11.906 21.2311 11.9674ZM16.5231 12.2929C16.399 12.2938 16.2804 12.3439 16.1933 12.4322C16.1062 12.5205 16.0577 12.6398 16.0586 12.7638C16.0595 12.8879 16.1096 13.0065 16.1979 13.0936C16.2862 13.1807 16.4055 13.2291 16.5295 13.2283C16.6536 13.2274 16.7722 13.1773 16.8593 13.089C16.9464 13.0007 16.9948 12.8814 16.994 12.7574C16.9931 12.6333 16.943 12.5147 16.8547 12.4276C16.7664 12.3405 16.6471 12.292 16.5231 12.2929Z" fill="#F4B994"/>
<path d="M10.0682 16.8907C10.0686 16.9521 10.0569 17.013 10.0338 17.0699C10.0107 17.1268 9.97661 17.1786 9.93348 17.2224C9.89035 17.2661 9.83903 17.3009 9.78245 17.3248C9.72587 17.3487 9.66513 17.3612 9.60372 17.3616C9.51122 17.3623 9.42061 17.3354 9.34335 17.2846C9.26609 17.2337 9.20564 17.1611 9.16966 17.0759C9.13367 16.9907 9.12376 16.8967 9.14118 16.8059C9.1586 16.715 9.20257 16.6314 9.26752 16.5655C9.33248 16.4997 9.4155 16.4545 9.50609 16.4359C9.59669 16.4172 9.69079 16.4258 9.77649 16.4606C9.86219 16.4954 9.93564 16.5549 9.98756 16.6314C10.0395 16.708 10.0675 16.7982 10.0682 16.8907ZM18.5549 12.4258C18.4309 12.4266 18.3123 12.4767 18.2252 12.5651C18.138 12.6534 18.0896 12.7727 18.0904 12.8967C18.0913 13.0207 18.1414 13.1394 18.2297 13.2265C18.318 13.3136 18.4373 13.362 18.5614 13.3612C18.6228 13.3607 18.6835 13.3482 18.7401 13.3243C18.7967 13.3004 18.848 13.2656 18.8911 13.2219C18.9343 13.1782 18.9683 13.1264 18.9915 13.0695C19.0146 13.0126 19.0262 12.9517 19.0258 12.8903C19.0254 12.8288 19.0129 12.7681 18.989 12.7115C18.9651 12.6549 18.9303 12.6036 18.8866 12.5605C18.8428 12.5174 18.791 12.4833 18.7341 12.4602C18.6772 12.437 18.6163 12.4254 18.5549 12.4258ZM21.4467 14.1045C21.3853 14.1049 21.3245 14.1174 21.2679 14.1413C21.2114 14.1652 21.16 14.2 21.1169 14.2437C21.0738 14.2875 21.0397 14.3393 21.0166 14.3962C20.9935 14.4531 20.9818 14.514 20.9822 14.5754C20.9826 14.6368 20.9952 14.6975 21.0191 14.7541C21.0429 14.8107 21.0778 14.862 21.1215 14.9052C21.1652 14.9483 21.217 14.9824 21.2739 15.0055C21.3308 15.0286 21.3917 15.0403 21.4531 15.0399C21.5772 15.039 21.6958 14.9889 21.7829 14.9006C21.87 14.8123 21.9184 14.693 21.9176 14.5689C21.9167 14.4449 21.8666 14.3263 21.7783 14.2392C21.69 14.1521 21.5707 14.1036 21.4467 14.1045ZM17.8935 16.6379C17.832 16.6383 17.7713 16.6508 17.7147 16.6747C17.6582 16.6986 17.6068 16.7334 17.5637 16.7771C17.5206 16.8209 17.4865 16.8727 17.4634 16.9296C17.4403 16.9865 17.4286 17.0474 17.429 17.1088C17.4294 17.1702 17.4419 17.2309 17.4658 17.2875C17.4897 17.3441 17.5245 17.3954 17.5683 17.4386C17.612 17.4817 17.6638 17.5158 17.7207 17.5389C17.7776 17.562 17.8385 17.5737 17.8999 17.5733C18.024 17.5724 18.1426 17.5223 18.2297 17.434C18.3168 17.3457 18.3652 17.2264 18.3644 17.1023C18.3635 16.9783 18.3134 16.8597 18.2251 16.7726C18.1368 16.6855 18.0175 16.637 17.8935 16.6379Z" fill="#F6CAAE"/>
<path d="M14.0067 13.6658C14.265 13.6658 14.4744 13.4565 14.4744 13.1982C14.4744 12.9399 14.265 12.7305 14.0067 12.7305C13.7485 12.7305 13.5391 12.9399 13.5391 13.1982C13.5391 13.4565 13.7485 13.6658 14.0067 13.6658Z" fill="#EFA06F"/>
</svg>
