<svg width="32" height="32" viewBox="0 0 32 32" fill="none" xmlns="http://www.w3.org/2000/svg">
<path d="M29 22.5C29 27.1916 22.925 31 15.5 31C8.02308 31 2 27.1916 2 22.5C2 17.8084 8.02308 14 15.5 14C22.925 14 29 17.8084 29 22.5Z" fill="#94989B"/>
<path d="M31 17.5C31 23.828 24.0767 29 15.5 29C6.92333 29 0 23.8889 0 17.5C0 11.1111 6.92333 6 15.5 6C24.0767 6 31 11.1111 31 17.5Z" fill="#C7D7D7"/>
<path d="M28 15.9562C28 11.5992 22.3826 8 15.5 8C8.61741 8 3 11.5361 3 15.9562C3 18.4188 4.77125 20.6288 7.60526 22.0812C7.75708 22.2706 7.90891 22.7126 7.65587 23.4703C7.25101 24.7332 8.71862 26.375 10.0344 25.4278C11.3502 24.4806 13.2733 24.7964 13.9818 25.4278C14.6903 26.0593 16.7146 26.3118 17.7773 25.4278C18.8401 24.5438 19.6498 23.9123 21.4211 23.9123C23.1923 23.9123 24.5587 21.6392 25.4696 20.7551C27.0891 19.4291 28 17.7874 28 15.9562Z" fill="#BA5327"/>
<path d="M25.8785 15.9106C25.1553 13.9876 23.5643 16.6799 22.6482 16.2952C20.6233 15.4491 22.1179 20.1414 22.9375 20.3721C23.9018 20.6798 26.6016 17.8337 25.8785 15.9106ZM18.6948 20.3721C17.2485 20.2952 17.0556 19.6029 16.3324 20.6798C14.7896 22.9875 19.5627 25.6028 20.1412 24.6798C20.8162 23.5259 20.1412 20.449 18.6948 20.3721ZM21.3465 10.1415C19.6591 10.0645 19.5627 9.603 18.743 10.9107C16.911 13.6799 19.3216 16.6799 19.9966 15.526C20.768 14.1414 22.9857 10.2184 21.3465 10.1415ZM13.2951 19.0644C11.9451 18.8337 10.1613 20.2183 10.0166 22.1413C9.872 23.9875 10.6916 25.3721 11.6559 24.9105C12.6201 24.449 13.1504 22.1413 13.6326 21.3721C14.1147 20.6029 14.0665 19.2183 13.2951 19.0644Z" fill="#FBBF67"/>
<path d="M14.7776 7.00695C14.1547 6.88497 13.7235 8.40978 13.1007 8.2878C12.6695 8.2268 11.7112 7.06795 11.3279 7.18993C10.8488 7.31192 10.226 9.0807 9.74685 9.26368C9.07608 9.44665 8.78861 7.73886 8.11785 7.98283C6.53676 8.53177 5.67435 11.8864 3.90162 11.8864C2.56009 11.9473 1.17065 17.9856 2.608 17.9856C5.19523 17.9856 4.95568 19.9983 5.29106 19.9983C5.67435 20.0593 5.67435 18.4125 5.96182 18.1686C6.34512 17.8026 7.44708 18.4735 7.78247 18.0466C8.06994 17.7416 7.78247 16.3998 8.06994 16.0948C8.40532 15.7289 9.45938 16.5218 9.89058 16.2778C10.1301 16.1558 10.226 14.753 10.4176 14.997C11.855 16.9487 12.8132 16.1558 13.1007 15.3019C13.2923 14.692 12.4299 13.1672 12.8132 12.6793C13.1965 12.1913 14.1068 14.326 14.5859 14.0211C14.7776 13.8991 14.6338 13.1062 14.7776 12.9842C15.0651 12.6793 15.9754 13.5941 16.2149 13.1672C16.3587 12.8622 15.64 12.0083 15.7837 11.7034C15.9754 11.3374 16.8378 12.0693 17.1253 11.8254C17.6044 11.5204 18.0835 9.56864 17.9877 8.89772C17.7481 7.86085 15.4483 7.12894 14.7776 7.00695Z" fill="#FFFBE9"/>
<path d="M6.66164 9.95531C6.06372 11.0189 5.86442 12.145 6.16338 12.4578C6.46233 12.7706 7.1599 12.2075 7.75782 11.144C8.35573 10.0804 8.55504 8.95432 8.25608 8.64151C7.95712 8.3287 7.25955 8.89176 6.66164 9.95531ZM8.60486 15.5859C7.75782 15.0228 6.91077 14.8977 6.76129 15.3982C6.61181 15.8361 7.1599 16.712 8.00695 17.2751C8.854 17.8381 9.70104 17.9633 9.85052 17.4628C10 16.9623 9.45191 16.149 8.60486 15.5859ZM3.97102 14.147C3.22363 14.8977 2.82502 15.8987 3.07415 16.2741C3.1738 16.4618 3.77171 15.7736 3.62224 17.5253C3.52258 18.6514 4.66859 17.5253 5.36616 16.712C6.9606 14.71 5.71494 12.3952 3.97102 14.147ZM11.9931 13.4588C12.3917 13.3962 11.7937 12.0199 11.0962 11.2066C10.3488 10.3932 9.40209 10.0179 9.35226 10.5184C9.25261 11.7071 8.75434 11.3317 8.65469 11.5819C8.45539 12.0199 8.90382 13.0209 9.70104 13.709C10.4484 14.3972 11.2457 14.6475 11.445 14.2095C11.4948 14.0218 11.0962 13.5214 11.9931 13.4588ZM16.029 10.2056C16.7764 9.45482 17.175 8.45382 16.9259 8.07845C16.6767 7.64051 14.9826 9.20457 13.3882 8.64151C12.4913 8.3287 11.6443 9.01688 11.6443 9.51738C11.6443 9.89275 11.9931 10.2056 12.5411 10.3932C12.292 10.9563 12.1924 11.4568 12.3917 11.7071C12.6408 12.0824 13.438 11.707 14.1356 10.8937C14.1356 10.7061 15.2816 10.9563 16.029 10.2056Z" fill="#E8E1D6"/>
<path d="M7.6 14.3376C7.3 13.0064 6.4 12.0955 6.4 12.0955C6.4 12.0955 6.5 13.4968 6.6 14.1274C5.6 13.5669 5.6 10.8344 5.6 10.8344C5.6 10.8344 4.95 11.465 5 12.5159C3.9 11.1847 3 11.8153 3 11.8153C3 11.8153 4.35 13.0064 4.55 13.8471C3.8 13.9172 3.35 14.3376 3.05 15.3185C3.05 15.3185 4.55 14.1975 5.7 15.0382C5.25 15.5987 5.5 17 5.5 17C7.3 14.0573 8.45 16.7197 9.25 15.949C8.65 14.5478 7.6 14.3376 7.6 14.3376ZM18 7.26115C18 7.26115 16.95 8.3121 16.5 8.17197C16.75 7.26115 16.75 6.63057 16.4 6C16.4 6 16.3 8.10191 15.5 9.01274C15.4 8.3121 14.7 8.03185 14.7 8.03185C15.35 11.1847 13.7 11.3949 13.7 12.5159C14.6 12.3758 15.05 11.3248 15.05 11.3248C15.75 11.535 16.5 10.9045 16.5 10.9045C16.5 10.9045 15.85 10.4841 15.5 10.3439C16.1 9.50319 17.35 10.4841 17.35 10.4841C17.35 10.4841 17.35 9.50318 16.85 9.15287C17.95 8.45223 18 7.26115 18 7.26115Z" fill="#699635"/>
</svg>
